<?xml version="1.0" standalone="no"?>
<!DOCTYPE svg PUBLIC "-//W3C//DTD SVG 1.1//EN" "http://www.w3.org/Graphics/SVG/1.1/DTD/svg11.dtd" >
<svg xmlns="http://www.w3.org/2000/svg" xmlns:xlink="http://www.w3.org/1999/xlink" version="1.1">
<metadata>
Created by FontForge 20201107 at Thu Jan 27 16:12:40 2022
 By Unknown
Hoperative Design. 2022. All Rights Reserved
</metadata>
<defs>
<font id="LeontyneSignature" horiz-adv-x="0" >
  <font-face 
    font-family="Leontyne Signature"
    font-weight="400"
    font-stretch="normal"
    units-per-em="1000"
    panose-1="2 0 6 0 0 0 0 0 0 0"
    ascent="800"
    descent="-200"
    x-height="122"
    cap-height="797"
    bbox="-920 -638 1777 974"
    underline-thickness="50"
    underline-position="-100"
    unicode-range="U+0020-FB02"
  />
<missing-glyph horiz-adv-x="500" 
 />
    <glyph glyph-name="tt" unicode="tt" horiz-adv-x="309" 
d="M-26 532h-2c-6 0 -11 5 -12 11v4c1 5 3 11 6 15c3 5 6 8 10 10c7 5 14 8 21 10c14 4 28 7 42 8c13 2 27 3 40 3c7 1 14 1 21 1h20c7 1 14 1 21 1c6 0 13 0 20 -1h10c3 5 5 9 7 13c15 29 32 57 49 85c9 14 18 27 28 41c5 7 10 14 16 20c4 3 7 7 12 10c3 1 6 3 10 3
c1 0 3 1 5 1c3 0 6 -1 9 -3c5 -3 7 -7 7 -12c0 -2 -1 -5 -2 -7c-3 -5 -7 -7 -12 -7c-2 0 -5 1 -7 2c0 0 -5 -2 -8 -4c-5 -4 -11 -9 -17 -14c-10 -12 -20 -25 -29 -38c-18 -27 -34 -55 -49 -83c-1 -2 -2 -5 -3 -7h14l81 -2c27 -1 54 -2 82 -3c14 29 28 58 44 86
c8 14 16 28 25 42c4 7 9 14 14 21c5 6 10 13 16 19c4 3 7 6 12 8c1 0 3 1 5 1h2c1 0 2 -1 3 -1c2 -1 4 -2 5 -4c1 -1 2 -3 2 -4c1 -3 1 -5 1 -8v-6c0 -5 -1 -9 -2 -13c-3 -16 -8 -32 -13 -47c-10 -31 -22 -62 -34 -92l-2 -2h42c13 1 27 1 40 2s27 3 39 5c7 1 13 2 18 4
c2 1 4 2 5 2c2 7 7 11 14 11c8 0 14 -6 14 -14c0 -1 0 -3 -1 -4c0 -1 0 -3 -1 -4c0 -1 -1 -2 -2 -3c0 -1 -1 -2 -2 -3c-3 -2 -5 -4 -8 -5c-4 -2 -8 -3 -12 -4c-8 -1 -15 -2 -22 -2c-14 -1 -28 -1 -41 -1c-14 0 -28 1 -41 2c-14 0 -27 1 -41 1c-2 1 -4 1 -6 1
c-10 -25 -21 -50 -33 -75c-13 -29 -27 -59 -41 -88c-15 -29 -30 -58 -45 -86c-30 -58 -62 -114 -97 -169c-11 -19 -24 -37 -36 -55c-19 -52 -36 -103 -53 -155c-20 -61 -38 -124 -53 -186c-3 -16 -7 -32 -9 -48c-2 -8 -3 -15 -4 -23l-3 -24c-1 -8 -1 -16 -1 -24s0 -15 1 -22
c1 -4 2 -7 3 -10s2 -6 3 -7l1 -1h1c1 0 3 1 5 2s4 2 7 2c5 0 9 -3 12 -8c1 -2 2 -4 2 -7c0 -5 -3 -9 -8 -12c-1 0 -1 -1 -2 -1h-1c-4 -1 -8 -2 -13 -2h-6c-3 1 -7 2 -10 5c-3 2 -6 4 -8 7c-3 6 -5 11 -6 16c-1 4 -2 9 -2 13v7c0 16 2 30 4 44c1 8 3 16 4 24c2 8 3 16 5 24
c4 16 7 32 11 48c16 63 34 125 53 187c12 36 23 71 35 106c-5 -6 -11 -13 -16 -20c-10 -13 -21 -25 -33 -37c-12 -11 -24 -23 -39 -32c-7 -4 -16 -8 -25 -10c-5 -1 -10 -2 -15 -2c-5 1 -10 2 -14 4c-5 2 -9 5 -13 9c-4 3 -7 7 -9 11c-5 9 -7 18 -9 26c-2 11 -3 22 -3 33
c0 6 1 12 1 18c1 17 4 33 7 49s6 32 10 48c8 32 17 63 28 94c20 62 45 122 70 182c13 30 27 59 41 88c10 22 21 43 32 64h-5c-14 -1 -27 -1 -40 -2c-7 0 -14 -1 -20 -1c-7 -1 -14 -1 -20 -2c-14 -2 -27 -3 -40 -6c-13 -2 -25 -6 -37 -10c-5 -3 -11 -6 -14 -9
c-2 -1 -3 -3 -4 -5c-1 -1 -1 -2 -1 -3v-2c0 -6 -5 -11 -11 -12zM394 507c11 23 22 47 32 70l-48 3c-13 -29 -26 -58 -39 -88c-6 -14 -12 -29 -19 -44l-18 -45c-13 -30 -25 -60 -37 -90c-20 -51 -40 -102 -59 -153c1 2 2 4 4 6c35 54 67 111 98 167c30 57 59 115 86 174z
M420 668c-13 -26 -26 -52 -38 -79h49l3 6c12 30 24 60 34 91c5 15 9 31 12 46c1 4 1 8 2 12c0 3 0 7 -1 10v1c-1 0 -1 -1 -2 -1c-2 -1 -5 -3 -8 -5c-5 -6 -10 -12 -14 -18c-5 -7 -9 -14 -13 -20c-9 -14 -16 -28 -24 -43zM201 584h-20c-12 -23 -23 -46 -34 -70
c-14 -29 -27 -58 -40 -88c-25 -60 -47 -120 -67 -182c-10 -30 -19 -61 -26 -92c-8 -31 -14 -63 -16 -94c0 -8 -1 -16 -1 -24c0 -7 1 -15 2 -22c3 -15 8 -28 19 -33c4 -2 8 -3 11 -3s5 1 7 1c7 1 14 5 20 8c13 8 25 18 37 29c22 22 43 47 62 73c5 6 9 12 14 18
c3 11 7 22 11 33c21 61 44 122 67 182c12 31 24 61 37 91l18 45c7 14 13 29 20 44c6 15 13 30 20 45c6 12 11 24 17 35c-26 2 -51 3 -77 3c-27 1 -54 1 -81 1z" />
    <glyph glyph-name="ll" unicode="ll" horiz-adv-x="459" 
d="M9 196c6 37 14 73 24 109c19 72 44 142 75 210c8 17 16 34 24 50c9 17 18 33 27 49c19 33 39 64 63 93c12 15 25 29 41 41c8 5 16 11 26 14c5 1 11 2 16 2h4c4 0 8 -1 12 -3c3 -1 5 -3 8 -4c2 -2 4 -4 5 -7c4 -4 6 -9 7 -14c3 -10 4 -19 4 -29c0 -19 -3 -38 -7 -56
c-8 -37 -19 -72 -32 -107s-27 -69 -43 -103c-31 -67 -66 -132 -106 -194c-20 -32 -42 -62 -65 -91c-23 -28 -47 -55 -76 -78c1 -7 2 -14 3 -20c2 -9 5 -17 10 -24c4 -7 10 -13 18 -16c5 -2 12 -3 18 -3h6c9 1 17 3 26 7c8 3 16 7 24 12c15 9 30 20 44 32c18 15 35 31 52 49
c0 8 1 16 1 25c7 75 26 147 50 218c12 35 26 70 41 104c16 34 32 67 52 99c9 16 20 32 31 47s23 30 38 42c7 6 15 12 24 16c5 3 10 4 15 5h5c4 0 7 0 11 -1c6 -1 11 -4 15 -7c4 -4 8 -8 10 -13c4 -10 5 -20 5 -30c0 -19 -4 -38 -9 -56s-12 -35 -19 -52
c-14 -35 -30 -68 -48 -101c-36 -65 -76 -127 -120 -186c-22 -30 -45 -59 -70 -87c-3 -4 -7 -8 -10 -12c-2 -14 -4 -29 -5 -43c0 -7 -1 -13 -1 -20c0 -11 1 -23 3 -34c1 -9 2 -17 5 -26c3 -8 6 -16 11 -24c5 -7 11 -13 18 -17c8 -4 16 -6 25 -6c8 0 17 2 26 5c8 3 17 6 25 10
c15 9 30 20 44 31c15 12 28 25 40 38c12 14 24 28 33 43c1 3 4 4 7 4c1 0 2 0 3 -1c2 -1 3 -4 3 -6s0 -3 -1 -4v-1c-12 -15 -24 -29 -38 -42c-13 -13 -27 -26 -41 -37c-15 -12 -30 -23 -47 -32c-8 -4 -17 -8 -26 -11s-18 -5 -28 -5h-5c-8 0 -16 2 -24 6c-9 4 -17 12 -22 19
c-6 8 -11 17 -14 26s-6 19 -8 28c-4 19 -5 38 -6 56v19c-14 -15 -29 -29 -45 -43c-14 -12 -29 -24 -45 -33c-8 -5 -17 -10 -26 -13c-8 -4 -18 -7 -27 -8c-3 0 -7 -1 -10 -1c-7 0 -14 1 -20 4c-10 4 -18 12 -23 20c-6 9 -9 18 -12 27c-2 9 -4 19 -5 28s-1 18 -1 27
c0 29 3 58 7 86zM262 244c-9 -34 -16 -69 -21 -104c1 1 1 2 2 3c25 28 48 57 70 86c22 30 42 60 62 91s39 63 56 96c18 32 34 65 47 99c7 17 13 35 18 52c4 16 8 32 8 48v5c0 9 -1 18 -4 25c-2 3 -4 6 -7 9c-3 2 -7 4 -11 5h-5c-6 0 -12 -1 -17 -4c-8 -3 -15 -9 -22 -14
c-13 -12 -24 -27 -34 -42c-11 -14 -20 -30 -29 -46c-17 -32 -32 -66 -46 -100s-26 -68 -37 -103s-22 -70 -30 -106zM131 505c-30 -67 -55 -136 -77 -206c-11 -35 -20 -71 -28 -106c-3 -18 -6 -36 -8 -54c-1 -12 -2 -25 -2 -37v-14c25 22 48 47 70 73c23 29 44 59 64 90
c40 62 75 127 105 194c16 34 30 68 42 102c13 35 24 70 31 106c3 16 5 31 5 47v7c0 9 -1 17 -3 25c-3 8 -8 15 -14 17c-3 1 -7 2 -11 2s-7 -1 -11 -3c-8 -2 -15 -7 -22 -12c-13 -11 -25 -25 -36 -39c-11 -15 -21 -30 -31 -45l-27 -48c-8 -16 -17 -33 -24 -49
c-8 -17 -16 -33 -23 -50z" />
    <glyph glyph-name="a_t" unicode="at" horiz-adv-x="543" 
d="M701 573c-10 0 -20 1 -30 2c-10 0 -20 1 -30 2s-20 2 -29 3c-34 3 -68 6 -102 8c-21 -36 -41 -74 -61 -111c-10 -26 -21 -52 -30 -78c-9 -22 -17 -44 -24 -67c-8 -22 -15 -45 -22 -67c-6 -23 -13 -46 -18 -68c-3 -12 -6 -23 -8 -35c-3 -11 -5 -23 -7 -34
c-2 -12 -4 -23 -6 -35c-1 -11 -2 -23 -3 -35c0 -5 -1 -11 -1 -17s1 -11 1 -17c1 -11 3 -23 7 -33c3 -10 9 -20 17 -27s18 -10 29 -10s22 3 33 8c10 4 20 10 30 17c19 13 36 30 52 47c15 18 29 37 41 57c1 3 4 4 6 4c1 0 3 0 4 -1c2 -1 3 -3 3 -6c0 -1 0 -3 -1 -4v-1
c-15 -19 -30 -37 -47 -55c-16 -17 -34 -34 -53 -48c-10 -7 -20 -14 -32 -19c-5 -2 -11 -5 -17 -6c-6 -2 -12 -3 -19 -4c-6 0 -13 1 -19 3c-6 1 -13 5 -18 9c-11 8 -18 19 -23 31c-4 12 -7 24 -9 36s-2 25 -2 37c0 24 2 48 5 72c8 48 20 95 34 140c5 16 10 31 15 46
c-5 -10 -10 -20 -16 -30c-28 -54 -57 -109 -89 -161c-17 -27 -33 -53 -53 -77c-10 -12 -21 -23 -33 -33c-7 -5 -14 -10 -22 -12c-4 -1 -8 -2 -13 -2c-4 0 -8 1 -13 3c-4 2 -8 5 -10 9c-3 4 -4 8 -5 12c-2 6 -3 13 -3 20l-9 -12c-5 -6 -11 -11 -18 -16c-6 -6 -13 -10 -21 -14
c-8 -3 -17 -5 -26 -5s-19 3 -27 9c-7 6 -13 14 -16 23s-3 18 -3 26c1 9 2 17 5 25c2 8 5 16 8 24c8 15 18 29 33 40c7 5 16 9 25 11c3 1 5 1 8 1s6 0 8 -1c5 0 11 -2 15 -5c5 -3 9 -6 13 -11c3 -4 6 -8 8 -13c3 -10 4 -19 4 -28c0 -8 -7 -14 -15 -14s-14 7 -14 14v1
c0 3 1 6 1 8c0 4 -1 7 -2 10c-2 5 -4 9 -8 11c-2 1 -5 2 -9 2h-5c-5 0 -11 -3 -16 -6c-11 -7 -20 -18 -26 -30c-4 -6 -7 -13 -9 -20c-2 -6 -4 -13 -4 -20v-6c0 -5 0 -9 1 -13c2 -6 5 -11 9 -15c5 -3 10 -6 17 -6c6 0 12 1 19 4c6 2 12 6 18 10s11 9 16 14c8 9 16 19 22 29
c2 8 3 16 5 24c3 8 5 15 8 23c1 2 2 3 3 5s2 4 5 7c1 0 1 1 3 1c1 1 2 1 3 1s2 0 3 -1c1 0 1 0 2 -1l1 -1c0 -1 1 -1 1 -1v-2c1 -1 1 -2 1 -2c0 -4 -1 -6 -1 -8c-2 -8 -4 -16 -7 -23s-7 -15 -11 -22c-2 -3 -4 -7 -6 -11c-1 -4 -1 -8 -1 -12v-6c0 -6 0 -11 1 -16
c2 -6 5 -12 11 -15c2 -1 5 -2 9 -2c3 0 6 0 9 2c7 2 13 6 19 10c12 9 22 20 32 32c19 23 36 49 53 75c16 26 31 53 46 80s29 54 43 81c16 30 31 61 47 91l9 24c18 44 38 88 58 131c9 18 18 35 26 53c-16 0 -33 1 -49 1h-30c-9 -1 -19 -1 -29 -2c-5 -1 -10 -1 -15 -2
c-4 0 -9 -1 -14 -2c-9 -1 -19 -3 -28 -6s-17 -6 -24 -11c-3 -2 -6 -5 -7 -7s-1 -4 -1 -6v-4c0 -6 -5 -12 -11 -12h-2c-6 0 -12 5 -13 11v4c1 7 4 15 8 20c5 5 10 9 15 12c11 5 21 8 31 10s20 3 30 4c5 0 10 1 15 1h15c5 1 10 1 15 1s10 0 15 -1h30l54 -3c0 1 1 2 1 3
c11 21 23 42 35 63c6 10 12 21 18 31c7 10 13 20 20 30s14 20 22 30c4 5 9 10 15 14c3 2 6 5 11 6c3 1 6 1 9 1s7 -1 10 -2c5 -3 7 -7 7 -12c0 -3 -1 -6 -2 -8c-2 -4 -7 -7 -12 -7c-2 0 -3 1 -5 1c-6 -6 -12 -13 -18 -20c-9 -11 -18 -24 -27 -36c-17 -25 -33 -52 -49 -78
c-3 -6 -6 -12 -10 -17c33 -2 66 -4 98 -5h30c10 0 19 0 29 1c10 0 20 1 29 3c4 0 9 1 12 3h1c2 6 7 10 13 10c8 0 15 -7 15 -14c-1 -2 -1 -3 -1 -4s-1 -2 -1 -3s-1 -2 -2 -3c0 -1 -1 -2 -1 -3c-3 -2 -5 -4 -7 -5c-5 -2 -8 -2 -11 -3c-6 -1 -11 -1 -17 -1zM715 600
c0 0 1 0 1 1z" />
    <glyph glyph-name="ct" unicode="ct" horiz-adv-x="466" 
d="M652 577c-4 -2 -8 -2 -11 -3c-6 -1 -11 -1 -16 -1c-11 0 -21 1 -31 2c-10 0 -20 1 -30 2s-19 2 -29 3c-35 4 -69 7 -104 8c-16 -29 -31 -58 -46 -88c-5 -10 -11 -21 -16 -31c-9 -23 -19 -46 -27 -70c-9 -22 -16 -44 -24 -67c-7 -22 -15 -45 -21 -67
c-7 -23 -14 -46 -19 -68c-3 -12 -6 -23 -8 -35c-3 -11 -5 -23 -7 -34c-2 -12 -4 -23 -6 -35c-1 -11 -2 -23 -3 -35v-34c1 -11 3 -23 7 -33c3 -10 9 -20 17 -27s18 -10 29 -10s22 3 33 8c10 4 20 10 30 17c19 13 36 30 52 47c15 18 29 37 41 57c1 3 4 4 6 4c1 0 3 0 4 -1
c2 -1 3 -3 3 -6c0 -1 0 -3 -1 -4v-1c-15 -19 -30 -37 -47 -55c-16 -17 -34 -34 -53 -48c-10 -7 -20 -14 -31 -19c-6 -2 -12 -5 -18 -6c-6 -2 -12 -3 -19 -4c-6 0 -13 1 -19 3c-6 1 -12 5 -18 9c-10 8 -18 19 -22 31c-5 12 -8 24 -10 36s-2 25 -2 37c0 24 2 48 6 72
c7 48 19 95 33 140c3 12 7 23 11 34c-14 -27 -28 -54 -43 -80c-24 -45 -50 -90 -79 -133c-15 -22 -30 -43 -47 -62c-9 -10 -18 -20 -28 -28c-10 -9 -22 -16 -36 -20c-3 -1 -7 -2 -11 -2h-11c-7 1 -15 3 -21 8c-7 5 -11 12 -14 19s-4 14 -5 21c-1 5 -1 10 -1 15
c0 9 1 18 3 26c2 14 6 27 12 39c6 13 13 25 22 36c5 5 10 10 16 15c6 4 13 8 21 10c5 1 9 2 14 2s10 -1 14 -4c5 -2 9 -6 12 -10s5 -9 7 -13c1 -4 2 -9 2 -13s-1 -8 -2 -12c-1 -8 -3 -15 -6 -22c-2 -5 -7 -8 -12 -8c-2 0 -4 0 -6 1c-5 2 -9 8 -9 13c0 2 0 3 1 5v1
c3 5 4 10 5 15c1 2 1 5 1 7v6c-1 4 -3 6 -5 7c-1 1 -3 1 -6 1h-3c-5 -1 -9 -3 -14 -6c-4 -3 -8 -7 -12 -11c-8 -8 -15 -18 -21 -29c-5 -11 -9 -22 -12 -34c-2 -10 -4 -20 -4 -29v-6c1 -12 4 -23 12 -30c3 -3 8 -5 13 -6h5c4 0 8 0 12 1c11 3 22 9 32 16c10 8 19 16 27 26
c18 18 33 38 48 60c29 42 54 87 79 132c24 45 48 91 71 137l5 11c4 10 8 19 12 29c17 44 37 88 57 131c9 18 18 35 27 53c-17 0 -34 1 -50 1h-30c-9 -1 -19 -1 -29 -2c-5 -1 -10 -1 -14 -2c-5 0 -10 -1 -15 -2c-9 -1 -19 -3 -28 -6s-17 -6 -24 -11c-3 -2 -5 -5 -7 -7
c-1 -3 -1 -5 -1 -8v-2c0 -6 -5 -12 -11 -12h-2c-6 0 -12 5 -13 11v4c1 7 4 15 8 20c5 5 10 9 15 12c11 5 21 8 31 10s20 3 31 4c5 0 10 1 15 1h15c5 1 9 1 14 1s10 0 15 -1h30l54 -3c0 1 1 2 1 3c11 21 23 42 35 63c6 10 12 21 18 31c7 10 13 20 20 30s14 20 22 30
c5 5 9 10 15 14c3 2 7 5 11 6c3 1 6 1 9 1s7 -1 10 -2c5 -3 7 -7 7 -12c0 -3 -1 -6 -2 -8c0 -1 -1 -1 -2 -2c-1 -2 -2 -3 -4 -3c-1 -1 -2 -1 -4 -2c-3 -1 -7 -3 -11 -6c-5 -3 -9 -7 -13 -12c-9 -9 -17 -19 -24 -29c-15 -20 -29 -42 -42 -64c-7 -13 -15 -26 -22 -39
c33 -2 66 -4 99 -5h30c10 0 20 0 29 1c10 0 20 1 29 3c4 0 9 1 12 3h1c2 6 7 10 13 10c8 0 15 -7 15 -14c0 -2 -1 -3 -1 -4s0 -2 -1 -3c0 -1 -1 -2 -1 -3c-1 -1 -2 -2 -2 -3c-3 -2 -5 -4 -7 -5zM638 600c0 0 1 0 1 1z" />
    <glyph glyph-name="et" unicode="et" horiz-adv-x="457" 
d="M638 574c-6 -1 -11 -1 -16 -1c-11 0 -21 1 -31 2c-10 0 -20 1 -30 2s-19 2 -29 3c-36 4 -71 7 -106 9c-17 -30 -32 -60 -48 -91c-14 -32 -27 -66 -39 -99c-9 -22 -16 -44 -24 -67c-7 -22 -15 -45 -21 -67c-7 -23 -14 -46 -19 -68c-3 -12 -6 -23 -8 -35
c-3 -11 -5 -23 -7 -34c-2 -12 -4 -23 -6 -35c-1 -11 -2 -23 -3 -35v-34c1 -11 3 -23 7 -33c3 -10 9 -20 17 -27s18 -10 29 -10s22 3 33 8c10 4 20 10 30 17c19 13 36 30 52 47c15 18 29 37 41 57c1 3 4 4 6 4c1 0 3 0 4 -1c2 -1 3 -3 3 -6c0 -1 0 -3 -1 -4v-1
c-15 -19 -30 -37 -47 -55c-16 -17 -34 -34 -53 -48c-10 -7 -20 -14 -32 -19c-5 -2 -11 -5 -17 -6c-6 -2 -12 -3 -19 -4c-6 0 -13 1 -19 3c-6 1 -12 5 -18 9c-10 8 -18 19 -22 31c-5 12 -8 24 -10 36s-2 25 -2 37c0 24 2 48 6 72c7 48 19 95 33 140c2 8 5 17 8 25
c-15 -31 -30 -61 -46 -91c-12 -24 -25 -47 -38 -70c-13 -24 -27 -47 -43 -69c-15 -22 -32 -43 -53 -61c-10 -9 -22 -17 -37 -20c-3 -1 -7 -1 -11 -1c-3 0 -7 0 -11 1c-7 1 -15 5 -21 10c-5 6 -9 13 -12 19c-4 7 -5 14 -7 22c-1 7 -1 14 -1 21s0 14 1 21c2 14 6 28 11 42
c6 13 13 26 24 37c3 3 6 5 10 7c2 2 4 3 6 4c2 0 3 1 6 2c4 1 8 2 13 2s11 -2 15 -5c5 -3 9 -8 11 -12c2 -5 2 -10 2 -14c0 -10 -3 -18 -7 -25c-8 -14 -21 -23 -35 -28c-11 -5 -22 -8 -33 -9c0 -1 -1 -3 -1 -4c-1 -6 -2 -12 -2 -19c0 -3 -1 -6 -1 -9s1 -6 1 -9
c0 -6 1 -12 2 -18c2 -5 4 -11 8 -15c3 -4 8 -8 13 -10c3 0 5 -1 8 -1s6 1 9 1c12 2 23 9 33 17s20 18 28 28c9 10 17 20 24 31c16 22 30 45 43 68s26 46 38 70c27 51 52 104 77 156c6 14 11 28 17 41c17 44 37 88 57 131c9 18 18 35 27 53c-17 0 -34 1 -50 1h-30
c-9 -1 -19 -1 -29 -2c-5 -1 -10 -1 -14 -2c-5 0 -10 -1 -15 -2c-9 -1 -19 -3 -28 -6s-17 -6 -24 -11c-3 -2 -5 -5 -7 -7c-1 -3 -1 -5 -1 -8v-2c0 -6 -5 -12 -11 -12h-2c-6 0 -12 5 -13 11v4c1 7 4 15 8 20c5 5 10 9 15 12c11 5 21 8 31 10s20 3 30 4c6 0 11 1 16 1h15
c5 1 9 1 14 1s10 0 15 -1h30l54 -3c0 1 1 2 1 3c11 21 23 42 35 63c6 10 12 21 18 31c7 10 13 20 20 30s14 20 22 30c4 5 9 10 15 14c3 2 7 5 11 6c3 1 6 1 9 1s7 -1 10 -2c5 -3 7 -7 7 -12c0 -3 -1 -6 -2 -8c-3 -4 -8 -7 -13 -7c-7 -5 -14 -11 -21 -17
c-9 -10 -17 -20 -25 -30c-16 -21 -31 -44 -44 -66c-8 -12 -15 -25 -22 -37c34 -2 68 -4 102 -5h30c10 0 20 0 29 1c10 0 20 1 29 3c4 0 9 1 12 3h1c2 6 7 10 13 10c8 0 15 -7 15 -14c0 -2 -1 -3 -1 -4s0 -2 -1 -3c0 -1 -1 -2 -1 -3c-1 -1 -2 -2 -2 -3c-3 -2 -5 -4 -7 -5
c-4 -2 -8 -2 -11 -3zM635 600c0 0 1 0 1 1zM41 127c-3 -5 -5 -11 -8 -16c-2 -5 -4 -10 -5 -15c8 2 15 4 21 8c6 3 11 6 15 10s8 8 10 13c3 4 4 9 4 13c0 3 -1 4 -1 6l-3 3c-1 0 -2 1 -4 1c-1 0 -3 -1 -6 -2c-1 0 -2 0 -3 -1c-1 0 -2 -1 -3 -2c-2 -1 -4 -3 -6 -5
c-4 -3 -7 -8 -11 -13z" />
    <glyph glyph-name="it" unicode="it" horiz-adv-x="471" 
d="M609 573c-10 0 -20 1 -30 2c-10 0 -20 1 -30 2l-30 3c-35 4 -69 7 -104 9c-12 -23 -24 -46 -35 -69c-10 -20 -20 -41 -30 -61l-24 -60c-8 -22 -16 -44 -23 -67c-8 -22 -15 -45 -22 -67c-7 -23 -13 -46 -19 -68c-2 -12 -5 -23 -8 -35c-2 -11 -4 -23 -7 -34
c-2 -12 -4 -23 -5 -35c-2 -11 -3 -23 -3 -35c0 -5 -1 -11 -1 -17s1 -11 1 -17c1 -11 3 -23 6 -33c4 -10 10 -20 17 -27c8 -7 19 -10 30 -10s22 3 32 8c11 4 21 10 30 17c20 13 37 30 52 47c16 18 30 37 41 57c1 3 4 4 7 4c1 0 2 0 3 -1c3 -1 4 -4 4 -6c0 -1 0 -3 -1 -4
c0 0 -1 0 -1 -1c-14 -19 -30 -37 -46 -55c-16 -17 -34 -34 -54 -48c-9 -7 -20 -14 -31 -19c-5 -2 -11 -5 -17 -6c-6 -2 -13 -3 -19 -4c-6 0 -13 1 -19 3c-7 1 -13 5 -18 9c-11 8 -18 19 -23 31s-7 24 -9 36s-3 25 -3 37c0 24 3 48 6 72c7 48 20 95 34 140v1
c-2 -4 -4 -9 -7 -13c-21 -44 -43 -87 -66 -129c-23 -43 -48 -85 -78 -124c-15 -20 -31 -38 -52 -54c-10 -7 -22 -14 -35 -17c-7 -2 -14 -3 -21 -3c-8 1 -15 2 -22 6s-13 9 -18 15c-4 7 -7 13 -9 20c-3 9 -4 19 -4 28c0 4 1 9 1 13c3 26 12 52 28 74c2 4 7 6 11 6
c3 0 6 -1 9 -3c4 -3 5 -7 5 -11c0 -3 0 -6 -2 -9c-7 -9 -12 -18 -16 -29c-4 -10 -7 -20 -9 -31c-1 -6 -1 -13 -1 -19c0 -4 0 -9 1 -13c3 -9 7 -18 14 -22c4 -2 8 -4 13 -4c3 -1 5 -1 8 -1c1 0 2 0 4 1h3c10 2 20 8 30 14c18 13 35 30 50 49c15 18 29 38 42 58s26 40 38 61
c24 42 47 85 69 128c11 23 23 47 34 70c1 2 2 4 2 6c9 23 17 45 26 67c18 44 37 88 58 131c9 18 17 35 26 53c-16 0 -33 1 -50 1h-29c-10 -1 -20 -1 -29 -2c-5 -1 -10 -1 -15 -2c-5 0 -9 -1 -14 -2c-10 -1 -19 -3 -28 -6s-18 -6 -24 -11c-3 -2 -6 -5 -7 -7s-1 -4 -1 -6v-2
c0 -7 -5 -14 -12 -14h-2c-6 0 -11 5 -12 11v4c1 7 4 15 8 20s10 9 15 12c10 5 21 8 31 10s20 3 30 4c5 0 10 1 15 1h15c5 1 10 1 15 1s10 0 15 -1h30c18 -1 36 -2 53 -3c1 1 1 2 2 3c11 21 22 42 34 63c6 10 13 21 19 31s13 20 20 30s14 20 22 30c4 5 8 10 15 14
c3 2 6 5 11 6c3 1 5 1 9 1c3 0 7 -1 10 -2c4 -3 7 -8 7 -13c0 -2 -1 -5 -2 -7c-3 -4 -7 -7 -13 -7h-2c-1 0 -3 -1 -4 -2c-5 -3 -9 -7 -13 -11c-8 -8 -16 -17 -23 -26c-15 -19 -28 -39 -40 -60c-10 -17 -19 -34 -29 -51c34 -2 67 -4 101 -5h30c9 0 19 0 29 1c10 0 19 1 28 3
c5 0 9 1 13 3h1c2 6 7 10 13 10c8 0 14 -7 14 -14v-4c0 -1 -1 -2 -1 -3c-1 -1 -1 -2 -2 -3c0 -1 -1 -2 -2 -3c-2 -2 -5 -4 -7 -5c-4 -2 -7 -2 -10 -3c-6 -1 -12 -1 -17 -1zM623 601l-1 -1c1 0 1 0 1 1zM26 113c-9 0 -16 6 -16 15c0 8 7 15 16 15c8 0 15 -7 15 -15
c0 -9 -7 -15 -15 -15z" />
    <glyph glyph-name="mt" unicode="mt" horiz-adv-x="703" 
d="M452 93c-2 -11 -3 -23 -4 -35c0 -11 0 -23 1 -34s2 -23 6 -33s9 -20 17 -27s18 -10 29 -10s22 3 33 8c10 4 20 10 30 17c19 13 36 30 52 47c15 18 29 37 41 57c1 3 4 4 6 4c1 0 3 0 4 -1c2 -1 3 -3 3 -6c0 -1 0 -3 -1 -4v-1c-15 -19 -30 -37 -46 -55
c-17 -17 -34 -34 -54 -48c-10 -7 -20 -14 -31 -19c-6 -2 -12 -5 -18 -6c-6 -2 -12 -3 -18 -4c-7 0 -13 1 -20 3c-6 1 -12 5 -18 9c-10 8 -17 19 -22 31s-8 24 -10 36c-1 12 -2 25 -2 37c0 24 2 48 6 72c7 48 19 95 33 140c7 23 15 46 23 68c4 12 9 23 13 35l-7 -13
c-36 -68 -73 -137 -112 -204c-20 -34 -40 -67 -64 -98c-11 -16 -24 -31 -38 -45c-7 -7 -15 -13 -25 -18c-3 -1 -5 -2 -8 -3c-3 0 -5 -1 -8 -2c-3 0 -6 0 -10 1c-3 0 -7 1 -10 3c-6 4 -10 10 -13 16c-2 5 -4 11 -5 16c-1 11 -1 21 -1 30c1 10 1 20 1 28c0 4 -1 7 -2 9h-1v1
c-1 0 -2 0 -2 1h-5c-4 -1 -8 -3 -11 -6c-4 -2 -7 -5 -11 -9c-6 -7 -12 -14 -18 -22c-5 -8 -10 -16 -15 -25c-5 -8 -9 -17 -14 -25l-13 -26c-2 -5 -5 -9 -7 -13c-1 -3 -2 -5 -4 -7c-1 -1 -1 -2 -2 -3c-1 -2 -2 -3 -4 -4c-1 -1 -1 -1 -2 -1c-1 -1 -2 -1 -4 -1s-4 1 -5 2
s-2 2 -2 3c-1 2 -1 3 -1 4s0 2 -1 2c0 4 1 6 1 9c1 5 1 10 2 15c2 10 4 19 6 29c3 19 7 37 9 56c2 9 3 18 3 27c1 6 1 13 1 19v7c-1 8 -4 15 -11 18c-2 1 -4 2 -6 2h-6c-4 -1 -8 -2 -12 -4c-8 -4 -16 -10 -23 -16c-7 -7 -13 -14 -19 -21c-25 -30 -44 -64 -63 -98
c-9 -17 -18 -34 -28 -51c-2 -4 -5 -9 -8 -13c0 -1 -1 -2 -2 -3s-2 -3 -4 -4c0 0 -1 -1 -2 -1c0 -1 -1 -1 -3 -1h-3c-1 1 -2 1 -2 1c-2 1 -2 2 -3 3c-1 2 -1 3 -1 4c-1 2 -1 3 -1 3c0 4 1 6 1 9c1 3 1 5 2 8c1 5 2 10 4 14c5 19 12 38 19 56s15 36 22 55c2 5 8 8 13 8
c2 0 4 0 6 -1c5 -2 8 -7 8 -12c0 -2 0 -4 -1 -6v-2c-18 -34 -36 -68 -51 -103c-1 -2 -1 -3 -2 -5c10 15 19 31 28 46c10 17 20 34 30 50c11 16 22 32 35 48c6 7 12 15 19 22c8 7 15 13 24 18c5 3 10 5 15 6h9c3 0 6 0 8 -1c6 -1 12 -4 16 -8c5 -5 8 -10 10 -15
c2 -6 4 -11 5 -17c1 -5 1 -10 1 -15c0 -11 -1 -21 -3 -31c-3 -20 -8 -39 -14 -57l-9 -28c0 -1 -1 -1 -1 -2c1 2 3 3 4 5c5 8 10 17 15 25c10 17 20 33 31 50c5 8 11 16 17 24l11 11c4 3 8 6 14 9c2 1 6 1 9 1h5l1 -1h2c1 -1 2 -1 3 -2c3 -2 5 -5 7 -8s3 -5 4 -8
c3 -11 4 -21 5 -31l2 -28c1 -8 2 -16 5 -20c1 -2 4 -4 8 -5h6c2 0 4 0 6 1c8 3 16 8 23 15c14 12 26 27 38 43c23 31 43 64 63 97s39 67 58 101c18 34 37 68 55 103l41 77c13 32 27 64 43 95c8 18 17 35 26 53c-17 0 -33 1 -50 1h-29c-10 -1 -20 -1 -30 -2
c-5 -1 -9 -1 -14 -2c-5 0 -10 -1 -15 -2c-9 -1 -19 -3 -28 -6c-8 -3 -17 -6 -24 -11c-3 -2 -5 -5 -7 -7c-1 -3 -1 -5 -1 -8v-2c0 -6 -5 -12 -11 -12h-2c-6 0 -12 5 -13 11v3l1 1c0 7 3 15 8 20c4 5 9 9 14 12c11 5 21 8 31 10c11 2 21 3 31 4c5 0 10 1 15 1h15
c5 1 10 1 15 1s10 0 14 -1h30l54 -3c1 1 1 2 2 3c11 21 22 42 34 63c6 10 12 21 19 31c6 10 12 20 19 30s14 20 22 30c5 5 9 10 15 14c3 2 7 5 12 6c2 1 5 1 8 1s7 -1 10 -2c5 -3 7 -7 7 -12c0 -3 -1 -6 -2 -8s-4 -4 -6 -6h-1c-8 -3 -15 -9 -22 -15c-7 -7 -13 -14 -19 -21
c-12 -15 -23 -31 -34 -47c-15 -22 -29 -45 -43 -68c34 -2 69 -4 103 -5h29c10 0 20 0 29 1c10 0 20 1 29 3c4 0 9 1 13 3c2 6 7 10 14 10s14 -7 14 -14c0 -2 0 -3 -1 -4c0 -1 0 -2 -1 -3c0 -1 -1 -2 -1 -3c-1 -1 -2 -2 -2 -3c-3 -2 -5 -4 -7 -5c-4 -2 -8 -2 -11 -3
c-6 -1 -11 -1 -16 -1c-11 0 -21 1 -31 2c-10 0 -20 1 -30 2c-9 1 -19 2 -29 3c-36 4 -71 7 -106 9c-5 -8 -9 -15 -14 -23c-6 -11 -12 -21 -18 -32c0 -1 -1 -2 -1 -4c-20 -43 -38 -87 -54 -131c-8 -22 -16 -44 -24 -67c-7 -22 -15 -45 -21 -67c-7 -23 -13 -46 -19 -68
c-3 -12 -6 -23 -8 -35c-3 -11 -5 -23 -7 -34c-2 -12 -4 -23 -5 -35zM832 600c0 0 1 0 1 1z" />
    <glyph glyph-name="nt" unicode="nt" horiz-adv-x="573" 
d="M711 574c-6 -1 -11 -1 -16 -1c-11 0 -21 1 -31 2c-10 0 -20 1 -30 2c-9 1 -19 2 -29 3c-35 4 -71 7 -106 9c-13 -23 -25 -46 -37 -69c-1 -2 -2 -3 -3 -5c-17 -38 -32 -77 -47 -116c-8 -22 -16 -44 -24 -67c-7 -22 -15 -45 -21 -67c-7 -23 -13 -46 -19 -68
c-3 -12 -6 -23 -8 -35c-3 -11 -5 -23 -7 -34c-2 -12 -4 -23 -5 -35c-2 -11 -3 -23 -4 -35c0 -11 0 -23 1 -34s2 -23 6 -33s9 -20 17 -27s18 -10 29 -10s22 3 33 8c10 4 21 10 30 17c19 13 36 30 52 47c15 18 29 37 41 57c1 3 4 4 6 4c1 0 3 0 4 -1c2 -1 3 -3 3 -6
c0 -1 0 -3 -1 -4v-1c-15 -19 -30 -37 -46 -55c-17 -17 -34 -34 -54 -48c-10 -7 -20 -14 -31 -19c-6 -2 -12 -5 -18 -6c-6 -2 -12 -3 -18 -4c-7 0 -13 1 -20 3c-6 1 -12 5 -18 9c-10 8 -17 19 -22 31s-8 24 -10 36c-1 12 -2 25 -2 37c0 24 2 48 6 72c7 48 19 95 33 140
c7 22 14 44 22 66c-12 -23 -23 -46 -35 -69l-45 -84c-15 -28 -31 -55 -47 -82c-9 -13 -17 -27 -27 -40c-9 -13 -18 -25 -29 -37c-5 -6 -11 -12 -17 -17c-6 -6 -13 -11 -21 -14c-4 -2 -8 -3 -13 -4h-7c-2 0 -4 1 -7 1c-4 1 -9 4 -13 7c-4 4 -7 8 -9 13c-2 4 -3 9 -4 13
c-1 5 -1 9 -1 14v7c0 6 0 12 1 18c3 16 6 31 9 45c1 4 2 8 2 11c1 4 1 7 1 10c0 7 -1 13 -4 17c-1 1 -2 1 -3 2s-3 2 -4 2c-2 1 -4 1 -6 1h-3c-7 0 -13 -4 -19 -8c-6 -5 -11 -10 -17 -16c-5 -6 -10 -12 -14 -18c-9 -13 -17 -26 -25 -40c-16 -27 -30 -55 -46 -83
c-4 -7 -8 -14 -13 -20c-2 -4 -4 -7 -7 -10c-2 -2 -4 -4 -6 -5c-1 -1 -2 -2 -4 -2c-1 -1 -3 -1 -5 -1h-3c-1 1 -2 1 -3 1c-2 1 -3 3 -4 5c-2 3 -3 6 -3 8v4c0 4 0 7 1 10c1 9 3 16 6 24c5 16 11 30 18 45c6 15 13 29 20 44c3 5 8 7 13 7c2 0 4 0 6 -1c5 -3 8 -8 8 -13
c0 -2 0 -4 -1 -6c-1 -1 -1 -1 -1 -2c-9 -13 -17 -26 -25 -39c-8 -14 -15 -27 -21 -41c-4 -7 -7 -14 -9 -21c-1 -4 -1 -7 -1 -10v-3s1 1 2 1l3 3c3 2 5 5 7 8c5 6 9 13 13 19c8 14 16 27 24 41s16 27 24 41s16 27 25 40c10 13 19 26 32 37c6 5 13 10 23 13c2 1 4 1 7 1
c2 0 5 0 7 -1c2 0 5 -1 7 -2c3 -1 5 -2 7 -3c4 -4 8 -8 10 -13c2 -4 4 -9 5 -13c1 -9 1 -18 1 -26c0 -17 -3 -33 -6 -48c-1 -8 -3 -15 -4 -22c-1 -5 -2 -10 -2 -15v-10c1 -1 1 -2 2 -3c1 -3 3 -5 6 -6c1 -1 1 -1 2 -1l1 -1h6c4 0 7 1 10 3c7 2 13 7 19 12s11 10 16 16
c11 11 20 24 30 36c9 13 17 26 26 39c33 54 63 109 92 165c23 43 45 87 67 130c0 2 1 4 2 5c18 44 37 88 58 131c8 18 17 35 26 53c-17 0 -33 1 -50 1h-29c-10 -1 -20 -1 -30 -2c-5 -1 -9 -1 -14 -2c-5 0 -10 -1 -15 -2c-9 -1 -19 -3 -27 -6c-9 -3 -18 -6 -24 -11
c-4 -2 -6 -5 -8 -7c-1 -3 -1 -5 -1 -8v-2c0 -6 -5 -12 -11 -12h-2c-6 0 -12 5 -12 11c-1 1 -1 2 -1 3l1 1c0 7 3 15 8 20c4 5 9 9 14 12c11 5 21 8 31 10c11 2 21 3 31 4c5 0 10 1 15 1h15c5 1 10 1 15 1s10 0 15 -1h29l54 -3c1 1 1 2 2 3c11 21 22 42 34 63
c6 10 12 21 19 31c6 10 12 20 19 30s14 20 22 30c5 5 9 10 15 14c3 2 7 5 12 6c2 1 5 1 8 1c4 0 7 -1 10 -2c5 -3 7 -7 7 -12c0 -3 -1 -6 -2 -8c-2 -4 -6 -6 -10 -7c-6 -2 -11 -7 -17 -11c-5 -5 -10 -11 -15 -16c-11 -12 -20 -25 -29 -37c-18 -26 -34 -53 -50 -80l-3 -6
c34 -2 68 -4 102 -5h29c10 0 20 0 29 1c10 0 20 1 29 3c5 0 9 1 13 3c2 6 7 10 14 10s14 -7 14 -14c0 -2 0 -3 -1 -4c0 -1 0 -2 -1 -3c0 -1 -1 -2 -1 -3c-1 -1 -1 -2 -2 -3c-3 -2 -5 -4 -7 -5c-4 -2 -8 -2 -11 -3zM708 600c0 0 1 0 1 1z" />
    <glyph glyph-name="ot" unicode="ot" horiz-adv-x="510" 
d="M666 573c-11 0 -21 1 -31 2c-10 0 -20 1 -30 2c-9 1 -19 2 -29 3c-35 4 -70 7 -105 9c-17 -31 -33 -61 -49 -92c-14 -33 -27 -65 -39 -98c-8 -22 -16 -44 -24 -67c-7 -22 -15 -45 -21 -67c-7 -23 -13 -46 -19 -68c-3 -12 -6 -23 -8 -35c-3 -11 -5 -23 -7 -34
c-2 -12 -4 -23 -5 -35c-2 -11 -3 -23 -4 -35c0 -11 0 -23 1 -34s3 -23 6 -33c4 -10 9 -20 17 -27s18 -10 29 -10s22 3 33 8c10 4 21 10 30 17c19 13 36 30 52 47c15 18 29 37 41 57c1 3 4 4 6 4c1 0 3 0 4 -1c2 -1 3 -3 3 -6c0 -1 0 -3 -1 -4v-1c-15 -19 -30 -37 -46 -55
c-17 -17 -34 -34 -54 -48c-10 -7 -20 -14 -31 -19c-6 -2 -12 -5 -18 -6c-6 -2 -12 -3 -18 -4c-7 0 -13 1 -20 3c-6 1 -12 5 -18 9c-10 8 -17 19 -22 31s-8 24 -10 36c-1 12 -2 25 -2 37c0 24 2 48 6 72c7 48 19 95 33 140c6 18 11 35 17 53c-4 -9 -8 -18 -13 -26
c-28 -53 -56 -105 -88 -155c-16 -24 -34 -49 -53 -71c-10 -12 -20 -23 -32 -32c-11 -10 -24 -19 -38 -25c-8 -2 -15 -5 -23 -5h-14l-7 -7c-4 -2 -8 -5 -12 -7s-9 -3 -13 -4s-9 -1 -14 -1s-10 1 -15 3s-10 5 -13 9c-4 3 -8 8 -10 12c-4 9 -6 19 -6 28c0 18 5 34 13 49
c3 5 7 7 12 7c2 0 5 -1 7 -2s4 -3 6 -5c0 7 1 14 2 20c2 8 4 15 8 22c3 7 7 14 14 20c3 3 6 5 10 7s8 3 13 3c4 0 8 0 13 -1c4 -2 8 -4 11 -7c7 -6 11 -14 14 -21c2 -9 3 -19 3 -28c0 -6 0 -13 -1 -19c-3 -16 -7 -31 -13 -45c-4 -9 -8 -17 -14 -25c2 0 3 0 5 1
c7 0 14 2 20 4c14 6 26 14 37 23c11 10 21 20 30 31c20 22 36 46 52 71c32 50 61 102 88 154c14 26 27 53 40 79l12 24l1 1c18 44 37 88 58 131c8 18 17 35 26 53c-17 0 -33 1 -50 1h-29c-10 -1 -20 -1 -30 -2c-4 -1 -9 -1 -14 -2c-5 0 -10 -1 -15 -2c-9 -1 -18 -3 -27 -6
s-18 -6 -24 -11c-4 -2 -6 -5 -7 -7c-2 -3 -2 -5 -2 -8v-2c0 -6 -5 -12 -11 -12h-2c-6 0 -12 5 -12 11c0 1 -1 1 -1 2l1 1v1c0 7 3 15 8 20c4 5 9 9 14 12c11 5 21 8 31 10c11 2 21 3 31 4c5 0 10 1 15 1h15c5 1 10 1 15 1s10 0 15 -1h29l54 -3c1 1 1 2 2 3
c11 21 22 42 34 63c6 10 12 21 19 31c6 10 13 20 19 30c7 10 14 20 22 30c5 5 9 10 15 14c3 2 7 5 12 6c2 1 5 1 8 1c4 0 7 -1 10 -2c5 -3 7 -7 7 -12c0 -3 -1 -6 -2 -8c-2 -4 -6 -6 -10 -7c-11 -7 -20 -16 -30 -27c-9 -10 -18 -22 -27 -34c-17 -24 -32 -49 -47 -74l-9 -15
c34 -2 67 -4 101 -5h29c10 0 20 0 29 1c10 0 20 1 29 3c5 0 9 1 13 3c2 6 7 10 14 10c8 0 14 -7 14 -14c0 -2 0 -3 -1 -4c0 -1 0 -2 -1 -3c0 -1 -1 -2 -1 -3c-1 -1 -1 -2 -2 -3c-3 -2 -5 -4 -7 -5c-4 -2 -7 -2 -11 -3c-6 -1 -11 -1 -16 -1zM679 600c0 0 1 0 1 1zM29 89v-7
c0 -12 2 -23 7 -34c4 -10 11 -18 20 -23c9 6 16 16 22 26c7 12 12 25 15 39c1 8 2 15 2 23c0 6 -1 12 -2 18c-2 7 -5 12 -9 16c-2 2 -5 4 -8 5c-2 1 -6 1 -9 1c-6 0 -12 -3 -16 -7c-5 -4 -9 -10 -12 -16c-7 -12 -10 -27 -10 -41zM31 17h5c3 0 5 1 8 2c1 0 2 0 3 1
c-2 1 -4 3 -5 5c-6 5 -11 12 -14 19c-5 11 -8 22 -8 34c-6 -12 -10 -24 -10 -35c0 -6 1 -11 3 -16c2 -4 4 -7 8 -9c3 -1 6 -1 10 -1z" />
    <glyph glyph-name="st" unicode="st" horiz-adv-x="440" 
d="M522 573c-10 0 -20 1 -30 2c-10 0 -20 1 -30 2l-30 3c-37 4 -74 7 -111 9c-10 -19 -19 -39 -28 -59c-19 -43 -37 -87 -54 -131c-8 -22 -16 -44 -23 -67c-8 -22 -15 -45 -22 -67c-7 -23 -13 -46 -19 -68c-2 -12 -5 -23 -8 -35c-2 -11 -4 -23 -7 -34c-2 -12 -4 -23 -5 -35
c-2 -11 -3 -23 -3 -35c0 -5 -1 -11 -1 -17s1 -11 1 -17c1 -11 3 -23 6 -33c4 -10 10 -20 17 -27c8 -7 19 -10 30 -10s22 3 32 8c11 4 21 10 30 17c20 13 37 30 52 47c16 18 30 37 42 57c1 3 3 4 6 4c1 0 2 0 3 -1c3 -1 4 -4 4 -6c0 -1 0 -3 -1 -4c0 0 -1 0 -1 -1
c-14 -19 -30 -37 -46 -55c-16 -17 -34 -34 -54 -48c-9 -7 -20 -14 -31 -19c-5 -2 -11 -5 -17 -6c-6 -2 -13 -3 -19 -4c-6 0 -13 1 -19 3c-7 1 -13 5 -18 9c-11 8 -18 19 -23 31s-7 24 -9 36s-3 25 -3 37c0 24 3 48 6 72c7 48 20 95 34 140c7 23 14 46 22 68
c9 23 17 45 26 67c13 31 26 62 40 93l-53 -86c-37 -60 -74 -120 -113 -180c-38 -60 -77 -118 -118 -176c-3 -5 -6 -9 -9 -13c6 -10 12 -19 18 -29c9 -15 18 -31 25 -48c4 -9 7 -17 10 -26c2 -9 4 -19 5 -28v-7c0 -17 -3 -33 -9 -49c-7 -17 -20 -33 -35 -44
c-14 -11 -32 -18 -50 -22c-9 -2 -18 -2 -27 -3c-9 0 -19 1 -27 4c-9 3 -18 8 -24 16c-7 7 -11 16 -12 25c-1 5 -1 10 -1 14c0 5 0 10 1 14c1 9 4 18 7 27c6 17 14 33 24 48c5 7 10 15 16 22c2 3 5 7 8 10l8 11c14 17 28 34 41 51c-4 6 -7 11 -10 17c-5 8 -9 16 -13 25
s-6 19 -7 30v7c0 8 1 17 4 25c4 10 10 20 20 27c4 4 10 7 16 9c4 1 7 2 11 2c3 0 6 -1 9 -1c7 -2 14 -6 19 -11s8 -11 9 -17c1 -2 1 -4 1 -5c0 -6 -4 -11 -10 -13c-1 0 -2 -1 -4 -1c-6 0 -12 4 -14 10v1c0 2 -2 4 -3 5c-1 2 -2 2 -4 3c-2 0 -4 0 -6 -1c-2 0 -5 -2 -7 -3
c-5 -4 -8 -9 -11 -15c-2 -6 -3 -13 -3 -20c1 -15 8 -30 15 -44c2 -3 3 -5 4 -7c3 3 5 6 8 9c42 57 81 116 120 174c39 60 76 119 113 180l87 144l15 30c-16 0 -33 1 -50 1h-29c-10 -1 -20 -1 -29 -2c-5 -1 -10 -1 -15 -2c-5 0 -9 -1 -14 -2c-10 -1 -19 -3 -28 -6
s-18 -6 -24 -11c-3 -2 -6 -5 -7 -7s-1 -4 -1 -6v-2c0 -7 -5 -14 -12 -14h-2c-6 0 -11 5 -12 11v4c1 7 4 15 8 20s10 9 15 12c10 5 21 8 31 10s20 3 30 4c5 0 10 1 15 1h15c5 1 10 1 15 1s10 0 15 -1h30c18 -1 36 -2 53 -3c1 1 1 2 2 3c11 21 22 42 34 63c6 10 13 21 19 31
s13 20 20 30s14 20 22 30c4 5 8 10 15 14c3 2 6 5 11 6c3 1 5 1 9 1c3 0 7 -1 10 -2c4 -3 7 -8 7 -13c0 -2 -1 -5 -2 -7c-3 -5 -7 -7 -12 -7c-3 0 -6 1 -8 2h2v1h-2c-3 -3 -6 -5 -9 -8c-6 -6 -12 -13 -17 -19c-11 -14 -22 -28 -32 -42c-15 -21 -29 -43 -43 -64
c-3 -7 -6 -13 -10 -20c36 -2 72 -4 108 -5h30c9 0 19 0 29 1c10 0 19 1 28 3c5 0 9 1 13 3h1c2 6 7 10 13 10c8 0 14 -7 14 -14v-4c0 -1 -1 -2 -1 -3c-1 -1 -1 -2 -2 -3c0 -1 -1 -2 -2 -3c-2 -2 -5 -4 -7 -5c-4 -2 -7 -2 -10 -3c-6 -1 -12 -1 -17 -1zM536 601l-1 -1
c1 0 1 0 1 1zM-35 2c-4 6 -9 13 -13 19c-13 -16 -25 -33 -38 -49l-8 -11c-3 -3 -6 -6 -8 -10c-6 -7 -11 -14 -15 -21c-10 -15 -19 -30 -25 -46c-3 -8 -6 -16 -7 -24c-1 -5 -2 -10 -2 -15c0 -3 1 -7 1 -10c2 -8 5 -16 10 -22c6 -6 13 -10 20 -13c8 -2 16 -3 25 -3
c8 0 17 2 25 3c17 4 33 12 45 22c13 11 23 25 29 40c3 10 5 20 5 31c0 6 -1 12 -2 18c-1 8 -3 16 -6 24c-3 7 -6 15 -10 23c-7 15 -17 29 -26 44z" />
    <glyph glyph-name="ut" unicode="ut" horiz-adv-x="591" 
d="M756 609c8 0 15 -7 15 -14c-1 -2 -1 -3 -1 -4s-1 -2 -1 -3s-1 -2 -2 -3c0 -1 -1 -2 -1 -3c-3 -2 -5 -4 -7 -5c-5 -2 -8 -2 -11 -3c-6 -1 -11 -1 -17 -1c-10 0 -20 1 -30 2c-10 0 -20 1 -30 2s-20 2 -29 3c-36 4 -71 7 -106 9c-9 -15 -17 -30 -25 -44
c-4 -6 -7 -12 -10 -18c-19 -42 -36 -85 -52 -128c-9 -22 -17 -44 -24 -67c-8 -22 -15 -45 -22 -67c-6 -23 -13 -46 -18 -68c-3 -12 -6 -23 -8 -35c-3 -11 -5 -23 -7 -34c-2 -12 -4 -23 -6 -35c-1 -11 -2 -23 -3 -35c0 -5 -1 -11 -1 -17s1 -11 1 -17c1 -11 3 -23 7 -33
c3 -10 9 -20 17 -27s18 -10 29 -10s22 3 33 8c10 4 20 10 30 17c19 13 36 30 52 47c15 18 29 37 41 57c1 3 4 4 6 4c1 0 2 0 3 -1c3 -1 4 -4 4 -6c0 -1 0 -3 -1 -4v-1c-15 -19 -30 -37 -47 -55c-16 -17 -34 -34 -53 -48c-10 -7 -20 -14 -32 -19c-5 -2 -11 -5 -17 -6
c-6 -2 -12 -3 -19 -4c-6 0 -13 1 -19 3c-7 1 -13 5 -18 9c-11 8 -18 19 -23 31c-4 12 -7 24 -9 36s-2 25 -2 37v10c0 20 2 41 5 62c8 48 20 95 34 140c7 23 15 46 23 68c3 8 6 16 8 24c-7 -15 -15 -29 -23 -44c-20 -37 -40 -75 -61 -112c-10 -18 -21 -37 -32 -55
s-23 -36 -35 -54c-12 -17 -25 -35 -40 -51c-7 -8 -15 -15 -23 -22c-9 -7 -18 -13 -30 -17c-4 -1 -8 -2 -12 -2h-5c-7 0 -13 2 -19 6c-5 4 -9 11 -11 16c-2 6 -2 12 -3 18c0 7 0 14 1 21c-1 -1 -2 -3 -2 -4c-7 -14 -15 -28 -23 -42c-8 -13 -18 -26 -28 -39
c-6 -6 -12 -12 -18 -17s-13 -10 -21 -14s-16 -6 -26 -7h-4c-8 0 -16 2 -24 7c-4 3 -8 7 -11 11s-5 9 -6 14c-2 4 -3 9 -3 14v13c0 18 5 34 11 50c3 8 6 15 10 23l12 21c3 5 7 8 12 8c3 0 5 -1 7 -2c5 -3 7 -7 7 -12c0 -3 -1 -6 -2 -8c-4 -7 -8 -13 -11 -20
c-4 -7 -7 -13 -10 -20c-6 -14 -11 -28 -12 -42c0 -3 -1 -6 -1 -8c0 -4 1 -7 2 -11c1 -6 4 -11 7 -15c4 -3 10 -5 16 -6c7 0 14 0 21 2c7 3 13 6 19 11s12 10 17 15c6 6 11 11 15 18c5 6 10 12 14 19c14 22 26 46 36 70v1c1 5 2 10 4 16s7 10 12 10c2 0 3 -1 4 -1
c5 -2 9 -8 9 -14v-2c-1 -1 -1 -1 -1 -2c-2 -4 -5 -9 -6 -14c-2 -5 -4 -9 -5 -14c-3 -10 -5 -20 -6 -30c0 -9 1 -19 7 -24c2 -3 6 -4 11 -5c4 0 9 0 13 2c9 2 18 8 26 14s16 14 23 21c14 16 27 32 39 49c25 35 47 71 68 108s42 74 62 112c19 36 38 73 57 110
c15 35 31 70 47 104c9 18 17 35 26 53c-16 0 -33 1 -49 1h-30c-10 -1 -19 -1 -29 -2c-5 -1 -10 -1 -15 -2c-4 0 -9 -1 -14 -2c-9 -1 -19 -3 -28 -6s-17 -6 -24 -11c-3 -2 -6 -5 -7 -7s-1 -4 -1 -6v-4c0 -6 -5 -12 -11 -12h-2c-6 0 -12 5 -13 11v4c1 7 4 15 8 20
c5 5 10 9 15 12c11 5 21 8 31 10s20 3 30 4c5 0 10 1 15 1h15c5 1 10 1 15 1s10 0 15 -1h30l54 -3c0 1 1 2 1 3c11 21 23 42 35 63c6 10 12 21 18 31c7 10 13 20 20 30s14 20 22 30c4 5 9 10 15 14c3 2 6 5 11 6c3 1 6 1 9 1s7 -1 10 -2c5 -3 7 -7 7 -12c0 -3 -1 -6 -2 -8
s-4 -4 -6 -5c0 -1 -1 -1 -1 -1v-1c-9 -5 -17 -12 -24 -19s-14 -15 -21 -23c-13 -16 -25 -34 -37 -51c-12 -19 -24 -38 -35 -57c34 -2 67 -4 101 -5h30c10 0 19 0 29 1c10 0 20 1 29 3c4 0 9 1 12 3h1c2 6 7 10 13 10z" />
    <glyph glyph-name=".notdef" horiz-adv-x="500" 
 />
    <glyph glyph-name="space" unicode=" " horiz-adv-x="387" 
 />
    <glyph glyph-name="space" unicode="&#xa0;" horiz-adv-x="387" 
 />
    <glyph glyph-name="exclam" unicode="!" horiz-adv-x="243" 
d="M193 517c10 27 21 53 30 80c10 27 20 54 29 82c9 27 18 54 26 82c2 7 10 13 18 13c1 0 3 0 5 -1c9 -3 13 -10 13 -19v-4c-1 -1 -1 -2 -2 -3c-14 -25 -26 -51 -38 -77c-13 -26 -25 -52 -36 -78c-12 -27 -23 -53 -34 -80c-11 -26 -21 -53 -32 -79
c-21 -54 -41 -107 -59 -162c-5 -13 -9 -27 -14 -40c-4 -14 -9 -28 -13 -41c-4 -14 -8 -28 -11 -41c-2 -7 -3 -14 -4 -21c-1 -2 -1 -5 -1 -7c0 -1 1 -1 1 -2c1 -2 1 -4 1 -6c0 -6 -3 -12 -9 -15c-1 0 -3 -1 -4 -1h-4c-2 0 -3 0 -5 1c-3 1 -6 3 -7 5c0 1 -1 2 -2 3v2
c-1 0 -1 1 -1 1v2s-1 1 -1 2v3c0 3 1 5 1 7c1 5 2 8 3 12c3 7 5 14 8 21c5 14 10 27 15 41l32 80c21 53 43 106 64 160c10 26 21 53 31 80zM45 22c0 -12 -10 -22 -22 -22c-13 0 -23 10 -23 22s10 22 23 22c12 0 22 -10 22 -22z" />
    <glyph glyph-name="quotedbl" unicode="&#x22;" horiz-adv-x="92" 
d="M68 715c0 -5 -5 -10 -10 -10c-6 0 -11 4 -11 10c0 3 1 6 3 8c3 3 6 8 8 12c3 4 5 9 6 13c2 5 3 9 5 14c1 5 2 10 2 15c0 6 5 10 11 10c5 -1 9 -4 9 -9v-2c0 -2 0 -5 -2 -6c-3 -4 -6 -8 -8 -13c-2 -4 -4 -8 -6 -13c-2 -4 -4 -9 -5 -14c-1 -4 -2 -9 -2 -15zM21 715
c0 -5 -5 -10 -11 -10s-10 4 -10 10c0 3 1 6 2 8c4 3 7 8 9 12s4 9 6 13c1 5 3 9 4 14s2 10 2 15c1 6 6 10 11 10c6 -1 10 -5 10 -11c0 -2 -1 -5 -2 -6c-4 -4 -6 -8 -8 -13c-3 -4 -5 -8 -7 -13c-2 -4 -3 -9 -4 -14c-1 -4 -2 -9 -2 -15z" />
    <glyph glyph-name="numbersign" unicode="#" horiz-adv-x="529" 
d="M483 428c-1 2 -2 5 -2 8c0 2 1 3 1 5l-12 3c-17 3 -35 6 -53 9c-6 1 -11 1 -17 2c-10 -27 -19 -53 -28 -80s-19 -55 -28 -82h21c7 0 14 -1 22 -2c4 0 8 -1 12 -2c2 0 5 -1 7 -2s5 -3 7 -6l6 -6c2 -2 3 -5 3 -8s-1 -7 -4 -9c-2 -2 -5 -3 -8 -3s-7 1 -9 4c-2 2 -3 5 -3 7v3
s-2 2 -4 3c-3 1 -6 2 -10 3c-6 1 -13 2 -20 3s-14 1 -22 2h-2c-10 -30 -19 -60 -28 -90c-10 -31 -19 -62 -28 -94c-4 -15 -8 -31 -11 -47c-2 -7 -4 -15 -5 -23c-1 -4 -2 -8 -2 -11v-4c1 -2 1 -4 1 -6c0 -7 -5 -13 -12 -13c-2 0 -4 1 -5 1c-2 1 -3 2 -4 3c-1 0 -1 1 -2 1
c0 1 -1 2 -1 2s0 1 -1 2c0 1 0 2 -1 3v7c0 3 1 5 1 7c1 5 2 9 3 13l6 24c5 16 10 31 15 47l30 93l29 86h-4c-15 0 -29 1 -44 1h-43c-29 0 -58 0 -87 -1c-1 0 -3 -1 -4 -1l-1 -2l-33 -95l-17 -47c-5 -16 -11 -31 -17 -47c-5 -16 -11 -32 -18 -47c-3 -8 -6 -16 -10 -24
c-2 -4 -4 -8 -7 -13c0 0 -1 -1 -1 -2c-1 0 -1 -1 -1 -2c-2 -1 -3 -2 -5 -4c0 0 -1 -1 -2 -1c-1 -1 -2 -1 -3 -2h-1s-1 0 -1 -1h-3c-1 0 -4 0 -6 1h-2c-1 1 -1 1 -2 1c0 1 -1 1 -2 2c-1 0 -1 0 -1 1c-1 0 -1 0 -1 1c-1 0 -1 1 -1 1l-2 2v1c-1 1 -1 2 -1 2c-1 2 -1 4 -1 6
c0 6 4 12 10 14c2 1 4 1 5 1c1 2 3 3 4 5c4 7 8 14 11 21c8 15 15 30 22 45s13 30 19 45c7 16 13 31 19 47l18 46l16 45c-22 -2 -45 -3 -67 -6h-2c-7 0 -13 6 -14 13v2c0 6 5 12 12 13h4c24 -3 49 -5 73 -6c10 27 20 54 29 80c11 32 22 63 32 95v1c-15 0 -30 -1 -45 -1
c-9 -1 -18 -1 -27 -2c-4 -1 -8 -1 -13 -2c-4 0 -9 -1 -13 -2h-4c-7 0 -14 5 -16 13v4c0 7 5 14 13 16c2 1 4 1 6 1h1c9 -2 18 -3 27 -5c9 -1 18 -2 27 -4c16 -2 32 -4 49 -5c9 27 18 54 26 81l30 96c5 15 9 32 13 48s8 32 11 49c1 8 8 14 16 14h3c9 -1 14 -8 14 -16v-3
c0 -2 -1 -4 -1 -5c-8 -16 -15 -31 -21 -46c-6 -16 -12 -31 -18 -47c-11 -31 -22 -63 -33 -94c-10 -26 -18 -52 -27 -78c15 -2 30 -3 45 -4l54 -4c18 -2 35 -3 53 -4c8 -1 16 -2 24 -2l1 2l30 92l31 93l15 46l14 42l3 6l1 1c2 6 8 9 13 9c3 0 5 -1 7 -2c6 -2 9 -8 9 -14
c0 -2 0 -4 -1 -6c-1 -1 -1 -2 -2 -2c0 -1 -1 -3 -2 -5l-2 -5l-15 -33l-36 -90l-18 -46c-11 -30 -22 -60 -32 -90c4 0 9 0 14 -1c18 -1 36 -3 54 -5c9 -1 18 -1 27 -3c5 -1 9 -1 14 -3c2 0 3 0 4 -1c2 0 3 -1 6 -2l5 -5c0 -1 0 -1 1 -2c0 -1 1 -2 1 -3c0 -3 -1 -7 -2 -9
c0 -1 -1 -2 -1 -2l-3 -3c-1 0 -1 -1 -1 -1c-1 0 -1 0 -2 -1h-2l-13 -7c-2 -1 -5 -2 -8 -2c-6 0 -12 4 -16 10zM255 18c1 0 1 0 2 -1c0 1 -1 1 -2 1zM359 379l26 78l-21 3c-18 1 -35 3 -53 5c-18 1 -36 3 -54 4c-16 1 -32 2 -49 2c0 -1 -1 -2 -1 -4c-11 -31 -22 -63 -33 -94
l-26 -78c28 -1 57 -2 86 -2h95z" />
    <glyph glyph-name="dollar" unicode="$" horiz-adv-x="359" 
d="M338 568l3 12c0 3 1 7 1 11c1 8 1 15 1 23s-1 15 -3 22s-5 14 -9 20s-9 11 -15 14s-12 5 -18 5c0 -1 -1 -3 -2 -4c-7 -17 -13 -33 -20 -50c-6 -16 -13 -33 -19 -49c-12 -33 -25 -66 -36 -100l-18 -50l-16 -45c2 -1 3 -1 5 -1l12 -3c8 -1 16 -4 24 -6c8 -3 16 -7 23 -10
c8 -5 15 -9 22 -15c13 -10 24 -24 32 -40c7 -16 11 -33 11 -50s-3 -34 -8 -50c-10 -32 -29 -61 -54 -84c-24 -23 -54 -40 -87 -47c-8 -2 -16 -3 -24 -3c-9 -1 -17 -1 -25 -1c-12 1 -23 3 -35 6c0 -1 0 -2 -1 -3c-6 -17 -11 -34 -18 -51c-3 -8 -7 -17 -11 -25
c-2 -5 -4 -9 -7 -14c-1 -1 -2 -3 -3 -4l-3 -3s-1 0 -1 -1c-1 0 -2 -1 -3 -2h-2c-1 -1 -1 -1 -2 -1h-6c-2 0 -3 0 -4 1c-1 0 -2 1 -3 1l-4 4c-2 2 -2 3 -3 5s-1 3 -2 4v4c0 6 4 12 11 15h6c1 1 1 2 2 4c4 7 8 14 12 22c8 16 15 32 22 48c1 1 1 1 1 2c-14 6 -27 14 -37 26
c-6 6 -11 14 -14 21c-4 8 -7 16 -8 25c-2 7 -3 15 -3 23c0 9 1 18 3 27c3 17 9 33 17 48c9 15 20 29 35 39c4 3 8 5 13 7c4 2 9 4 14 4c3 1 5 1 8 1s6 0 8 -1c5 0 10 -2 15 -4c6 -2 9 -8 9 -13c0 -2 0 -4 -1 -6c-3 -5 -8 -8 -13 -8c-2 0 -4 0 -6 1c-1 0 -1 1 -2 1
c-2 2 -5 3 -7 4c-3 1 -6 1 -9 1c-5 0 -12 -2 -18 -5s-11 -8 -17 -13c-5 -5 -10 -11 -14 -17c-8 -13 -15 -27 -18 -42c-2 -9 -4 -18 -4 -27c0 -6 1 -12 2 -18c2 -15 8 -29 18 -41c9 -10 21 -18 33 -23c13 28 24 57 35 86l19 50c6 17 12 33 18 50c10 30 20 59 30 89
c-14 4 -28 9 -41 16c-15 8 -29 18 -40 32c-11 13 -18 30 -19 48c0 4 -1 7 -1 11c0 13 3 26 7 39c5 16 12 31 21 45c18 29 40 53 65 74s53 40 84 51c11 4 23 8 35 9l15 39c3 9 7 17 10 25c2 5 4 9 7 13c1 3 3 5 5 8c1 1 2 3 5 4l1 1c1 0 1 1 2 1s2 1 4 1c1 1 2 1 3 1
s2 0 3 -1c2 0 4 -1 6 -2c4 -3 6 -7 6 -12c0 -2 -1 -5 -3 -8s-5 -5 -8 -6c-1 0 -1 -1 -1 -1c-2 -3 -5 -7 -7 -10c-4 -8 -8 -15 -11 -23c-5 -10 -10 -20 -14 -31c6 -1 12 -3 18 -6c8 -4 15 -11 20 -18c6 -7 9 -15 12 -24c3 -8 4 -17 5 -25v-13c0 -12 -1 -25 -3 -37
c-5 -33 -16 -65 -30 -96c-3 -6 -9 -9 -15 -9c-2 0 -4 0 -6 1c-6 3 -9 8 -9 14c0 2 1 5 2 7c0 1 1 2 1 3c18 24 32 53 39 83zM200 357l-12 3c-2 0 -4 1 -6 1c-11 -30 -21 -60 -31 -90c-6 -16 -12 -33 -18 -50l-16 -50c-10 -30 -20 -59 -30 -88c10 -3 21 -4 32 -5h23
c8 1 15 2 23 4c30 8 58 24 80 46c22 21 39 49 48 78c5 15 7 30 7 45c-1 15 -4 30 -10 44c-7 13 -16 25 -28 34c-6 5 -12 9 -19 13c-6 3 -13 6 -21 9c-7 2 -14 5 -22 6zM243 577l17 51l16 47c-8 -1 -17 -4 -25 -7c-29 -11 -57 -28 -80 -48c-24 -21 -46 -45 -62 -72
c-8 -13 -15 -27 -20 -42c-3 -11 -5 -22 -5 -33c0 -4 0 -8 1 -12c1 -14 7 -28 16 -40c10 -11 22 -20 36 -27c12 -6 25 -11 39 -15l33 97z" />
    <glyph glyph-name="percent" unicode="%" horiz-adv-x="526" 
d="M15 56h1c2 1 3 2 4 3c2 1 3 2 5 4c1 1 3 2 4 4c6 6 12 12 18 19c11 14 21 28 32 42c20 29 40 59 59 89c38 60 76 120 114 181c18 30 37 60 57 90c19 30 38 61 58 90c20 30 40 59 61 88c5 8 11 15 16 22c6 7 11 15 17 22l18 21c7 7 13 13 22 20h1c3 2 6 3 8 3
c5 0 10 -3 13 -7c2 -3 3 -6 3 -9c0 -5 -2 -9 -6 -12c-1 -1 -2 -1 -3 -2c-6 -3 -13 -8 -20 -13c-6 -5 -12 -11 -19 -17c-6 -6 -12 -13 -18 -19c-5 -7 -11 -14 -17 -20c-5 -7 -11 -14 -16 -21c-6 -7 -11 -14 -16 -21c-11 -15 -21 -29 -31 -44c-20 -29 -40 -59 -59 -88
c-20 -30 -39 -60 -58 -90c-19 -31 -37 -61 -56 -91l-56 -91c-9 -16 -19 -31 -28 -46l-29 -45c-9 -15 -19 -31 -29 -46c-2 -3 -5 -7 -8 -11c-2 -4 -5 -8 -8 -11c-1 -2 -3 -4 -4 -6c-2 -2 -3 -4 -5 -6l-6 -6c-1 -1 -3 -2 -4 -3l-1 -1h-2c-1 -1 -2 -1 -3 -2c-1 0 -3 -1 -4 -1
c-7 0 -13 4 -15 11c-1 2 -1 4 -1 5c0 7 5 13 11 15zM180 26l-9 3c-2 1 -3 1 -5 2l-4 2c-6 4 -12 8 -15 14c-4 5 -7 12 -9 18c-3 9 -4 17 -4 26c0 4 1 9 1 13c1 6 3 12 4 18c2 7 4 13 7 18c5 12 12 23 22 33c3 3 6 5 10 8c-5 1 -9 5 -10 11v7c2 9 6 16 10 22c5 6 10 11 16 15
c5 4 11 8 18 10c6 3 12 5 19 6c7 0 15 0 21 -2c4 -1 7 -3 10 -4c3 -2 6 -4 8 -6c6 -5 10 -10 13 -16c3 -5 6 -11 7 -17c2 -7 3 -13 4 -19s1 -12 1 -19c0 -12 -1 -24 -4 -36c-4 -25 -14 -48 -28 -68c-8 -10 -17 -20 -27 -27c-11 -7 -23 -11 -36 -12c-4 -1 -7 -1 -10 -1
c-3 1 -6 1 -10 1zM167 43l4 -2c1 -1 2 -1 3 -2c3 -1 6 -2 8 -2c3 -1 6 -1 9 -1c2 -1 5 -1 8 -1c11 1 22 5 32 11c9 6 18 15 25 24s12 20 17 30c5 11 8 23 10 34c3 12 4 24 4 35c0 12 -2 24 -6 35c-3 10 -9 21 -18 27c-6 4 -12 6 -20 6c-3 0 -6 0 -9 -1
c-10 -2 -20 -8 -27 -15c-4 -4 -7 -8 -9 -12c-2 -5 -2 -9 -2 -12v-8c3 1 7 2 11 2h2c5 0 9 -5 10 -10c0 -6 -4 -11 -10 -12h-2c-4 0 -9 -1 -13 -2c-5 -2 -9 -5 -13 -8c-8 -7 -15 -16 -20 -26c-6 -10 -10 -20 -12 -32c-1 -5 -1 -10 -1 -15c0 -6 0 -12 2 -18c1 -5 3 -10 6 -15
c3 -4 7 -8 11 -10zM334 585c-5 -6 -10 -11 -15 -16c-1 -2 -3 -3 -5 -4c2 0 4 -1 5 -1c6 -2 10 -8 10 -14c0 -2 -1 -3 -1 -4c-1 -1 -1 -1 -1 -2c-8 -15 -19 -27 -32 -35c-14 -8 -28 -13 -42 -15c-8 -2 -16 -2 -24 -2c-7 0 -13 0 -20 1s-14 3 -21 6c-4 1 -7 3 -10 6
c-2 1 -4 2 -5 4c-1 0 -1 1 -2 2l-2 2c-9 13 -13 28 -13 42s4 28 9 41c10 26 26 50 47 68c11 9 22 17 35 23c11 5 23 8 36 8h5c15 0 29 -5 41 -12c3 -2 6 -5 9 -7c3 -3 5 -6 7 -9c5 -6 7 -13 9 -21c0 -3 1 -5 1 -8c0 -12 -4 -24 -10 -35c-3 -6 -7 -12 -11 -18zM309 581
c9 8 18 18 24 28c5 10 9 21 9 32v4c-1 5 -3 11 -6 16c-1 3 -3 5 -5 7c-3 2 -5 4 -8 6c-5 4 -10 6 -16 9c-6 2 -13 3 -19 3h-5c-11 0 -22 -3 -32 -7c-12 -5 -23 -13 -33 -21c-10 -9 -19 -19 -27 -30c-7 -11 -14 -22 -18 -35c-2 -6 -4 -12 -5 -19c-1 -4 -1 -8 -1 -13v-6
c0 -12 5 -24 13 -33c1 -1 2 -3 3 -3l3 -3c2 -1 5 -2 7 -3c6 -2 12 -3 18 -4h9c10 0 20 1 29 4c12 3 23 8 32 15c9 8 16 17 20 27c-6 -4 -12 -7 -19 -10c-7 -2 -15 -4 -23 -5c-8 0 -16 1 -24 5c-4 1 -7 5 -7 9c0 2 0 3 1 5c1 4 5 7 9 7c2 0 3 0 5 -1h1c5 -2 10 -4 15 -4
c6 0 12 0 17 2c12 3 23 10 33 18z" />
    <glyph glyph-name="ampersand" unicode="&#x26;" horiz-adv-x="375" 
d="M56 326c15 17 32 33 50 47c16 13 33 24 51 34c-1 22 -2 43 -2 65c0 45 3 90 11 135c5 22 11 44 20 66c9 21 22 41 39 58c9 8 19 15 30 21c11 5 23 9 36 9s26 -4 37 -10c11 -7 20 -16 27 -26c14 -21 20 -46 20 -70v-6c0 -22 -5 -43 -12 -63c-8 -22 -19 -43 -32 -62
c-14 -19 -29 -37 -46 -53c-33 -31 -71 -58 -111 -79c-1 -1 -3 -2 -4 -2c1 -18 2 -35 3 -52c4 -45 9 -90 15 -134c2 -18 4 -36 7 -54c10 4 19 9 29 14c39 21 75 47 108 76c3 2 6 3 10 3s9 -2 12 -5s4 -6 4 -10s-2 -9 -5 -12c-1 0 -2 -1 -2 -1c-38 -25 -77 -49 -119 -68
c-11 -5 -23 -10 -35 -14c3 -21 6 -41 10 -62c3 -22 7 -44 10 -66l5 -34c2 -11 4 -22 5 -33c3 -23 7 -45 8 -68c0 -6 0 -12 -1 -19c0 -3 -1 -6 -2 -10s-2 -8 -6 -12c-1 -2 -4 -5 -7 -6c-3 -2 -7 -3 -10 -3c-7 0 -11 2 -15 4c-7 4 -12 8 -17 12c-4 3 -6 7 -6 12c0 3 2 7 4 10
c3 4 7 6 11 6s8 -2 11 -4l2 -2c3 -4 6 -7 9 -9c1 1 2 4 2 6c1 5 2 10 2 15c1 6 1 11 1 17c0 5 0 11 -1 16c0 11 0 22 -1 33l-3 33l-4 34l-9 66c-3 20 -6 40 -8 60c-7 -2 -13 -4 -19 -6c-22 -6 -45 -10 -69 -10c-12 1 -23 2 -35 6c-11 3 -22 8 -32 16c-9 8 -17 18 -22 29
s-8 23 -8 35v5c0 23 7 44 16 64c9 21 23 40 38 58zM168 471c0 -19 0 -38 1 -57c36 21 71 45 101 74c16 15 30 31 43 48c12 18 23 37 30 57c8 20 12 41 12 62s-5 42 -16 59c-6 8 -13 15 -21 20s-17 8 -27 8c-9 0 -19 -2 -28 -6c-10 -5 -18 -11 -26 -18
c-16 -14 -27 -32 -36 -52s-15 -41 -20 -62c-9 -43 -12 -88 -13 -133zM158 383c-32 -19 -63 -42 -88 -69c-15 -16 -28 -34 -38 -53c-9 -19 -16 -40 -16 -61c0 -11 2 -21 7 -30c4 -9 10 -18 18 -24c8 -7 17 -11 27 -14s21 -4 31 -4h6c20 0 39 5 58 10c7 2 14 5 21 8
c-8 63 -16 127 -22 191c-1 15 -3 31 -4 46z" />
    <glyph glyph-name="quotesingle" unicode="'" horiz-adv-x="44" 
d="M23 777c1 6 6 10 11 10c6 -1 10 -5 10 -11c0 -2 -1 -5 -2 -6c-4 -4 -6 -8 -8 -13c-3 -4 -5 -8 -7 -13c-2 -4 -3 -9 -4 -14c-1 -4 -2 -9 -2 -15c0 -5 -5 -10 -11 -10s-10 4 -10 10c0 3 1 6 2 8c4 3 7 8 9 12s4 9 6 13c1 5 3 9 4 14s2 10 2 15z" />
    <glyph glyph-name="parenleft" unicode="(" horiz-adv-x="374" 
d="M335 783c-8 -5 -16 -12 -23 -19c-15 -16 -28 -33 -40 -51c-25 -37 -45 -76 -65 -116c-9 -20 -19 -41 -27 -61c-9 -20 -18 -41 -26 -62c-16 -41 -31 -83 -45 -126c-28 -84 -52 -170 -70 -258c-9 -43 -16 -88 -17 -132v-16c0 -17 1 -33 3 -49c2 -10 5 -20 9 -29
c2 -4 5 -7 7 -10c3 -2 5 -4 8 -4c8 -1 14 -9 14 -18v-2c-2 -8 -9 -14 -18 -14h-2c-2 0 -3 1 -5 2l-2 1c-8 4 -15 10 -19 16c-4 7 -7 13 -9 19c-4 13 -5 25 -6 37v34c0 12 1 23 2 34c3 23 6 45 9 68l12 66c9 44 20 88 32 131c11 43 24 86 38 129s28 85 44 127
c8 21 16 42 25 63c8 20 17 41 26 62c10 20 19 40 30 61c10 20 21 39 33 59c12 19 25 38 41 56c8 8 16 17 27 24c5 4 11 7 18 9c5 2 10 3 16 3h6c7 0 13 -6 13 -13v-2c-1 -8 -8 -13 -15 -13h-1c-1 0 -3 1 -4 1c-2 0 -5 -1 -7 -2c-4 -1 -8 -3 -12 -5z" />
    <glyph glyph-name="parenright" unicode=")" horiz-adv-x="389" 
d="M383 782c4 -12 6 -24 7 -36c1 -7 1 -14 1 -21c0 -17 -2 -34 -3 -50c-5 -46 -14 -91 -24 -136c-21 -89 -47 -177 -76 -264s-60 -173 -97 -257c-19 -42 -39 -83 -61 -124c-12 -20 -24 -40 -39 -59c-7 -10 -15 -19 -25 -28c-5 -4 -11 -8 -18 -12c-4 -1 -8 -3 -13 -4
c-5 0 -11 0 -16 2l-2 1c-7 2 -11 9 -11 16c0 2 0 4 1 6c2 7 8 11 15 11c2 0 4 0 6 -1c1 0 2 -1 3 -1h4c3 2 7 4 10 7c8 6 15 14 22 22c14 17 26 36 38 55c23 38 44 79 63 120c20 40 38 82 55 124c18 42 34 85 50 128c7 21 15 43 22 64c7 22 14 44 20 65c13 44 25 88 34 132
c5 23 9 45 13 67c3 23 6 45 7 68c1 11 1 22 1 33s-1 22 -2 33c-2 11 -4 21 -8 30c-2 5 -5 9 -7 12c-3 3 -6 5 -9 6c-5 2 -9 8 -9 14c0 2 0 3 1 5c3 5 8 8 13 8c2 0 4 0 6 -1c0 0 1 0 1 -1h1c7 -4 12 -9 17 -15c4 -6 7 -13 9 -19z" />
    <glyph glyph-name="asterisk" unicode="*" horiz-adv-x="296" 
d="M56 685l33 -15c17 -7 35 -14 53 -21c-8 17 -17 34 -25 51c-11 21 -22 42 -34 63c-1 2 -1 3 -1 5c0 4 2 8 5 10c2 1 4 2 7 2c4 0 7 -2 9 -6c0 0 1 -1 1 -2c7 -22 16 -44 25 -66c8 -17 15 -35 23 -52c6 18 13 36 18 54c4 11 7 22 10 34c3 11 6 23 8 34c2 7 8 12 15 12h2
c7 -2 11 -7 11 -13v-4c0 -1 -1 -3 -1 -4c-6 -11 -12 -21 -17 -32c-5 -10 -10 -21 -14 -32c-8 -18 -15 -35 -22 -53c18 8 35 16 52 25c21 10 42 21 62 33c2 1 4 2 6 2c4 0 7 -2 10 -6c1 -2 1 -3 1 -5c0 -4 -2 -8 -6 -10c0 -1 -1 -1 -2 -1c-22 -8 -44 -17 -66 -26
c-17 -7 -35 -14 -52 -22c18 -7 36 -13 54 -19c22 -7 45 -14 68 -20c5 -2 8 -7 8 -12v-2c-2 -5 -6 -9 -11 -9c-1 0 -2 1 -3 1s-1 0 -2 1c-21 10 -43 19 -65 28c-17 7 -35 14 -53 21c8 -17 16 -34 25 -51c6 -11 11 -21 17 -31s12 -20 19 -30c2 -3 3 -6 3 -8
c0 -5 -3 -10 -7 -12c-2 -2 -5 -3 -8 -3c-4 0 -9 3 -11 7c-1 1 -2 2 -2 4c-3 11 -7 23 -11 34l-12 33c-7 18 -15 35 -23 53c-6 -18 -13 -36 -19 -54c-7 -23 -14 -45 -20 -68c-2 -5 -6 -9 -11 -9c-1 0 -2 1 -3 1c-5 1 -9 6 -9 11c0 1 1 2 1 3c0 0 0 1 1 2c10 21 19 43 29 64
c7 18 14 36 21 53c-18 -8 -35 -16 -52 -25c-10 -5 -21 -11 -31 -17s-20 -12 -30 -19c-2 -1 -5 -2 -8 -2c-4 0 -9 2 -12 6c-2 3 -2 6 -2 9c0 4 2 9 6 11c1 1 3 2 4 2c12 3 23 7 34 11c11 3 22 8 33 12c18 7 36 15 53 23c-18 6 -36 13 -54 18c-11 4 -23 7 -34 10
c-12 3 -23 6 -35 8c-7 2 -11 7 -11 13v4c1 6 7 11 13 11h3c2 0 4 -1 5 -2c10 -6 21 -11 31 -16z" />
    <glyph glyph-name="plus" unicode="+" horiz-adv-x="177" 
d="M109 114c-3 -6 -6 -12 -8 -19c-1 -2 -2 -4 -2 -7c8 0 16 0 25 1c11 1 22 3 33 7c1 0 3 1 4 1c7 0 13 -4 15 -11c0 -1 1 -3 1 -4c0 -7 -4 -13 -11 -15c-1 0 -2 -1 -4 -1s-4 1 -6 2c-11 4 -22 6 -33 7c-9 1 -19 2 -28 2c-1 0 -1 -1 -1 -1c-4 -14 -9 -27 -12 -40
c-4 -13 -8 -27 -11 -40c-1 -6 -7 -11 -13 -11h-2c-6 2 -10 8 -10 14v2c1 1 1 2 2 3c7 13 13 25 18 38c6 11 11 23 16 35c-9 0 -17 -1 -25 -2c-11 -1 -22 -3 -33 -6c-2 -1 -4 -1 -5 -1c-7 0 -14 5 -16 11c0 2 -1 3 -1 5c0 7 5 14 12 16c1 0 3 1 4 1c2 0 4 -1 6 -2
c11 -3 22 -6 33 -7c10 -2 20 -3 29 -3c2 3 3 7 4 10c3 6 5 13 7 20c2 6 4 13 6 20c1 7 2 13 2 21c1 6 6 12 12 12h2c8 0 13 -6 13 -14c0 -2 -1 -5 -3 -7c-4 -6 -8 -12 -11 -18c-4 -6 -7 -12 -9 -19z" />
    <glyph glyph-name="comma" unicode="," horiz-adv-x="35" 
d="M16 0l6 6c2 3 3 6 4 8v10c0 3 2 5 4 5s4 -1 4 -3c1 -4 2 -8 2 -13c0 -2 0 -4 -1 -6c0 -2 -1 -4 -2 -6c-1 -4 -4 -8 -6 -11c-2 -2 -3 -4 -5 -5c-1 -1 -1 -2 -2 -2l-3 -3l-2 -1c-1 -1 -3 -1 -4 -1c-3 0 -6 1 -8 4c-1 1 -1 3 -1 4c0 3 1 6 4 8c1 1 2 1 3 1l1 1c1 0 2 1 2 1
c2 1 3 2 4 3z" />
    <glyph glyph-name="hyphenminus" unicode="-" horiz-adv-x="116" 
d="M110 68h-1c-8 1 -17 1 -25 2h-24c-8 0 -16 0 -24 -1c-8 0 -16 -1 -24 -2h-2c-4 0 -7 3 -8 7v2c0 4 3 7 7 8h3c8 -1 16 -2 24 -2c8 -1 16 -1 24 -1h24c8 0 17 1 25 1h2c3 0 5 -3 5 -6v-2c0 -3 -3 -5 -6 -6z" />
    <glyph glyph-name="hyphenminus" unicode="&#xad;" horiz-adv-x="116" 
d="M110 68h-1c-8 1 -17 1 -25 2h-24c-8 0 -16 0 -24 -1c-8 0 -16 -1 -24 -2h-2c-4 0 -7 3 -8 7v2c0 4 3 7 7 8h3c8 -1 16 -2 24 -2c8 -1 16 -1 24 -1h24c8 0 17 1 25 1h2c3 0 5 -3 5 -6v-2c0 -3 -3 -5 -6 -6z" />
    <glyph glyph-name="period" unicode="." horiz-adv-x="36" 
d="M36 18c0 -10 -8 -18 -18 -18s-18 8 -18 18s8 18 18 18s18 -8 18 -18z" />
    <glyph glyph-name="slash" unicode="/" horiz-adv-x="571" 
d="M572 754v-2s1 -1 1 -2v-2c-1 -7 -6 -12 -13 -13c-1 0 -1 -1 -2 -1c-3 -3 -6 -7 -10 -10c-6 -7 -12 -14 -18 -22c-13 -14 -25 -29 -37 -44c-11 -15 -23 -30 -35 -45s-23 -31 -35 -46c-11 -15 -23 -31 -34 -46l-34 -47c-22 -31 -45 -62 -67 -94c-44 -62 -87 -126 -130 -189
c-43 -64 -85 -128 -126 -194c-2 -4 -7 -7 -12 -7c-3 0 -6 1 -9 3c-5 3 -7 8 -7 13c0 3 1 6 2 8l1 1c47 61 92 123 138 185c45 62 89 125 134 187l67 94l99 141l33 48c11 15 22 31 34 47c5 8 11 15 17 23c3 4 6 8 10 12c1 2 3 4 5 6c2 1 3 2 5 4h1v1h2l1 1h2s1 0 2 1
c1 0 2 0 3 -1c2 0 3 0 4 -1c2 -1 3 -2 4 -3l3 -3c0 -1 1 -2 1 -3z" />
    <glyph glyph-name="zero" unicode="0" horiz-adv-x="428" 
d="M14 75c-4 11 -6 22 -8 33c-3 18 -4 35 -4 51v16c0 22 2 44 5 66s7 43 11 64c5 22 10 43 16 64c23 84 54 166 97 242c11 19 22 38 35 56s26 36 42 52c15 16 32 31 53 43c10 6 20 12 32 15c12 4 24 6 37 7c9 0 17 -8 17 -17s-7 -17 -17 -17h-1c-9 0 -18 0 -27 -3
c-9 -2 -19 -5 -27 -10c-18 -9 -34 -22 -49 -36c-30 -29 -55 -64 -77 -100c-22 -37 -41 -75 -57 -115c-9 -20 -16 -40 -23 -60s-13 -41 -18 -61c-11 -42 -19 -84 -23 -127c-2 -21 -3 -42 -3 -63c1 -21 2 -42 6 -62c5 -20 11 -40 22 -55c10 -16 25 -26 43 -30c4 -1 8 -1 12 -1
c14 0 28 4 42 10c18 8 34 21 49 35c16 14 30 29 43 46c13 16 25 34 36 52c23 35 43 73 61 112s33 79 46 120c12 41 22 83 28 126c3 21 4 42 4 63c0 22 -2 43 -7 63c-3 10 -7 20 -12 29c-5 8 -12 16 -20 22s-17 10 -27 10h-5c-8 0 -16 -2 -23 -4c-19 -8 -36 -20 -51 -35
s-29 -31 -41 -48c-6 -9 -12 -18 -17 -27s-11 -18 -15 -28c-9 -19 -17 -38 -22 -58c-2 -7 -8 -11 -15 -11h-4c-7 2 -11 8 -11 15v6c9 21 19 41 31 60c5 9 11 19 18 28c6 9 13 18 20 26c13 18 28 34 45 49c8 7 17 14 27 20c9 6 19 12 30 15c9 3 19 5 29 5h6c6 -1 11 -2 17 -5
c6 -2 11 -5 15 -8c10 -7 17 -17 23 -27c5 -9 9 -20 12 -31c6 -21 8 -44 9 -65c0 -22 -2 -44 -4 -66c-3 -22 -6 -43 -11 -64c-4 -22 -9 -43 -15 -64c-12 -42 -26 -83 -43 -123c-16 -40 -36 -80 -58 -118c-11 -18 -23 -37 -36 -55c-14 -17 -28 -34 -44 -50
c-17 -15 -35 -30 -56 -40c-11 -5 -22 -9 -34 -11c-7 -1 -14 -2 -21 -2c-5 0 -11 1 -17 2s-12 3 -18 5c-6 3 -11 6 -17 10c-10 7 -19 16 -26 27c-6 10 -11 21 -15 32z" />
    <glyph glyph-name="one" unicode="1" horiz-adv-x="348" 
d="M89 -7c-6 2 -9 8 -10 14h-18c-15 -1 -31 -2 -47 -3h-2c-5 0 -9 5 -10 10v2c0 5 5 10 10 10h2c16 -1 32 -2 47 -2l12 -1h13c32 67 62 135 91 203c8 18 15 36 23 54l21 54c15 36 28 73 41 109c13 37 25 74 36 111c5 18 10 37 15 56c4 19 9 37 12 56s5 38 5 57v7l-1 3v3
c-1 5 -2 9 -3 12v1c-1 0 -1 1 -1 1l-1 1v1h-1c0 1 -1 1 -1 1h-2c-1 0 -1 -1 -1 -1h-2c-3 -2 -7 -4 -10 -7l-9 -9c-7 -6 -12 -14 -18 -21l-15 -24c-5 -8 -10 -16 -14 -25c-3 -5 -8 -8 -14 -8c-2 0 -5 1 -7 2c-5 3 -8 8 -8 13c0 3 1 5 2 8v1c11 17 23 33 36 49
c6 7 13 15 21 22c4 4 8 7 12 10c4 4 9 7 15 9l3 1l2 1h12c1 0 2 0 3 -1c1 0 2 0 3 -1l6 -3c0 -1 1 -2 2 -2c0 -1 1 -2 2 -3c0 0 1 -1 1 -2l1 -2c1 -1 1 -2 1 -2l1 -3c2 -6 3 -11 4 -17v-15c0 -21 -4 -40 -8 -60c-7 -38 -18 -76 -29 -113c-11 -38 -24 -75 -37 -112
c-12 -36 -26 -73 -39 -110l-21 -54l-21 -55l-76 -196c13 1 25 1 38 2c15 1 31 3 47 5h3c7 0 13 -5 15 -12v-2c0 -8 -5 -15 -13 -16l-2 -1c-1 0 -2 1 -3 1c-16 2 -32 4 -47 5s-30 2 -45 2l-2 -6c-2 -6 -8 -10 -13 -10c-3 0 -5 1 -7 2z" />
    <glyph glyph-name="two" unicode="2" horiz-adv-x="476" 
d="M320 5c-13 0 -24 4 -34 9c-21 10 -36 23 -52 37c-15 14 -29 28 -43 42c-2 2 -3 4 -5 5c-2 -1 -3 -2 -4 -4c-15 -13 -31 -27 -47 -39s-33 -24 -52 -32c-10 -4 -20 -7 -31 -9c-5 0 -11 0 -17 1c-5 1 -11 4 -16 7c-4 3 -8 8 -11 13s-5 11 -5 16c-1 3 -1 6 -1 9
c0 8 2 16 4 23c6 21 17 39 32 54c8 7 17 13 26 18c10 5 20 8 31 9h8c8 0 17 -1 25 -4c5 -1 10 -3 15 -6c5 -2 9 -5 14 -8c8 -6 16 -13 24 -19l5 -5c9 9 17 18 25 28c25 30 49 62 72 94c23 33 44 66 65 100c20 34 39 69 56 105s32 72 42 110c6 19 10 38 12 58c1 10 2 21 2 32
c0 8 -1 17 -2 25c-4 19 -10 37 -22 51c-12 15 -29 26 -47 30c-6 1 -11 2 -17 2c-13 0 -26 -3 -38 -7c-18 -6 -36 -16 -51 -28c-31 -24 -58 -54 -80 -87s-39 -68 -50 -106c-3 -9 -5 -19 -7 -28c-1 -10 -3 -19 -3 -29v-9c0 -15 2 -31 8 -44c1 -2 1 -4 1 -6c0 -6 -3 -12 -9 -14
c-2 -1 -4 -2 -7 -2c-5 0 -11 4 -14 10v2c-4 13 -5 27 -5 39c0 9 1 18 2 27c1 10 4 20 6 31c3 10 6 19 10 29c7 20 15 38 25 56c9 18 20 35 32 52s25 32 38 47c14 15 29 29 46 41c16 13 34 23 54 31c13 5 26 7 40 7c8 0 15 0 22 -2c11 -2 21 -6 30 -12c9 -5 17 -12 24 -21
c4 -4 7 -8 10 -13c3 -4 5 -9 7 -14c5 -9 8 -20 10 -30c2 -12 3 -25 3 -37c0 -8 0 -17 -1 -25c-1 -21 -5 -41 -10 -61c-9 -39 -24 -78 -40 -115c-8 -18 -17 -37 -26 -55s-19 -35 -30 -53c-41 -69 -90 -134 -145 -194c-8 -9 -17 -18 -25 -26c1 -2 3 -3 4 -4
c15 -14 30 -27 45 -40c8 -6 16 -12 24 -17s16 -10 24 -13c7 -2 13 -4 19 -4h4c7 1 13 4 18 9c3 3 6 4 10 4s9 -2 12 -5s5 -7 5 -11s-2 -8 -5 -11c-1 0 -1 0 -1 -1h-1c-5 -4 -11 -7 -17 -9c-6 -3 -13 -4 -20 -4zM127 66c17 13 32 28 47 44l-4 4c-8 7 -15 14 -22 19
c-14 10 -31 17 -48 17h-4c-18 -1 -36 -10 -49 -22c-14 -13 -25 -30 -30 -48c-2 -7 -3 -14 -3 -21v-6c0 -5 2 -9 4 -13c2 -3 5 -6 8 -9c5 -4 12 -5 19 -5h6c9 1 18 4 27 8c17 8 34 19 49 32z" />
    <glyph glyph-name="three" unicode="3" horiz-adv-x="442" 
d="M375 233v-6c-7 -88 -66 -165 -144 -200c-19 -9 -40 -15 -61 -18c-9 -1 -19 -2 -28 -2c-12 0 -24 1 -36 4c-11 3 -21 6 -31 11s-19 11 -27 18c-17 14 -29 32 -37 53c-6 15 -9 32 -9 48c0 6 1 11 1 16c3 21 10 42 20 61c11 19 25 36 43 50c9 7 19 13 30 17s23 6 35 6h3
c8 0 14 -7 14 -15s-6 -16 -15 -16c-2 0 -3 0 -5 1c-5 1 -10 2 -15 2c-12 0 -26 -4 -37 -10c-17 -10 -31 -24 -42 -41c-13 -21 -20 -46 -20 -71c0 -15 2 -30 8 -44c7 -19 18 -36 33 -48c15 -13 34 -22 53 -26c11 -3 23 -4 34 -4c9 0 17 1 26 2c20 3 40 9 58 18
c9 4 18 9 26 14c9 6 17 12 25 19c15 13 29 28 40 44c12 17 21 35 28 54c3 9 6 19 8 29c3 9 4 19 4 29c0 19 -4 38 -14 54s-25 29 -42 36c-14 6 -31 8 -47 8h-9c-3 0 -5 0 -8 -1c-6 -2 -11 -5 -17 -7c-12 -3 -24 -6 -37 -6c-7 0 -12 5 -14 12v2c0 6 4 12 9 14h1
c17 5 34 9 51 10c3 1 7 3 10 5c18 9 35 22 51 36c32 28 59 62 81 98c11 19 21 38 30 58c8 19 15 40 19 60c4 16 6 31 6 47c0 5 0 11 -1 16c-2 21 -9 41 -22 56c-7 8 -15 15 -24 20c-5 2 -9 4 -14 6s-10 4 -15 5c-8 2 -16 3 -24 3c-12 0 -25 -2 -37 -6
c-20 -7 -39 -18 -56 -31s-32 -28 -45 -45c-14 -17 -25 -35 -35 -54s-19 -39 -25 -59c-4 -18 -7 -37 -7 -55v-8c1 -21 6 -42 16 -58c2 -3 3 -6 3 -9c0 -5 -3 -10 -7 -12c-3 -2 -6 -3 -9 -3c-5 0 -10 3 -13 7c-1 1 -1 3 -2 4v1c-1 6 -3 12 -4 18c-1 3 -1 6 -1 9
c-1 3 -1 5 -1 8c0 6 -1 12 -1 18s1 12 1 17c2 23 7 45 14 66c14 43 34 83 62 117c14 18 30 34 47 47c18 14 37 26 59 33c11 3 22 6 34 7c11 0 23 -1 34 -3c5 -1 11 -3 16 -5c6 -2 11 -5 16 -7c10 -6 20 -13 27 -22c8 -9 14 -19 18 -30c5 -11 7 -22 9 -33c1 -7 1 -13 1 -20
c0 -16 -2 -32 -5 -48c-4 -22 -11 -43 -19 -64c-9 -20 -18 -40 -29 -60c-23 -38 -49 -74 -82 -106c-9 -9 -20 -17 -30 -25c11 -2 23 -6 34 -11c10 -5 20 -11 29 -19c8 -8 15 -17 21 -27c10 -18 15 -39 15 -59z" />
    <glyph glyph-name="four" unicode="4" horiz-adv-x="507" 
d="M151 343c-13 -19 -27 -36 -42 -54c-3 -2 -5 -5 -8 -8c20 0 39 -2 59 -4c44 -5 88 -12 133 -14c6 -1 13 -1 19 -1l16 40c13 31 25 62 36 93c24 62 47 124 68 187l15 48c5 16 9 31 14 47c4 16 8 32 11 48c2 8 3 16 4 24c0 4 1 8 1 11v5c-1 1 -1 2 -1 2v4c0 7 4 13 11 15h4
c7 0 13 -4 15 -11c1 -4 1 -7 1 -10c-1 -3 -1 -5 -1 -7c-1 -5 -2 -10 -3 -14c-2 -9 -4 -17 -7 -25c-5 -16 -10 -32 -16 -48c-5 -15 -11 -31 -17 -47c-6 -15 -11 -31 -17 -47l-18 -46l-18 -47l-35 -93c-11 -31 -23 -62 -35 -93l-13 -36c11 0 21 1 31 3l15 3c4 2 8 4 11 7
c3 2 5 5 5 8c1 1 1 2 1 4c0 1 0 3 -1 5s-1 3 -1 5c0 6 5 13 11 15h4c7 0 13 -4 16 -11v-12c0 -2 -1 -4 -1 -6s-1 -4 -2 -6c0 -2 -1 -4 -2 -5c-4 -8 -11 -14 -17 -17c-7 -4 -13 -5 -19 -7c-6 -1 -12 -1 -18 -2c-13 0 -26 0 -38 1l-16 -43l-8 -23l-9 -24
c-5 -16 -11 -31 -16 -47s-11 -31 -16 -47c-2 -8 -5 -16 -7 -24c-1 -4 -2 -8 -3 -11c0 -1 0 -2 -1 -3c1 -2 1 -3 1 -5c0 -4 -2 -9 -6 -11c-1 -1 -2 -2 -5 -3c0 0 -3 -1 -6 -1c-2 0 -7 2 -9 4s-4 4 -4 5c-1 2 -1 3 -1 4c-1 0 -1 1 -1 2v4l1 1c0 2 0 3 1 5c0 2 1 4 2 6
c1 4 3 8 5 12l9 24l19 46c7 15 13 31 20 46l9 23l10 23l16 39c-5 0 -10 1 -15 1l-67 8l-66 6c-9 0 -18 1 -28 1c-13 0 -26 -1 -38 -2c-4 0 -7 0 -11 -1c-8 -7 -16 -13 -25 -19c-5 -4 -10 -7 -16 -10l-9 -3c-1 -1 -3 -1 -4 -2h-3l-3 -1h-8c-1 0 -2 1 -3 1s-1 0 -2 1
c0 0 -1 0 -1 1c-1 0 -2 1 -3 2s-2 3 -3 4s-1 2 -1 4c-1 1 -1 2 -1 3v2l1 1v3s1 1 1 2c0 0 0 1 1 2c0 1 1 2 2 3c2 3 5 6 9 8c0 1 1 1 2 2l2 1c1 1 3 2 4 2c12 6 24 8 35 10c3 0 5 1 7 1c9 8 18 17 26 26c15 16 29 33 43 51c13 17 26 35 39 53c25 36 49 74 71 112
c11 20 21 39 31 59s20 40 29 60c8 20 16 41 22 62c1 5 3 11 4 16s2 11 2 16c1 3 1 6 1 9c-5 2 -10 7 -11 13v2c0 9 6 16 14 18c2 0 4 0 7 -1h3c1 -1 3 -1 4 -2c2 -1 5 -3 6 -5l3 -3v-1l1 -2c1 -1 1 -3 1 -4c1 -2 1 -3 1 -4v-7c0 -3 -1 -7 -2 -10s-1 -6 -2 -9
c-4 -11 -8 -22 -13 -33c-9 -21 -18 -41 -28 -61c-9 -20 -19 -40 -29 -60s-21 -40 -31 -60c-11 -20 -22 -39 -33 -59c-11 -19 -22 -38 -34 -57s-25 -38 -38 -56z" />
    <glyph glyph-name="five" unicode="5" horiz-adv-x="499" 
d="M66 261c-21 -24 -37 -53 -46 -84c-5 -15 -7 -31 -7 -47s3 -31 9 -45c7 -15 18 -27 31 -35c6 -5 13 -9 20 -12c4 -1 8 -3 12 -4c3 -1 7 -2 11 -3c11 -3 21 -4 32 -4c5 0 11 1 16 1c16 1 32 5 47 9c16 5 30 12 44 20c15 8 28 17 41 27c12 11 24 22 34 34c11 12 20 25 29 39
c8 14 14 29 20 44l3 11l3 12c1 4 2 8 2 12l1 5c1 2 1 4 1 6c1 8 2 16 2 24s-1 16 -2 24c-1 15 -5 31 -11 45s-14 26 -25 37c-10 11 -23 20 -36 27c-14 7 -29 12 -44 15c-15 4 -31 5 -46 6c-8 0 -16 -1 -24 -1c-8 -1 -15 -2 -23 -4l-12 -3v-1c-2 -4 -4 -8 -7 -12
c-1 -2 -3 -4 -5 -7c-1 0 -2 -1 -3 -2c0 0 -1 -1 -2 -1s-1 -1 -3 -1c-1 0 -2 -1 -3 -1c-2 0 -4 1 -5 2c-1 0 -2 0 -2 1c-1 0 -1 1 -2 1l-1 1c0 1 -1 1 -1 1c-2 3 -2 5 -3 7v7c0 5 2 8 5 11c2 3 4 5 6 7c1 0 2 1 3 2s3 1 4 2c2 1 4 3 7 4c1 3 3 6 4 9c7 15 14 30 20 45
c3 8 6 15 9 23l9 23c6 16 11 31 16 47c11 31 21 63 30 94l6 24l7 24c0 2 0 4 1 6c-21 -1 -41 -2 -62 -4h-2c-7 0 -14 7 -15 14c0 9 6 16 15 17h3c22 -3 44 -6 66 -7c1 7 3 15 5 23c1 7 7 12 15 12h3c7 -1 12 -8 12 -15v-3c0 -1 0 -2 -1 -3c-2 -6 -4 -11 -7 -16
c23 -1 46 -2 68 -2c27 0 54 0 80 3c14 1 27 3 40 5c-1 2 -1 4 -1 6v3c1 7 8 12 15 12h3c2 0 4 -1 5 -2h1c2 -1 4 -2 6 -4c1 0 2 -1 3 -2c1 0 1 -1 2 -2c0 0 1 0 1 -1c1 0 1 -1 1 -1c1 -1 2 -3 3 -5c1 -1 1 -3 1 -5v-3c0 -2 0 -4 -1 -5c0 0 0 -1 -1 -2l-1 -1
c-1 -2 -2 -3 -3 -3c-4 -3 -7 -3 -9 -4c-5 -1 -8 -2 -12 -2s-7 0 -11 -1h-122c-25 0 -50 -1 -75 -1c-7 -20 -15 -40 -22 -60c-12 -31 -23 -62 -33 -94l-33 -94c-5 -14 -10 -27 -15 -41c7 2 14 3 21 3c8 1 17 2 26 2c17 0 35 -2 52 -6s33 -10 49 -18c16 -9 30 -19 43 -33
c12 -13 21 -29 28 -45c6 -17 10 -34 11 -52v-14c0 -12 -1 -25 -2 -37c-1 -2 -1 -4 -1 -7l-2 -6c-1 -4 -1 -8 -3 -12l-3 -13l-5 -12c-6 -16 -14 -31 -23 -45c-9 -15 -19 -28 -31 -41c-11 -12 -24 -24 -37 -34c-13 -11 -27 -20 -42 -28s-30 -15 -47 -20c-16 -5 -32 -8 -49 -9
c-6 -1 -11 -1 -17 -1c-11 0 -23 1 -34 4c-17 4 -33 10 -47 20c-8 5 -14 10 -20 17c-6 6 -11 14 -15 22c-8 15 -11 33 -12 50c0 17 2 34 6 51s10 33 18 48c7 15 16 30 26 44c5 7 11 14 17 20c6 7 13 13 21 18c5 2 9 5 14 6c5 2 11 3 18 3c6 -1 13 -3 18 -7c5 -3 10 -8 13 -13
c2 -3 3 -6 3 -9c0 -5 -3 -10 -7 -13c-3 -2 -6 -3 -8 -3c-5 0 -10 3 -13 7c-1 1 -1 2 -2 2c-1 3 -2 5 -3 6s-3 2 -4 2h-3c-4 0 -9 -1 -14 -3c-6 -3 -12 -7 -18 -12s-11 -10 -16 -16z" />
    <glyph glyph-name="six" unicode="6" horiz-adv-x="530" 
d="M69 485c34 74 81 142 141 197c30 28 64 52 101 69c18 9 37 17 57 22c20 6 41 10 63 11h3c7 0 14 -7 15 -14c0 -9 -6 -17 -15 -17h-6c-11 4 -23 5 -35 5c-7 0 -14 0 -21 -1c-20 -2 -39 -8 -57 -16c-36 -16 -69 -39 -97 -67c-15 -13 -28 -28 -41 -43s-24 -32 -35 -48
c-6 -9 -11 -17 -16 -25c-5 -9 -10 -18 -15 -26c-2 -4 -5 -9 -7 -13c-2 -5 -5 -9 -7 -14l-6 -13l-3 -7l-3 -6c-17 -37 -31 -74 -41 -112c-11 -39 -20 -78 -24 -117c-2 -16 -3 -32 -3 -48v-11c0 -20 2 -40 6 -59s10 -37 20 -54c2 -4 5 -8 8 -12c3 -3 6 -7 9 -10l5 -5
c2 -1 4 -3 6 -4l6 -4c2 -2 4 -3 6 -4c8 -4 17 -7 26 -9c5 -1 9 -1 14 -2h14c5 0 10 0 15 1l14 2c9 3 17 6 26 11c16 8 31 21 43 36c13 14 23 30 32 48c18 34 30 72 36 110c2 14 3 29 3 44v14c0 10 -1 19 -3 29c-1 9 -3 18 -6 27c-6 18 -15 35 -29 48c-13 13 -30 22 -48 26
c-5 1 -10 1 -14 2h-7l-7 1c-5 -1 -10 -1 -14 -2c-3 0 -5 -1 -7 -1l-7 -2c-18 -6 -34 -17 -48 -30c-7 -7 -13 -14 -19 -22l-9 -12l-3 -6l-4 -7c-1 -2 -3 -4 -4 -6l-3 -7c-2 -4 -4 -8 -6 -13c-2 -4 -4 -9 -6 -14c-1 -4 -3 -9 -4 -13c-6 -19 -10 -38 -11 -57
c0 -5 -1 -10 -1 -15s1 -9 1 -14v-7l1 -6l2 -7l2 -6v-1c1 -2 1 -4 1 -5c0 -6 -4 -12 -10 -14c-2 -1 -4 -1 -5 -1c-7 0 -13 4 -15 10c0 1 -1 2 -1 3l-1 9l-1 8v17c1 11 2 21 4 31c2 11 4 21 7 31c2 5 3 10 5 15c1 5 3 10 5 14c7 20 16 38 27 56s23 34 38 49c4 3 8 7 12 10
c2 2 4 3 6 5l4 2c1 1 2 1 3 2c9 6 19 11 29 14c10 4 20 5 31 6h16c5 -1 11 -1 16 -2c10 -2 21 -6 30 -10c10 -5 19 -11 27 -18c16 -15 28 -34 35 -54c8 -20 12 -41 13 -62v-16c0 -15 -1 -31 -3 -46c-6 -41 -19 -81 -39 -117c-10 -19 -22 -36 -36 -51
c-15 -16 -31 -29 -50 -39c-10 -5 -20 -8 -31 -11l-16 -2c-5 0 -10 0 -15 -1c-3 0 -6 0 -8 1h-8c-5 1 -11 1 -16 3c-3 0 -5 1 -8 1l-7 3c-3 1 -5 2 -8 3l-3 2l-4 2c-2 1 -5 2 -7 4l-7 4c-4 4 -8 7 -12 11s-7 8 -10 12s-7 8 -9 13c-11 18 -17 38 -22 58c-5 24 -7 48 -7 72
c0 17 1 34 3 51c4 40 12 80 23 119s24 77 41 114zM531 749c0 -1 -1 -1 -1 -1l-1 -1h-1c1 1 2 1 3 2z" />
    <glyph glyph-name="seven" unicode="7" horiz-adv-x="440" 
d="M274 413c-6 1 -12 1 -18 2c-19 1 -38 2 -56 3c-24 -42 -47 -85 -67 -130c-42 -89 -75 -182 -96 -278c-2 -8 -9 -13 -16 -13h-4c-8 2 -13 9 -13 16v4c0 1 1 2 1 3c39 92 74 184 115 274c19 42 39 84 60 125c-12 1 -24 1 -36 1c-13 0 -25 0 -37 -1c-12 0 -25 -1 -37 -2
s-25 -2 -37 -4h-2c-7 0 -14 5 -16 13v2c0 7 5 15 13 16h5c12 -2 25 -3 37 -4c13 -1 25 -1 37 -2c25 -1 50 -2 75 -2h7c21 41 45 81 70 120c13 21 27 42 42 62s30 39 46 59c16 19 33 37 50 55l18 18c-4 0 -8 0 -12 1l-74 4c-24 1 -49 2 -73 3c-25 0 -50 0 -74 -1
c-13 -1 -25 -2 -37 -3l-18 -3c-2 -1 -4 -1 -5 -2c-1 0 -1 -1 -2 -1c-3 -3 -7 -4 -11 -4s-8 1 -11 5l-2 2c0 1 -1 3 -1 4c-1 2 -1 4 -1 7c1 2 1 3 2 5s2 2 2 4c1 1 2 1 3 1c0 1 1 1 1 2h1c2 1 3 1 4 1c1 1 1 1 2 1h17l19 -2c12 -1 24 -2 37 -3c24 -2 49 -4 74 -5
c28 -1 57 -1 85 -1c21 0 41 0 62 1c7 0 13 1 19 1h4l2 1h5c1 0 2 0 3 -1c0 0 1 -1 2 -1s1 -1 2 -2c1 -2 2 -3 2 -5c0 -3 0 -4 -1 -5c0 -1 0 -2 -1 -2c-1 -3 -2 -4 -3 -6l-12 -15l-12 -14c-16 -19 -31 -37 -47 -56c-15 -19 -30 -39 -45 -58c-14 -20 -29 -40 -42 -60
c-24 -35 -47 -71 -69 -107h120l1 -1h1c1 0 1 -1 2 -1h1l3 -3c1 -1 2 -2 3 -5c1 -2 1 -5 1 -8c-1 -2 -1 -3 -2 -5s-3 -4 -3 -4c-1 0 -1 0 -1 -1c-1 0 -1 0 -2 -1h-1l-1 -1h-1l-1 -1h-4l-2 -1h-3c-5 0 -10 2 -12 5c-6 1 -11 2 -16 2c-6 1 -12 2 -19 2z" />
    <glyph glyph-name="eight" unicode="8" horiz-adv-x="410" 
d="M393 733c7 -11 11 -22 14 -34c2 -11 3 -22 3 -33c0 -13 -1 -26 -4 -39c-4 -23 -11 -46 -19 -68c-8 -23 -18 -44 -28 -66c-9 -21 -20 -42 -31 -63c-20 -38 -40 -76 -60 -113l9 -27c8 -23 16 -45 22 -68c6 -24 10 -47 13 -72c1 -6 1 -12 1 -18s0 -12 -1 -19
c-1 -12 -3 -25 -7 -37s-11 -24 -20 -34s-20 -17 -31 -23c-12 -6 -24 -9 -36 -11s-25 -3 -37 -3s-24 1 -36 2c-12 2 -24 3 -36 6c-23 6 -47 15 -66 30c-10 8 -19 18 -25 29s-10 23 -12 35c-1 8 -2 15 -2 23c0 17 3 34 8 50c6 23 15 45 26 66c22 42 50 81 80 118
c22 27 46 54 70 81c-5 11 -9 21 -13 31c-5 11 -9 23 -13 35c-3 11 -6 23 -8 35c-1 12 -2 23 -2 34c0 13 1 27 3 40c4 24 13 47 26 68s29 39 48 54c20 14 42 25 66 29c7 2 14 2 21 2c5 0 11 0 16 -1c12 -2 24 -7 35 -13c10 -7 19 -16 26 -26zM289 148c-3 23 -8 45 -14 67
s-13 44 -21 66c-1 2 -1 4 -2 6c-7 -15 -14 -30 -21 -44c-4 -11 -8 -22 -11 -32c-1 -5 -2 -10 -3 -14c0 -2 1 -4 1 -4v1c3 -3 4 -8 4 -12s-1 -9 -5 -12c-3 -3 -7 -5 -11 -5c-5 0 -9 2 -13 5c-2 3 -4 6 -5 9s-2 6 -2 8v13c2 8 4 14 6 20c5 12 11 23 16 34c6 10 12 21 18 31
c6 9 11 18 17 27c-5 11 -10 23 -14 35c-9 21 -18 43 -27 64c-2 4 -4 8 -5 12c-26 -20 -49 -43 -70 -67c-15 -18 -30 -36 -43 -56c-13 -19 -25 -39 -36 -59c-10 -21 -19 -42 -25 -65c-4 -15 -6 -31 -6 -46c0 -7 0 -14 1 -21c3 -10 6 -21 12 -30s13 -18 22 -24
c17 -14 39 -21 61 -26c11 -2 22 -4 34 -5c11 -1 23 -1 34 -1s23 1 33 4c11 2 22 5 31 10c10 5 18 11 25 19c6 8 11 17 14 27c5 13 6 27 6 42c0 8 0 15 -1 23zM398 629c2 12 3 24 3 36c0 11 -1 22 -3 32c-2 11 -7 21 -13 31c-6 9 -14 17 -23 23c-13 8 -29 12 -44 12
c-7 0 -14 0 -21 -2c-22 -4 -43 -15 -60 -29c-9 -7 -17 -15 -24 -23c-8 -9 -14 -19 -20 -28c-10 -20 -17 -42 -21 -64c-1 -9 -1 -17 -1 -26c0 -14 1 -28 4 -41c2 -11 5 -22 9 -33c3 -10 8 -21 12 -31l9 -21c2 2 4 5 6 7c3 3 7 5 12 5c3 0 7 -1 10 -4s5 -7 5 -12
c0 -3 -1 -7 -4 -10l-3 -3c-5 -3 -9 -6 -14 -9l8 -18c11 -27 23 -54 34 -82c20 32 39 64 58 97c22 41 44 82 61 126c8 22 15 44 20 67z" />
    <glyph glyph-name="nine" unicode="9" horiz-adv-x="401" 
d="M356 339c-27 -77 -69 -149 -124 -208c-27 -30 -59 -57 -94 -77c-18 -11 -36 -20 -56 -27c-19 -8 -40 -13 -62 -16h-2c-8 0 -15 5 -16 13v2c0 8 6 15 13 16h6c8 -2 16 -3 25 -3c10 0 21 2 32 4c19 4 37 11 55 20c34 19 65 45 91 75c14 15 26 31 37 47s22 33 31 51
c5 8 10 17 14 26s8 18 13 27c2 4 4 9 5 14c2 4 4 9 6 13l5 14l6 14c13 38 24 76 31 115c8 39 13 79 14 118v16c0 15 -1 29 -2 44c-2 19 -5 39 -11 57c-6 19 -13 37 -24 53c-3 4 -6 7 -9 11c-4 3 -7 7 -10 10c-2 1 -4 3 -6 4s-4 3 -6 4l-12 6c-9 4 -18 6 -27 7
c-5 1 -10 1 -14 1h-7c-3 -1 -5 -1 -8 -1c-4 -1 -9 -1 -14 -2l-7 -2l-6 -2c-9 -3 -18 -7 -26 -12c-15 -10 -29 -24 -40 -40c-11 -15 -20 -32 -28 -50c-15 -36 -24 -75 -26 -113c-1 -8 -1 -15 -1 -23c0 -12 1 -23 2 -35c1 -10 3 -19 5 -29l9 -27c8 -17 19 -33 33 -45
c14 -11 32 -19 50 -21c5 -1 10 -1 14 -1h15c4 1 9 1 13 3c3 1 5 1 7 2l7 2c17 8 32 20 45 34c6 7 12 15 17 23c3 5 5 9 8 13l3 7l3 6c1 2 2 5 3 7l3 7c2 4 3 9 5 14c1 4 3 9 4 14c2 4 3 9 4 14c4 19 6 38 6 58c0 9 -1 19 -2 28c-1 2 -1 4 -2 7l-1 6l-2 6l-3 6v1
c-1 2 -2 4 -2 7c0 5 4 11 10 13c2 1 4 2 7 2c5 0 11 -4 13 -10c1 0 1 -1 1 -2l2 -9l2 -8c0 -3 0 -6 1 -8v-9c0 -10 0 -21 -1 -31c-1 -11 -3 -21 -5 -31c-1 -6 -2 -11 -3 -16s-3 -10 -4 -15c-6 -19 -13 -39 -22 -57c-10 -19 -21 -36 -35 -52c-3 -4 -7 -8 -10 -11l-6 -6l-3 -2
c-1 -1 -2 -2 -4 -2c-8 -7 -17 -12 -27 -17c-10 -4 -20 -7 -31 -8c-2 -1 -5 -1 -8 -1h-24c-10 2 -21 4 -31 8s-20 9 -28 16c-17 13 -30 31 -40 50c-9 19 -14 40 -17 61c-2 15 -3 31 -3 46v16c3 41 13 82 30 120c8 19 19 37 32 54c12 16 28 32 46 43c9 5 19 10 30 13l8 2l7 1
c5 1 11 2 16 2c2 1 5 1 8 1h8c5 0 10 0 16 -1c2 -1 5 -1 8 -1l7 -2c3 -1 5 -2 8 -3l4 -1l4 -2c2 -1 5 -2 7 -3l7 -4c4 -3 9 -6 13 -10c4 -3 7 -7 11 -11s7 -8 10 -12c12 -17 21 -37 27 -57c10 -35 14 -72 14 -109v-12c0 -41 -5 -81 -13 -121c-7 -40 -18 -79 -32 -117z
M216 749c0 -1 -1 -1 -1 -1l-1 -1h-1c1 1 2 1 3 2z" />
    <glyph glyph-name="colon" unicode=":" horiz-adv-x="75" 
d="M75 115c0 -13 -10 -23 -22 -23c-13 0 -23 10 -23 23c0 12 10 22 23 22c12 0 22 -10 22 -22zM44 38c0 -13 -10 -23 -22 -23s-22 10 -22 23c0 12 10 22 22 22s22 -10 22 -22z" />
    <glyph glyph-name="semicolon" unicode=";" horiz-adv-x="66" 
d="M67 115c0 -13 -10 -23 -22 -23c-13 0 -23 10 -23 23c0 12 10 22 23 22c12 0 22 -10 22 -22zM16 42l6 6c2 3 3 6 4 8v10c0 3 2 5 4 5s4 -1 4 -3c1 -4 2 -8 2 -13c0 -2 0 -4 -1 -6c0 -2 -1 -4 -2 -6c-1 -4 -4 -8 -6 -11c-2 -2 -3 -4 -5 -5c-1 -1 -1 -2 -2 -2l-3 -3l-2 -1
c-1 -1 -3 -1 -4 -1c-3 0 -6 1 -8 4c-1 1 -1 3 -1 4c0 3 1 6 4 8c1 1 2 1 3 1l1 1c1 0 2 1 2 1c2 1 3 2 4 3z" />
    <glyph glyph-name="less" unicode="&#x3c;" horiz-adv-x="138" 
d="M117 160c3 3 6 4 9 4s6 -1 8 -4c2 -2 3 -5 3 -8s-1 -6 -4 -8l-3 -3c-12 -4 -22 -9 -33 -15c-10 -5 -20 -11 -30 -17l-30 -18c-9 -5 -17 -11 -26 -16c5 -6 10 -11 14 -16c6 -6 13 -12 19 -18s12 -12 19 -17c7 -6 13 -11 21 -16c3 -2 5 -6 5 -10c0 -2 -1 -4 -2 -6
c-3 -4 -6 -6 -10 -6c-2 0 -4 1 -6 2s-3 3 -4 4c-4 8 -9 15 -14 22c-6 7 -11 14 -17 20c-5 7 -11 13 -16 20c-6 6 -12 13 -18 19c-1 1 -1 2 -1 3s0 2 1 2c0 1 0 1 1 1c10 6 20 12 29 19c10 6 20 13 30 19c9 7 19 14 28 21c10 7 19 14 27 22z" />
    <glyph glyph-name="equal" unicode="=" horiz-adv-x="147" 
d="M124 53v-2c0 -5 -4 -9 -8 -10h-4c-8 2 -17 2 -25 3s-16 1 -24 1s-16 0 -24 -1c-8 0 -16 -1 -24 -3h-2c-5 0 -9 3 -11 7v2c0 5 4 9 8 11h5c8 -2 16 -3 24 -4c8 0 16 -1 24 -1s16 1 24 1c8 1 17 2 25 4h2c4 0 8 -4 10 -8zM135 114h2c5 0 9 -4 10 -8v-2c0 -5 -3 -9 -7 -10
h-5c-8 2 -16 2 -24 3s-16 1 -24 1s-16 0 -24 -1c-9 0 -17 -1 -25 -3h-2c-4 0 -9 3 -10 7v2c0 5 3 9 8 11h4c8 -2 16 -3 25 -4c8 0 16 -1 24 -1s16 1 24 1c8 1 16 2 24 4z" />
    <glyph glyph-name="greater" unicode="&#x3e;" horiz-adv-x="141" 
d="M73 41c10 6 19 13 28 20c7 5 14 10 21 16c-4 5 -8 9 -11 14c-6 6 -13 12 -19 18c-7 6 -14 12 -21 17s-14 11 -22 15c-5 3 -7 7 -7 12c0 3 1 6 2 8c3 5 7 7 12 7c3 0 6 -1 8 -2s4 -3 5 -5c4 -8 9 -16 15 -23c5 -7 10 -14 16 -21c6 -6 12 -13 18 -19c7 -6 13 -12 21 -17
c2 -1 3 -3 3 -6c0 -1 0 -3 -1 -4s-2 -2 -3 -2l-1 -1c-10 -4 -20 -10 -30 -16c-10 -5 -20 -11 -29 -18c-10 -6 -19 -12 -28 -20c-9 -7 -18 -14 -26 -23c-2 -3 -6 -4 -9 -4c-2 0 -5 0 -7 2c-3 2 -4 6 -4 10c0 2 0 5 2 7c2 1 4 3 6 3c11 4 22 9 32 14c10 6 20 12 29 18z" />
    <glyph glyph-name="question" unicode="?" horiz-adv-x="348" 
d="M23 -3c-13 0 -23 10 -23 22c0 13 10 23 23 23c12 0 22 -10 22 -23c0 -12 -10 -22 -22 -22zM49 69v-4c0 -7 -7 -14 -15 -14s-16 6 -16 15v5l1 2c0 1 1 2 1 3l1 3c0 1 1 3 2 5c1 3 2 7 3 10c3 7 6 14 9 20c5 13 12 26 18 39c13 25 28 49 43 73c16 23 33 46 51 67
c10 11 19 21 29 31l7 8l22 22c38 40 70 86 92 136c11 25 20 51 26 77c4 20 6 39 6 59c0 7 0 15 -1 22c-1 13 -4 26 -9 38s-12 24 -20 33c-9 10 -20 17 -31 22c-12 5 -25 8 -39 8h-8c-23 0 -46 -7 -68 -20c-23 -13 -44 -32 -62 -53c-8 -10 -16 -21 -24 -33
c-7 -11 -13 -24 -19 -36c-11 -25 -19 -52 -22 -79c-1 -9 -2 -18 -2 -27c0 -18 3 -36 8 -53c1 -3 2 -6 4 -9l3 -9c2 -3 3 -6 5 -9c1 -3 3 -6 5 -8c7 -11 15 -21 25 -30c3 -3 5 -7 5 -11s-1 -8 -4 -11s-8 -5 -12 -5s-7 1 -10 4l-2 2v1c-9 12 -17 25 -23 39
c-6 13 -11 28 -14 42s-4 29 -4 43c0 15 1 29 4 43c4 28 13 56 24 81c12 26 27 50 45 72c9 11 19 21 30 31c10 9 22 18 34 25c6 4 13 8 19 11c7 3 14 5 21 7s14 4 21 5c4 1 7 1 11 1h11c15 0 29 -3 43 -8s27 -14 38 -25c10 -11 18 -24 23 -38c6 -13 9 -28 11 -42
c1 -8 1 -16 1 -23c0 -21 -3 -43 -7 -63c-6 -28 -16 -55 -28 -80c-12 -26 -26 -51 -43 -74c-16 -23 -34 -45 -54 -65l-29 -29c-10 -11 -19 -21 -28 -31c-8 -11 -17 -22 -25 -33s-16 -23 -23 -34c-8 -12 -15 -24 -21 -36c-2 -3 -3 -6 -5 -9c-1 -3 -3 -6 -4 -9
c-3 -7 -6 -13 -8 -19c-6 -13 -10 -26 -14 -39c-2 -6 -3 -13 -5 -20c0 -3 -1 -6 -2 -9v-5z" />
    <glyph glyph-name="at" unicode="@" horiz-adv-x="519" 
d="M265 177v-1c-3 -6 -8 -9 -13 -9h-3l2 -2c0 -1 1 -1 1 -1c0 -1 0 -1 1 -2v-1c1 -1 1 -1 1 -2c1 0 1 -1 1 -2c1 -2 1 -4 2 -6c1 -3 1 -7 2 -10c2 -6 3 -13 5 -18s5 -8 8 -10c2 -1 5 -2 9 -2h5c5 1 11 3 17 6c12 5 23 14 32 23c10 10 18 20 27 31c8 11 15 22 22 34
c15 23 27 48 39 72c5 13 11 25 16 38s10 25 15 38c4 13 9 26 13 39c5 13 9 26 13 39c3 13 7 26 10 39c3 14 6 27 8 40c5 27 9 54 9 81s-3 54 -13 79c-4 12 -11 23 -19 33c-9 10 -20 17 -32 22c-14 6 -30 9 -46 9c-10 0 -21 -2 -31 -4c-26 -6 -51 -19 -72 -35
c-11 -8 -21 -17 -31 -26s-19 -19 -28 -30c-9 -10 -18 -20 -26 -31s-16 -22 -23 -33c-15 -23 -29 -46 -42 -70s-25 -48 -37 -73c-11 -25 -21 -50 -30 -76c-10 -25 -18 -51 -25 -77c-7 -27 -13 -53 -17 -80c-3 -13 -5 -27 -6 -40s-3 -27 -3 -40v-31c0 -3 0 -7 1 -10
c0 -13 2 -27 4 -40s5 -26 9 -39l3 -9l3 -10l2 -4l1 -3l1 -2l5 -9c1 -3 3 -5 5 -8l5 -9l6 -7l6 -8l7 -7l8 -6c1 -2 2 -3 3 -4l4 -3c3 -1 6 -3 8 -5c6 -3 12 -7 18 -9c6 -3 12 -5 18 -8c3 -1 7 -1 10 -2l5 -1c1 -1 3 -1 5 -1c3 0 6 -1 9 -1l10 -1h20c7 1 14 1 20 2l5 1l3 1h2
l10 3l2 1h3l4 2l5 2c2 0 3 1 5 1c6 3 12 5 18 9c3 1 6 3 9 4l9 6c1 1 3 1 4 2l12 9c3 2 6 4 8 7c3 2 5 4 8 6c39 37 64 89 67 141v1c1 7 8 14 15 14h2c9 0 15 -8 15 -16c0 -2 -1 -4 -1 -5c-3 -7 -5 -14 -8 -20c-3 -7 -5 -14 -8 -20c-4 -7 -7 -13 -10 -20l-5 -9l-6 -9
c-15 -24 -33 -46 -54 -65c-20 -19 -45 -35 -71 -45c-1 -1 -3 -2 -5 -2l-10 -4l-2 -1h-3l-10 -3l-3 -1h-2l-6 -1c-7 -2 -14 -2 -21 -3h-10c-2 0 -4 -1 -5 -1c-2 0 -4 1 -6 1h-11c-3 1 -7 1 -10 2h-6l-5 1c-3 1 -7 2 -10 3c-7 2 -14 4 -21 7c-6 3 -13 7 -19 10l-9 6l-4 3
c-2 1 -3 2 -5 3l-8 7l-8 8l-3 4l-4 4l-7 8l-6 9c-2 3 -4 6 -5 9l-6 10l-1 2l-1 3l-10 25c-5 13 -8 27 -11 41s-5 28 -6 42c0 3 0 7 -1 10v11c0 7 -1 14 -1 21c0 14 1 28 2 42s2 28 4 42c4 28 10 55 16 82c14 55 33 107 56 158c12 26 24 51 39 75c14 24 29 47 46 70
c9 11 17 22 26 32c10 11 19 22 29 31c10 10 20 20 31 29c5 5 11 9 16 13c6 5 11 9 17 13l5 3l4 2l9 6c3 2 6 3 9 5l10 5c13 6 26 11 40 14c12 2 23 4 35 4h8c14 -1 28 -4 42 -9c13 -6 25 -14 36 -25c10 -10 17 -23 23 -36c11 -27 14 -56 15 -84v-8c0 -53 -10 -106 -24 -157
c-15 -54 -36 -106 -62 -155c-6 -13 -13 -25 -20 -37s-14 -24 -22 -35c-8 -12 -16 -23 -24 -34c-9 -11 -18 -22 -28 -32c-2 -3 -5 -5 -7 -7l-8 -8c-3 -2 -5 -4 -8 -7l-9 -6c-6 -5 -13 -8 -20 -11c-4 -1 -8 -2 -13 -2c-4 0 -9 1 -14 2c-5 2 -9 6 -12 9c-3 4 -5 8 -7 11
c-4 8 -5 15 -7 22l-1 8c-2 -1 -3 -2 -4 -4c-11 -8 -21 -17 -33 -26c-5 -4 -11 -8 -18 -12c-3 -2 -6 -4 -10 -5c-3 -2 -7 -3 -12 -4c-4 0 -9 0 -14 3c0 1 0 1 -1 1l-1 1c0 1 -1 1 -1 2c-1 2 -2 3 -2 4c-1 3 -1 5 -1 7c0 8 2 15 4 22c4 14 10 27 16 39c7 13 14 25 23 36
c5 6 9 11 15 16c5 5 11 10 18 14c3 2 7 3 11 5c1 0 2 0 3 1h3c2 1 3 1 4 1s3 0 4 -1c5 0 10 -2 14 -6c1 0 1 0 2 -1l1 -1c1 -1 2 -2 2 -3c2 -2 3 -4 4 -6c4 -8 6 -17 6 -25c0 -9 -1 -17 -4 -25zM225 164c1 2 3 3 5 4c1 1 11 2 11 2c-4 3 -6 7 -6 11c0 2 0 3 1 5c0 1 1 2 1 3
c3 5 5 10 6 15v5c0 3 0 7 -1 10c0 1 -1 2 -1 3s-1 1 -1 1v1h-1c-1 2 -2 2 -4 3h-7c-2 -1 -5 -2 -8 -3c-5 -2 -10 -6 -15 -10s-10 -9 -14 -14c-9 -9 -17 -21 -23 -32c-7 -12 -13 -25 -16 -37c-2 -7 -3 -13 -3 -19c0 -1 0 -2 1 -3v-1c1 0 1 -1 2 -1s3 1 4 1c4 1 10 4 15 8
s10 8 15 13c10 9 20 18 30 28c3 3 5 5 9 7z" />
    <glyph glyph-name="A" unicode="A" horiz-adv-x="1221" 
d="M143 -447c-14 3 -27 9 -39 15c-13 7 -24 15 -34 25c-21 19 -36 43 -46 68c-11 25 -17 51 -20 78c-3 17 -4 35 -4 53c0 9 1 18 1 27c3 53 14 105 31 155s40 98 67 143c28 44 62 86 100 122c10 9 20 17 31 25c10 9 20 17 32 24c22 14 46 27 71 36c13 4 26 7 40 8
c5 0 10 1 15 1c9 0 18 -1 26 -3c7 -1 14 -3 20 -6c7 -3 13 -6 19 -10c12 -9 22 -19 29 -31c8 -12 12 -26 16 -39c3 -14 5 -27 5 -41v-11c0 -10 -1 -20 -2 -30c-1 -13 -4 -27 -7 -40c-12 -52 -34 -101 -59 -148c-3 -6 -8 -9 -14 -9c-3 0 -5 0 -8 2c-6 3 -9 8 -9 14
c0 3 0 5 2 8v2c28 43 51 89 65 137c7 25 11 50 11 75c0 12 -1 24 -3 36c-3 12 -7 24 -13 34c-6 11 -14 20 -23 27s-20 12 -32 14c-9 2 -18 3 -27 3h-10c-12 -1 -24 -4 -36 -7c-25 -8 -48 -20 -69 -33c-22 -14 -42 -30 -61 -48c-38 -35 -71 -75 -98 -119s-48 -92 -64 -141
s-26 -100 -28 -151v-18c0 -20 1 -39 4 -59c1 -12 4 -25 7 -37c4 -12 8 -24 13 -35c10 -23 24 -44 42 -60c18 -17 41 -28 64 -33c3 -1 6 -1 9 -2l9 -1c7 -1 13 -2 19 -2s12 -1 19 -1c6 0 12 1 18 1c25 3 49 10 71 19c23 10 45 23 65 38s40 32 58 50c18 17 36 36 52 56
c17 19 33 39 49 60c16 20 31 41 46 62c8 11 15 21 22 32c8 11 15 21 22 32c29 43 57 87 84 132c5 7 9 14 13 21h-12c-52 -2 -103 -7 -154 -16h-3c-7 0 -12 5 -14 11v2c0 7 5 13 12 15h1c46 3 91 6 137 6h21c7 0 15 -1 23 -1c5 10 11 19 17 29l19 33l20 34
c26 46 51 91 77 137c25 45 50 91 75 137c26 45 50 91 76 137c13 23 26 46 39 68c14 23 28 45 43 67c8 11 16 21 26 32c9 10 19 20 32 28c7 4 15 7 23 9c5 1 10 1 14 1s8 0 11 -1h3c1 -1 2 -1 3 -1c2 -1 4 -2 7 -2c4 -2 8 -5 12 -8c7 -7 11 -15 14 -22c6 -15 7 -29 8 -43v-12
c0 -10 0 -20 -1 -29c-3 -27 -8 -53 -13 -79s-11 -52 -18 -77c-6 -26 -13 -51 -21 -76c-29 -101 -62 -200 -93 -299c-16 -50 -31 -100 -46 -150c-2 -9 -5 -18 -7 -27c6 -6 11 -12 16 -19c15 -22 27 -46 33 -72c4 -16 6 -33 6 -49c0 -11 0 -21 -2 -31c-2 -14 -6 -27 -11 -39
c-3 -7 -7 -13 -11 -19c-4 -5 -9 -11 -15 -15c-7 -4 -15 -7 -23 -7c-4 0 -8 1 -12 3c-4 1 -7 4 -10 6c-6 6 -10 13 -13 19c-2 7 -4 14 -5 21c-1 8 -2 16 -2 24c0 6 1 11 1 17c0 13 2 26 3 39c4 27 9 52 15 78c3 17 7 34 11 50c-8 9 -18 16 -27 23c-21 15 -44 27 -68 36
s-49 16 -75 21c-38 8 -77 11 -117 11l-18 -33c-26 -45 -53 -90 -81 -135c-14 -22 -28 -44 -43 -66c-15 -21 -30 -43 -46 -64s-32 -42 -49 -62c-18 -20 -36 -39 -55 -57c-19 -19 -40 -36 -62 -52c-22 -15 -46 -29 -71 -39c-25 -11 -52 -17 -80 -19c-7 0 -14 -1 -20 -1
c-7 0 -14 1 -21 1c-7 1 -14 2 -20 3c-4 0 -7 1 -10 2c-4 0 -7 1 -10 2zM1043 -49c-3 5 -7 10 -11 14c-3 -12 -6 -25 -9 -37c-6 -25 -12 -51 -16 -76c-2 -13 -3 -26 -4 -38c0 -6 -1 -13 -1 -19c0 -7 1 -13 1 -19c1 -6 2 -12 4 -17c2 -6 5 -10 9 -14c1 -1 4 -3 6 -4s5 -1 7 -2
c4 0 9 2 14 5c4 3 9 7 12 11c4 5 7 11 10 16c5 11 9 23 11 36c2 11 3 22 3 33c0 14 -2 28 -5 42c-6 25 -16 48 -31 69zM787 177l-38 -68c-4 -7 -7 -14 -11 -20l33 -3c26 -2 52 -7 78 -12c26 -6 51 -14 75 -24c25 -9 49 -22 70 -37c9 -7 17 -13 25 -20c1 5 2 10 4 16
c13 50 27 101 42 151c29 100 60 200 88 300c13 50 27 100 37 151c5 25 10 50 12 75c1 13 2 25 2 38c-1 12 -2 24 -6 33c-1 5 -4 8 -6 11c-2 1 -3 2 -5 3c0 0 -1 0 -2 1h-3c-3 1 -5 1 -8 1c-7 0 -13 -2 -20 -6c-10 -5 -19 -13 -27 -22c-9 -9 -16 -19 -24 -29
c-16 -20 -30 -42 -44 -64s-27 -44 -41 -66c-13 -22 -26 -45 -40 -67c-13 -23 -26 -46 -39 -68c-26 -46 -51 -91 -76 -137c-26 -45 -51 -91 -76 -137z" />
    <glyph glyph-name="B" unicode="B" horiz-adv-x="885" 
d="M399 768c1 3 1 6 1 9v18c-1 0 -1 1 -1 2l-1 3v2c0 8 6 16 14 17h4c7 0 14 -5 15 -13c1 -2 1 -5 2 -7v-11l-1 -5c0 -4 -1 -7 -1 -10c-1 -3 -2 -6 -2 -10c-3 -12 -6 -24 -9 -35c-7 -24 -15 -46 -23 -69s-15 -45 -24 -68c-8 -22 -16 -44 -25 -67c-28 -74 -56 -148 -85 -222
c18 36 38 72 57 107c10 17 21 35 31 52c10 18 21 35 32 52c22 35 45 68 70 100c24 33 50 64 79 93c15 14 30 28 47 39c17 12 35 22 56 28c7 1 15 2 23 2h9c5 0 11 -1 16 -3c5 -1 10 -3 15 -6c10 -5 18 -14 23 -24s6 -22 6 -32c0 -11 -2 -22 -5 -32c-2 -10 -5 -20 -9 -30
c-7 -19 -16 -37 -26 -56c-10 -18 -20 -35 -31 -52c-12 -17 -23 -34 -35 -51c-25 -32 -51 -64 -79 -94c-27 -30 -56 -59 -87 -87c-15 -13 -31 -27 -47 -39c-2 -1 -4 -3 -6 -4c27 6 54 11 82 14c18 2 36 3 53 3c28 0 57 -3 84 -8c22 -5 44 -12 65 -22c21 -11 41 -24 57 -41
s29 -37 38 -59s15 -44 18 -67c1 -12 2 -23 2 -35v-34c-1 -23 -4 -46 -8 -69c-10 -45 -26 -89 -50 -128c-22 -40 -51 -77 -83 -109c-33 -32 -69 -61 -108 -85c-38 -24 -80 -43 -123 -58c-21 -7 -43 -13 -66 -16c-16 -3 -33 -5 -50 -5c-6 0 -12 0 -18 1c-11 1 -23 3 -34 6
c-3 1 -6 2 -8 3c-3 1 -6 2 -8 3c-6 3 -11 5 -16 8c-20 13 -36 31 -46 52s-15 45 -16 68c-1 6 -1 12 -1 18c0 17 2 34 5 51c1 11 4 22 7 33s6 22 10 33s8 22 12 32c5 11 10 21 15 31c21 41 47 79 77 113c7 9 15 17 23 25s17 16 25 23c9 7 18 14 28 21c9 6 19 12 30 17
c21 11 43 18 68 20h11c20 0 42 -4 62 -13c7 -3 11 -9 11 -16c0 -2 -1 -5 -2 -7c-2 -7 -8 -11 -15 -11c-2 0 -5 1 -7 2s-3 2 -4 3c-16 13 -35 20 -56 22h-5c-20 0 -39 -5 -57 -13c-10 -4 -19 -10 -29 -16c-9 -6 -18 -12 -26 -19c-9 -7 -17 -15 -24 -23c-8 -7 -15 -16 -23 -24
c-28 -34 -51 -72 -70 -112s-34 -82 -43 -125c-2 -10 -4 -21 -5 -32c-2 -11 -2 -22 -2 -33c0 -21 3 -43 12 -63c4 -10 9 -19 16 -28c7 -8 15 -15 24 -21c18 -12 40 -18 62 -19c6 -1 12 -1 18 -1c16 0 32 2 48 5c21 4 43 10 64 18c21 7 41 16 61 27c19 10 38 21 57 34
c18 12 36 25 53 40c16 14 32 29 47 46c15 16 30 33 43 50c12 18 24 36 35 56c21 38 37 79 47 121c6 22 10 43 12 65l1 17v26c0 7 0 15 -1 23c-2 21 -7 43 -15 63c-8 19 -20 38 -35 53c-15 16 -33 28 -52 38s-40 16 -62 21c-26 5 -52 7 -78 7c-18 0 -35 -1 -53 -3
c-22 -3 -44 -7 -65 -12c-22 -5 -43 -11 -64 -19h-9c-6 0 -12 2 -15 8c-2 3 -2 6 -2 8c0 6 3 12 8 15c35 19 67 43 98 68s61 52 89 81s54 59 79 90c25 32 49 64 69 99c10 17 19 35 26 54c7 18 13 37 14 56c0 10 0 19 -4 27c-3 9 -10 15 -17 20c-4 2 -9 4 -13 5
c-5 2 -10 2 -14 3h-8c-7 0 -14 -1 -21 -2c-19 -4 -37 -13 -53 -25c-17 -11 -32 -24 -46 -38l-21 -21c-7 -8 -14 -15 -20 -23c-13 -16 -25 -32 -37 -48c-48 -65 -90 -135 -130 -205c-39 -68 -75 -138 -110 -209c-10 -23 -19 -46 -28 -69l-54 -133l-107 -265
c-2 -5 -8 -9 -13 -9c-2 0 -3 0 -5 1c-6 2 -9 7 -9 13c0 1 0 3 1 5v1c5 11 10 23 16 34c49 122 102 243 158 363c18 42 36 85 53 128c35 88 70 177 102 267c7 22 15 45 22 67c7 23 14 46 21 68c6 23 12 46 17 69c2 11 4 23 5 34z" />
    <glyph glyph-name="C" unicode="C" horiz-adv-x="731" 
d="M619 811h12c9 0 17 -1 25 -3s16 -4 24 -8c8 -3 15 -8 22 -13c7 -6 12 -12 17 -19s9 -15 13 -22c6 -16 10 -32 11 -48c1 -7 1 -13 1 -20c0 -25 -4 -49 -9 -73c-3 -15 -8 -30 -12 -45c-5 -15 -10 -29 -15 -44c-22 -57 -49 -112 -74 -168c-3 -7 -9 -11 -16 -11
c-2 0 -5 1 -7 2c-6 3 -10 9 -10 16c0 2 1 5 2 7c0 1 1 2 2 3c35 49 63 102 85 158c11 28 20 57 26 86c4 21 7 43 7 64c0 8 0 15 -1 23c-1 15 -5 28 -10 41c-3 6 -7 12 -11 17c-4 6 -8 10 -14 15c-5 4 -10 7 -17 10c-6 2 -12 4 -19 6c-6 1 -13 2 -20 2c-4 0 -7 -1 -11 -1
c-3 0 -7 0 -10 -1c-28 -3 -56 -13 -83 -26c-26 -13 -51 -29 -75 -47c-47 -36 -90 -78 -129 -124c-40 -45 -75 -94 -107 -145c-64 -102 -115 -213 -149 -329c-17 -58 -30 -117 -36 -177c-2 -25 -4 -49 -4 -74v-16c0 -29 3 -59 8 -88l1 -5l1 -6l3 -10c2 -7 3 -14 6 -21
c4 -14 10 -28 16 -40c2 -3 3 -7 5 -10l5 -9c4 -6 8 -12 12 -17l4 -4c1 -1 2 -3 3 -4l3 -4c2 -1 3 -2 4 -4l8 -7l8 -6c11 -8 22 -15 35 -21l10 -4c3 -1 6 -2 10 -3c3 -1 7 -2 10 -3c4 -1 7 -2 10 -3c18 -4 36 -6 55 -6c10 0 20 1 30 2c29 3 57 11 83 23c27 11 53 26 77 43
s46 36 68 57c10 10 21 21 31 32s20 22 29 34c19 23 37 47 54 72s33 50 48 77c14 26 28 53 40 80c6 14 12 28 17 42s10 29 13 43c1 2 2 3 4 3h2c2 0 3 -2 3 -5c-6 -30 -15 -59 -26 -88s-23 -57 -37 -84c-13 -28 -29 -54 -45 -80c-8 -13 -16 -26 -25 -39s-18 -25 -28 -37
c-9 -12 -19 -24 -29 -36s-20 -23 -31 -34c-22 -22 -46 -43 -71 -61c-12 -10 -25 -18 -39 -26c-13 -8 -27 -16 -42 -22c-29 -13 -60 -23 -92 -27c-16 -2 -32 -2 -48 -2c-16 1 -32 3 -48 7c-4 0 -8 1 -12 3c-3 1 -7 2 -11 3s-8 2 -12 4l-11 4c-15 7 -30 15 -43 26l-10 8
l-13 13l-4 5c-1 1 -2 3 -4 4l-3 5c-6 7 -10 14 -14 21l-6 10c-2 4 -4 7 -5 11c-7 15 -13 30 -17 45c-2 8 -4 15 -6 23l-3 18l-1 5c-3 26 -5 52 -5 78v16c1 30 3 61 8 92c4 30 10 60 17 90s14 59 23 89c9 29 19 58 30 87c11 28 22 56 35 84c25 56 53 111 84 163
c32 52 67 103 107 150c39 47 83 91 131 129c25 19 51 36 79 50c14 7 29 13 44 18s31 8 47 10c4 1 8 1 12 1z" />
    <glyph glyph-name="D" unicode="D" horiz-adv-x="840" 
d="M363 738c2 11 4 21 5 32v24l-1 1v2l-1 3v2c0 7 4 13 11 14h3c6 0 12 -4 14 -10v-1c0 -2 0 -4 1 -6v-15c-1 -6 -2 -12 -3 -17c-2 -12 -5 -23 -8 -34c-6 -22 -12 -43 -19 -64c-4 -11 -7 -21 -11 -32c-3 -10 -7 -21 -11 -31l-22 -63l-23 -63c-7 -20 -15 -41 -23 -62
c-5 -13 -10 -27 -15 -40c12 21 23 41 35 62c40 66 83 131 133 190c25 30 52 58 81 84c8 6 15 12 23 18s16 12 24 17c17 10 35 19 54 25c17 6 34 9 52 9h7c21 -1 41 -7 59 -16s34 -22 47 -38s23 -34 30 -53s13 -38 17 -58c3 -19 6 -39 7 -58c1 -12 2 -23 2 -35
c0 -8 -1 -16 -1 -24c0 -20 -1 -40 -3 -59c-2 -20 -5 -39 -8 -58c-4 -20 -7 -39 -12 -58c-8 -38 -19 -75 -31 -112c-25 -74 -56 -146 -94 -214c-37 -69 -78 -135 -125 -197c-24 -30 -48 -61 -75 -89c-26 -29 -54 -56 -85 -81c-30 -24 -63 -46 -99 -63c-18 -8 -37 -14 -57 -18
c-14 -3 -29 -5 -44 -5c-5 0 -11 0 -16 1c-10 2 -20 4 -30 7s-20 7 -29 14c-9 6 -17 14 -23 23s-10 19 -13 29c-4 13 -5 27 -5 40c0 7 0 15 1 22c2 20 7 39 13 58c12 38 30 73 50 107s43 65 68 95c24 30 51 58 80 85c29 26 60 50 94 69c17 10 35 19 54 26s38 12 59 14
c6 1 12 1 18 1c15 0 29 -2 43 -6c11 -2 21 -6 30 -10c10 -5 19 -10 28 -16c5 -3 7 -8 7 -13c0 -4 -1 -7 -3 -10c-3 -5 -8 -8 -14 -8c-3 0 -6 1 -9 3l-2 2c-13 11 -28 21 -44 26c-17 7 -35 9 -53 9c-18 -1 -36 -4 -54 -10c-18 -5 -35 -13 -52 -22c-33 -17 -64 -40 -93 -66
c-28 -25 -54 -53 -77 -84c-24 -30 -45 -62 -63 -95c-9 -17 -18 -33 -25 -51c-8 -17 -15 -35 -21 -53c-5 -17 -9 -36 -12 -54c-1 -6 -1 -12 -1 -18c0 -12 1 -24 4 -35c2 -8 5 -16 10 -23s10 -14 17 -19s15 -9 23 -11c8 -3 17 -5 26 -6c8 -1 15 -2 23 -2c11 0 22 1 32 3
c9 2 18 4 27 7s17 6 26 10c34 15 66 37 96 61c58 48 108 107 153 169c44 62 83 128 118 196s65 139 89 211c12 36 22 73 31 110c4 19 8 37 11 56c4 19 7 37 9 56c4 32 6 63 6 94v19c-1 19 -2 38 -5 56c-3 19 -7 37 -14 54c-6 18 -14 34 -25 49c-10 15 -24 27 -40 36
c-16 8 -33 14 -52 15c-4 0 -8 1 -12 1c-14 0 -28 -3 -42 -7c-18 -5 -35 -14 -51 -23c-16 -10 -32 -21 -46 -34c-30 -24 -56 -52 -80 -82s-47 -61 -68 -93s-42 -64 -62 -97c-29 -50 -57 -101 -84 -153c-30 -79 -60 -157 -91 -235c-31 -83 -64 -165 -95 -248
c-2 -7 -9 -11 -16 -11c-2 0 -4 0 -6 1c-7 2 -11 9 -11 16c0 2 0 4 1 6c0 0 1 0 1 1v1c13 36 27 71 41 106c14 36 28 72 43 108c31 71 62 141 96 210c9 19 18 37 27 55c1 2 2 5 4 8c32 82 64 165 92 249c4 11 7 21 11 32l10 31c3 11 6 21 9 32s6 21 9 32c6 21 11 43 15 64z
" />
    <glyph glyph-name="E" unicode="E" horiz-adv-x="792" 
d="M622 788c17 7 34 13 53 13h4c10 0 20 -2 30 -6c10 -5 18 -12 24 -21c6 -8 10 -18 13 -28c3 -9 4 -19 4 -29s-1 -19 -2 -29c-1 -9 -3 -19 -5 -28s-5 -18 -8 -27c-2 -5 -4 -9 -5 -14l-6 -13c-8 -17 -17 -34 -26 -51c-3 -5 -9 -8 -15 -8c-3 0 -6 0 -9 2c-5 3 -8 9 -8 15
c0 2 1 5 2 8c1 1 2 2 2 3c24 26 42 57 53 91c2 8 4 17 6 25c1 9 2 17 2 26c0 8 -1 17 -3 25s-5 15 -10 22c-4 6 -10 11 -17 15c-7 3 -14 5 -23 5h-6c-6 0 -12 -1 -18 -2c-3 -1 -5 -2 -7 -2c-2 -1 -4 -1 -6 -2l-6 -2l-6 -3c-16 -7 -32 -15 -47 -25c-14 -11 -29 -22 -42 -34
c-26 -25 -49 -53 -68 -83c-5 -8 -9 -15 -13 -23s-8 -16 -12 -25l-9 -24c-3 -9 -5 -17 -7 -26c-2 -11 -3 -22 -3 -34c0 -6 0 -12 1 -18c2 -8 4 -16 7 -24c4 -8 8 -14 14 -21c5 -6 11 -11 18 -16l6 -3l5 -3c4 -1 8 -3 12 -4c2 -1 4 -2 6 -2c2 -1 4 -2 6 -2c4 -1 9 -2 13 -3
c8 -1 17 -2 26 -2c8 0 14 -7 14 -15c-1 -3 -2 -5 -3 -7c-2 -5 -6 -8 -11 -8c-41 0 -82 -6 -121 -19c-38 -13 -75 -32 -110 -55c-34 -23 -65 -50 -94 -80c-29 -29 -54 -62 -77 -97c-23 -34 -43 -71 -59 -109c-17 -38 -30 -77 -40 -117c-8 -34 -12 -70 -12 -105v-18
c1 -20 4 -41 10 -60c5 -20 13 -39 24 -56c21 -35 54 -62 92 -77c24 -10 51 -14 77 -14c15 0 30 1 45 4c40 6 80 21 117 40c37 20 72 43 105 69c66 51 125 112 177 179c25 33 49 68 70 105c21 36 40 74 54 114c0 1 2 2 3 2h2c2 0 3 -3 3 -5c-14 -40 -32 -79 -53 -116
s-44 -73 -70 -107c-25 -34 -53 -67 -82 -98c-30 -30 -61 -59 -95 -86c-34 -26 -69 -50 -107 -70c-39 -19 -79 -35 -122 -42c-15 -2 -31 -4 -47 -4c-6 0 -12 0 -18 1c-22 2 -44 6 -64 14c-21 8 -40 19 -57 33s-32 30 -44 49c-6 9 -11 19 -16 29s-9 20 -12 30
c-7 21 -11 43 -13 65c-2 14 -2 29 -2 43c0 29 3 58 8 86c4 22 10 43 16 64c6 20 14 41 22 61c17 39 38 77 62 114c24 36 51 70 81 101s64 59 100 82c37 24 77 43 118 56c22 6 44 11 66 14c-17 8 -32 19 -44 33c-12 16 -20 35 -23 55c-1 6 -1 13 -1 19c0 13 1 26 4 38
c8 37 24 72 44 103c20 32 44 61 71 86c27 26 58 48 92 63z" />
    <glyph glyph-name="F" unicode="F" horiz-adv-x="617" 
d="M505 763c1 7 2 13 2 19c1 2 1 3 1 5c0 1 0 3 -1 4v6c-2 3 -3 7 -3 10c0 5 2 10 7 14c3 2 6 3 10 3c5 0 11 -3 14 -8c2 -1 2 -3 3 -5l1 -5c1 -3 1 -6 1 -8v-7c0 -4 0 -8 -1 -12c-1 -7 -2 -15 -4 -22c-2 -10 -5 -21 -8 -32c48 5 95 8 142 12l72 4l72 3h36c12 0 24 0 36 -1
c13 0 25 -1 38 -4c4 -1 7 -2 11 -3c4 -2 8 -3 13 -8l2 -2c0 -1 1 -2 2 -3c1 -2 2 -4 3 -7v-8c0 -2 -1 -4 -2 -6c-1 -4 -3 -6 -5 -8c-1 -2 -3 -4 -4 -5c-3 -3 -7 -5 -11 -5c-5 0 -10 2 -13 6c-3 3 -5 7 -5 12c0 2 1 5 2 7c-10 3 -22 5 -33 6c-23 3 -47 4 -70 5
c-24 1 -48 1 -72 1c-11 -1 -23 -1 -35 -1l-36 -1c-49 -2 -98 -5 -147 -8c-7 -25 -15 -50 -24 -74c-8 -27 -18 -53 -27 -79s-19 -52 -28 -78l-29 -78l-29 -77c-7 -17 -13 -34 -20 -51h5l121 11c20 1 40 3 60 4c11 0 21 1 31 1c6 0 11 0 17 -1c3 0 6 0 10 -2h1c1 -1 2 -1 2 -1
c1 -1 2 -1 3 -2h1c0 -1 1 -1 1 -2l1 -1s1 0 1 -1s1 -1 1 -2c1 -2 2 -5 2 -7v-3c-1 -1 -1 -2 -1 -3s-1 -1 -1 -2s-1 -1 -1 -2c-2 -4 -7 -6 -11 -6c-3 0 -6 1 -9 3c-2 1 -3 3 -4 6c-4 1 -9 1 -14 2c-9 1 -19 1 -29 2c-20 0 -40 0 -60 -1c-20 0 -40 -1 -60 -2s-40 -3 -60 -5
c-4 0 -8 0 -12 -1c-12 -30 -23 -59 -34 -89l-120 -310c-39 -103 -79 -206 -117 -310c-3 -7 -9 -11 -16 -11c-2 0 -4 0 -6 1c-7 3 -11 9 -11 16c0 2 0 4 1 6v1h1c45 101 89 202 131 304c11 27 22 53 33 80c2 7 5 14 7 21c7 22 15 45 22 68c7 22 13 45 19 68
c12 46 23 93 31 140c0 3 1 6 1 10c-16 -2 -33 -4 -50 -6c-40 -5 -80 -11 -119 -18h-4c-6 0 -11 4 -13 11v2c0 7 5 13 11 15h3c40 1 80 4 120 7c18 1 37 3 55 4c5 39 9 77 9 116c0 24 -2 48 -5 71c-4 23 -10 46 -18 68c-9 21 -21 41 -37 58s-35 30 -56 38
c-21 9 -44 14 -67 16c-11 1 -23 1 -35 1h-36c-12 0 -24 0 -36 1c-3 0 -6 0 -10 1c-1 0 -2 1 -3 1s-2 1 -4 2c-1 0 -1 0 -2 1l-2 2c-1 1 -2 3 -2 4v6c1 2 1 2 2 3s1 2 2 2l2 2c2 1 4 2 6 2c1 1 3 2 5 2l9 3c24 5 47 9 71 12c24 4 47 7 71 10s48 5 71 8c48 5 95 9 143 14
c38 3 76 7 114 10c3 14 5 27 7 40zM343 252l2 6c-11 -1 -22 -2 -32 -3h-2c0 -5 -1 -9 -2 -13c-8 -47 -19 -93 -31 -140c-6 -22 -13 -45 -20 -68c19 47 37 94 55 141c10 26 20 51 30 77zM477 644c6 21 12 43 17 65c-36 -3 -73 -6 -109 -10c-95 -10 -189 -22 -283 -37
c-12 -1 -24 -3 -35 -6h30c12 0 25 -1 37 -2c24 -2 49 -9 71 -19c23 -10 43 -25 60 -44c16 -19 28 -41 37 -63c8 -23 14 -47 17 -71s4 -48 4 -72c0 -39 -4 -77 -9 -115l36 3l22 57c9 26 18 52 28 78l27 78c9 26 17 52 26 79c8 26 16 52 24 79z" />
    <glyph glyph-name="G" unicode="G" horiz-adv-x="701" 
d="M374 774c10 4 20 7 30 10s20 5 31 6c11 2 23 3 34 3c10 0 19 -1 29 -2s20 -3 31 -6c10 -3 19 -8 29 -13c18 -10 35 -24 48 -41c13 -16 22 -36 28 -56c4 -10 6 -20 8 -30c1 -6 1 -11 2 -16s1 -10 1 -16c1 -8 1 -15 1 -23c0 -13 -1 -26 -2 -39l-1 -8l-1 -7
c0 -6 -1 -11 -2 -16c-2 -10 -4 -20 -6 -31c-9 -40 -21 -80 -35 -119c-2 -7 -9 -12 -16 -12c-1 0 -3 0 -5 1c-7 2 -12 9 -12 17c0 1 0 3 1 5c1 1 1 1 1 2c19 36 35 73 46 112c3 9 5 19 8 29c1 5 2 9 3 14l1 8l1 7c2 10 3 20 4 30c0 10 1 20 1 30c0 5 -1 10 -1 15
c-1 5 -1 10 -2 15c-1 9 -3 19 -6 29c-3 9 -6 18 -11 27c-4 9 -9 18 -15 25c-12 16 -27 29 -45 38c-17 10 -36 15 -56 17c-7 1 -15 1 -22 1c-32 0 -64 -8 -94 -20c-37 -15 -70 -38 -101 -64c-30 -26 -58 -55 -82 -87l-18 -24c-6 -8 -12 -16 -17 -25c-11 -16 -22 -34 -31 -51
c-39 -70 -69 -146 -86 -224c-4 -19 -7 -39 -9 -59c-2 -19 -3 -39 -3 -59c1 -20 3 -39 8 -58s12 -37 22 -54c11 -16 25 -29 42 -39c16 -9 36 -14 55 -15c5 -1 11 -1 16 -1c15 0 29 2 43 5c20 4 38 11 56 21c36 18 66 45 94 74c28 30 52 62 79 94c6 8 13 16 21 23
c7 8 15 15 24 22c10 6 20 12 34 14c2 0 5 1 8 1c4 0 8 -1 12 -2c3 0 7 -2 10 -3l9 -6c6 -5 10 -11 13 -17s4 -12 5 -18c2 -7 3 -14 3 -22c0 -4 -1 -8 -1 -12c0 -10 -2 -21 -4 -32c-1 -10 -4 -20 -7 -30c-11 -41 -27 -79 -44 -116c-5 -10 -9 -19 -14 -28
c-4 -9 -9 -19 -14 -28c-8 -16 -16 -32 -25 -47c3 -3 7 -5 10 -7c5 -3 9 -6 13 -10l12 -9l6 -5l6 -6c4 -3 7 -7 11 -11c29 -30 53 -65 75 -102c1 -3 2 -5 2 -8c0 -6 -3 -12 -9 -15c-3 -2 -6 -2 -8 -2c-6 0 -12 3 -15 8c-1 2 -1 3 -2 5c-9 38 -28 74 -53 105
c-13 15 -28 29 -44 41l-9 6c-10 -17 -20 -34 -30 -50c-11 -18 -22 -35 -34 -52c-23 -34 -48 -67 -74 -99c-7 -8 -14 -15 -21 -23c-3 -4 -7 -8 -10 -12c-4 -3 -7 -7 -11 -11c-15 -15 -31 -28 -49 -41c-17 -12 -36 -23 -56 -31s-41 -13 -64 -14h-6c-20 0 -41 5 -59 15
c-20 10 -36 28 -45 48c-5 10 -9 21 -10 31c-1 8 -2 16 -2 24v9c1 21 7 42 15 61c17 39 41 73 71 102c8 7 16 14 24 20s16 12 25 18c17 11 36 21 55 29c19 9 38 15 58 20c11 2 21 4 31 5c10 2 20 3 31 3h14c16 0 32 -1 48 -4c5 0 10 -1 15 -2c5 -2 10 -3 15 -4
c10 -3 20 -6 29 -10c10 -4 19 -8 29 -13l1 -1c19 33 36 67 51 102c15 37 28 76 36 115c2 10 4 19 6 29c1 10 2 19 2 29v8c0 7 0 13 -1 19c-2 8 -5 16 -9 19c-1 1 -2 2 -3 2c-2 1 -3 2 -5 2c-3 1 -6 1 -10 1c-7 -1 -15 -4 -22 -9c-16 -10 -30 -25 -44 -39s-28 -29 -42 -44
s-28 -30 -43 -45c-30 -28 -62 -55 -99 -74c-18 -10 -38 -18 -58 -23c-17 -4 -35 -6 -52 -6h-11c-21 1 -42 6 -62 16c-19 10 -36 25 -48 42c-13 18 -22 38 -28 58c-6 21 -10 42 -11 63c-1 12 -2 25 -2 37c0 9 1 17 1 26c2 21 4 41 8 62c4 20 9 41 14 61c6 20 13 40 20 59
c15 39 33 77 54 113c10 18 21 35 33 52c6 9 12 17 19 25c6 9 12 17 19 25c27 32 57 61 90 86c16 13 34 25 52 35c9 6 18 10 27 15c10 5 19 9 29 12zM315 -300c53 59 102 123 143 193h-1c-9 5 -18 10 -27 14c-9 3 -19 7 -28 10c-5 1 -10 2 -15 4l-15 3c-20 3 -40 4 -60 4
l-30 -3c-10 -1 -20 -3 -30 -6c-19 -4 -39 -11 -57 -19c-37 -16 -71 -39 -100 -67c-28 -29 -52 -62 -66 -99c-7 -19 -12 -38 -12 -58c0 -9 1 -19 3 -28c2 -10 6 -18 10 -27c9 -16 23 -29 39 -37c15 -6 31 -9 47 -9h7c19 2 37 7 55 15c9 3 17 8 26 12c8 5 16 11 24 16
c8 6 16 12 23 18c8 7 15 13 22 20c4 3 8 7 11 10c4 4 7 8 10 11c7 8 14 15 21 23z" />
    <glyph glyph-name="H" unicode="H" horiz-adv-x="855" 
d="M466 646c3 13 4 27 6 40c1 14 2 27 2 40c0 14 -2 27 -5 38c-2 6 -4 11 -7 15s-6 6 -9 7c-7 2 -12 9 -12 17c0 1 0 3 1 5c2 7 9 12 17 12c1 0 3 0 5 -1c1 -1 2 -1 3 -2l2 -1c4 -2 8 -6 12 -10c3 -3 6 -7 8 -11c4 -9 6 -17 8 -24c1 -9 2 -18 2 -27c0 -6 -1 -12 -1 -18
c0 -7 -1 -14 -2 -22l-3 -21c-2 -14 -5 -27 -8 -41c-12 -55 -27 -108 -44 -161c-16 -53 -34 -106 -53 -158s-39 -104 -59 -156c-2 -5 -4 -11 -6 -17c34 1 68 1 102 2l90 1h123c11 26 21 52 31 78c36 91 74 182 109 274c18 46 36 92 53 138l26 70l24 69c2 7 9 12 17 12
c1 0 3 0 5 -1c7 -2 11 -9 11 -15c0 -2 0 -4 -1 -6v-3c-12 -22 -22 -44 -33 -66l-15 -34l-16 -33c-20 -45 -40 -90 -59 -136c-38 -90 -74 -182 -109 -274c-10 -24 -19 -48 -28 -73h44c15 0 30 -1 46 -2c8 0 15 -1 24 -2c2 0 4 0 6 -1c2 0 4 0 8 -2c1 0 2 0 3 -1l1 -1
s1 0 1 -1l3 -3c1 -1 1 -2 2 -3c0 -2 0 -3 1 -5c0 -1 -1 -3 -1 -4c0 -2 -1 -3 -1 -4c-2 -3 -4 -4 -5 -5c-3 -2 -4 -2 -5 -3c-2 -1 -3 -1 -4 -2c-1 0 -3 -1 -4 -1c-6 0 -12 4 -14 10c0 0 -1 1 -1 2c-5 1 -11 2 -16 2c-15 2 -30 3 -45 5l-45 3h-5c-6 -16 -12 -31 -17 -47
c-17 -46 -34 -92 -50 -139c-15 -47 -31 -93 -44 -140c-7 -24 -14 -47 -19 -71c-2 -12 -5 -24 -6 -35v-6c5 -1 9 -4 12 -9c1 -2 2 -5 2 -7c0 -6 -4 -12 -9 -15c-1 -1 -3 -1 -4 -2c-1 0 -2 -1 -2 -1c-1 0 -2 -1 -3 -1c-3 0 -4 -1 -8 -1c-3 1 -7 2 -10 4c-1 1 -3 2 -4 3
c-1 2 -2 2 -2 4c-1 0 -1 1 -1 1l-1 2c0 1 -1 1 -1 2c0 2 -1 3 -1 5v15c0 4 1 7 1 11c3 13 6 25 9 37c4 12 7 24 11 36s8 23 12 35c16 47 33 93 51 139c17 47 35 92 53 138c5 14 11 29 17 43c-9 0 -18 0 -26 1l-45 1l-46 1c-30 1 -60 1 -90 1c-36 0 -72 -1 -107 -1l-51 -126
c-21 -51 -42 -102 -64 -153s-43 -102 -66 -153l-33 -76c-11 -26 -23 -51 -34 -76v-1c-3 -5 -8 -7 -13 -7c-2 0 -4 0 -6 1c-5 3 -8 7 -8 12c0 3 1 5 2 7c17 35 33 69 50 104c2 6 5 12 7 18c6 14 11 28 16 42c10 29 19 57 26 86c7 30 13 59 16 89c1 15 2 30 2 44
c-1 15 -2 30 -5 45c-3 14 -7 28 -13 41c-7 13 -15 24 -24 34c-20 20 -46 31 -74 36c-7 1 -15 2 -23 4c-2 0 -4 0 -6 1c-2 0 -4 1 -7 2c-1 1 -2 1 -5 3c-1 0 -1 1 -1 1c-1 0 -2 1 -2 2c-1 1 -2 4 -2 8c0 1 1 3 1 4s1 2 2 2c0 1 1 1 1 2c0 0 1 0 1 1c3 2 4 2 6 2c1 1 2 1 3 2
c5 1 9 1 13 2c3 0 7 1 11 1c8 1 16 2 23 2c31 2 61 3 91 3c30 1 61 1 91 2h61l9 24c21 51 41 103 59 155c19 52 37 104 53 157c9 26 16 53 23 79c4 14 7 27 10 40c3 14 6 27 8 41zM250 20c17 39 33 79 49 118c-18 0 -37 -1 -56 -2c-30 -1 -60 -3 -90 -5l-87 -6
c10 -3 20 -7 30 -11c14 -8 28 -18 39 -30c10 -12 19 -27 24 -41c6 -15 10 -31 12 -46c2 -14 3 -29 3 -43c0 -17 -1 -33 -3 -49c-3 -31 -8 -61 -15 -90c-1 -7 -3 -13 -4 -20c11 24 22 49 32 73c23 50 45 101 66 152zM873 -418l-1 1h1v-1z" />
    <glyph glyph-name="I" unicode="I" horiz-adv-x="373" 
d="M62 293v5c23 79 48 156 80 230c17 38 35 74 56 109c21 34 45 67 72 97c14 15 30 29 47 41c8 6 18 11 27 15c5 2 10 4 16 5c5 1 10 2 16 2c11 0 23 -3 32 -9c5 -3 10 -8 13 -12c3 -5 6 -10 8 -15c4 -11 5 -21 6 -32c1 -5 1 -10 1 -15c0 -6 0 -11 -1 -16
c-2 -20 -5 -41 -9 -61s-8 -39 -13 -59c-11 -39 -23 -78 -36 -116c-26 -77 -57 -152 -89 -226c-31 -74 -65 -147 -99 -220c-33 -73 -66 -147 -97 -221c-8 -19 -15 -37 -22 -56c-4 -9 -7 -19 -11 -28c-3 -10 -6 -19 -9 -29c-3 -9 -6 -19 -9 -28c-2 -10 -5 -19 -7 -29
s-3 -19 -4 -28c0 -4 0 -9 1 -12v-2c5 -3 7 -8 7 -13c0 -4 -1 -7 -3 -10c-4 -4 -9 -7 -14 -7c-3 0 -7 2 -10 4l-3 3c-2 1 -2 2 -3 4c-1 1 -1 2 -2 3s-1 3 -1 4c-1 1 -1 2 -1 3l-1 3v5c0 7 0 13 1 18c2 11 5 21 8 31s7 20 10 30c4 9 7 19 11 28c8 19 15 38 23 57
c8 18 16 37 23 55l96 223c31 74 62 148 94 222c31 74 61 148 90 223c14 38 27 76 39 114c6 19 11 38 15 58c5 19 9 39 10 58c1 10 1 20 1 29c0 5 -1 10 -2 15c-1 4 -2 9 -3 13c-3 8 -8 16 -15 21s-16 7 -25 7c-4 0 -9 0 -13 -1c-5 -1 -10 -3 -14 -5c-9 -3 -17 -8 -25 -13
c-17 -11 -31 -24 -45 -38c-28 -29 -51 -62 -71 -96c-5 -9 -10 -18 -15 -26c-5 -9 -9 -18 -14 -27c-9 -18 -17 -36 -24 -55c-31 -74 -52 -152 -60 -231c0 -9 -8 -15 -16 -15h-2c-8 0 -15 8 -15 16z" />
    <glyph glyph-name="J" unicode="J" horiz-adv-x="809" 
d="M413 394v5c4 17 8 34 13 51c4 17 9 34 15 50c5 17 11 33 17 49s13 32 21 48c15 31 33 61 54 88c20 28 44 54 71 75c14 11 28 21 44 29c16 7 34 13 52 13c9 0 18 -1 27 -4s17 -8 24 -14c7 -7 13 -14 17 -22c5 -8 8 -17 11 -25c2 -9 5 -17 6 -26c2 -8 3 -17 4 -26
c3 -17 4 -35 4 -52v-18c0 -29 -2 -57 -5 -86c-2 -17 -4 -34 -7 -51l-9 -51c-7 -34 -15 -68 -24 -101c-17 -67 -39 -133 -64 -197c-6 -17 -13 -33 -19 -49c10 -10 19 -21 28 -33c11 -14 21 -29 31 -44c2 -3 3 -6 3 -10c0 -5 -3 -11 -8 -14c-3 -2 -6 -3 -10 -3
c-5 0 -11 3 -14 8c-1 2 -1 3 -2 5c-8 26 -20 50 -37 72c-17 -41 -37 -81 -58 -121c-4 -7 -8 -15 -13 -22c-4 -8 -8 -15 -12 -23c-9 -15 -18 -30 -27 -44c-19 -30 -39 -58 -60 -86c-5 -7 -10 -13 -16 -20c-5 -7 -11 -14 -16 -20c-11 -13 -23 -27 -35 -39
c-24 -26 -50 -49 -79 -69c-28 -21 -60 -38 -93 -50c-17 -5 -34 -10 -52 -12c-8 -1 -17 -2 -26 -2s-18 1 -27 2s-18 3 -26 6c-9 2 -17 6 -25 10c-16 8 -30 20 -42 33c-12 14 -22 29 -28 46c-2 4 -3 8 -5 12c-1 5 -2 9 -3 13c-3 9 -4 18 -5 26c-2 11 -2 22 -2 33
c0 25 3 49 8 72c4 17 9 34 15 51c5 16 12 33 19 49c30 63 75 120 129 164c55 44 119 76 188 91c27 6 55 10 83 10c7 0 14 -1 21 -1c35 -2 70 -10 102 -24c24 -11 47 -25 67 -42c5 12 11 25 15 37c26 63 48 127 67 193c19 65 34 131 44 198c4 34 8 67 10 101c0 17 0 34 -1 51
c-1 16 -3 33 -8 49c-2 8 -5 15 -9 22c-3 8 -8 14 -13 19c-6 6 -13 10 -20 12c-7 3 -15 4 -23 4c-16 0 -32 -4 -47 -11s-30 -16 -43 -26c-27 -21 -50 -46 -70 -73c-10 -14 -20 -28 -28 -43c-9 -14 -17 -29 -24 -45c-7 -15 -13 -31 -19 -47c-5 -16 -9 -32 -13 -49
c-4 -16 -6 -33 -8 -50c-1 -12 -1 -24 -1 -35v-17c0 -9 -8 -16 -16 -16h-2c-8 0 -15 7 -16 16zM568 -44c16 30 31 61 45 92c6 13 13 27 19 41c-8 7 -15 13 -23 19c-14 10 -28 18 -44 25c-30 13 -63 20 -97 22h-10c-30 0 -60 -4 -89 -11c-65 -17 -125 -50 -176 -93
s-94 -96 -124 -156c-8 -14 -15 -30 -21 -45c-6 -16 -11 -32 -16 -48c-6 -24 -10 -50 -10 -75c0 -8 0 -16 1 -24s2 -16 4 -24l3 -12c1 -4 2 -8 4 -12c6 -15 15 -29 25 -42c11 -12 24 -22 38 -29c15 -7 31 -12 47 -14c6 -1 13 -1 19 -1c27 0 53 6 78 16c31 12 59 29 86 50
c26 20 50 44 72 69s43 52 63 80c5 6 9 13 14 20s10 14 14 21c5 7 9 15 14 22l14 21c8 15 17 29 25 44c5 7 9 15 13 22c4 8 8 15 12 22z" />
    <glyph glyph-name="K" unicode="K" horiz-adv-x="510" 
d="M334 170c38 28 75 57 111 88c17 15 35 31 52 47c18 16 35 32 52 48s34 33 50 49c17 17 33 34 50 51c16 17 32 34 48 52c15 17 31 35 46 53c30 36 58 74 82 114l9 15c2 5 5 10 8 15c2 6 5 11 7 16c1 3 3 5 4 8l3 8c4 10 8 21 11 32c2 9 3 18 3 26v5c0 10 7 18 16 18h2
c9 0 16 -7 16 -16v-4c-2 -14 -7 -26 -11 -37c-2 -6 -5 -12 -8 -18c-2 -5 -5 -11 -8 -16l-4 -8c-2 -3 -3 -5 -5 -8c-3 -5 -6 -10 -9 -16c-6 -10 -13 -20 -19 -30c-27 -39 -56 -77 -86 -114c-30 -36 -61 -72 -93 -107c-33 -34 -66 -67 -101 -100c-35 -32 -71 -63 -107 -93
c-37 -30 -75 -58 -113 -86c-20 -13 -39 -27 -59 -39c-20 -13 -40 -25 -61 -37l-30 -15c4 -11 9 -21 13 -32c17 -44 34 -89 50 -133s32 -88 50 -131c19 -44 39 -86 65 -125c6 -9 13 -18 20 -27c8 -9 15 -18 24 -25c4 -4 8 -8 13 -12l7 -5c1 0 2 -1 3 -2l4 -2c2 -2 4 -4 7 -5
l7 -4c2 -1 5 -2 7 -4l4 -1c2 -1 3 -1 4 -2c14 -5 28 -8 43 -8c7 0 14 1 21 2c22 3 43 11 61 23h1c3 2 6 2 9 2c6 0 13 -3 16 -9c2 -3 2 -6 2 -9c0 -6 -3 -12 -8 -16c-1 0 -3 -1 -4 -1c-6 -2 -12 -5 -18 -6l-9 -3l-5 -1l-4 -1l-10 -2c-3 -1 -6 -1 -9 -2c-6 -1 -13 -1 -19 -1
h-19l-10 1l-9 1c-13 3 -25 6 -36 12c-12 5 -23 11 -33 19l-3 2c-2 1 -3 2 -4 3l-14 12c-2 2 -5 4 -7 7c-17 17 -32 36 -45 56c-27 39 -49 82 -69 125c-19 44 -36 88 -51 133c-16 44 -30 89 -46 133c-4 11 -8 21 -12 32c-1 -1 -1 -1 -2 -1c-7 -17 -13 -34 -19 -52l-49 -130
c-16 -43 -32 -86 -48 -130c-2 -7 -8 -11 -15 -11c-2 0 -4 0 -6 1c-7 2 -11 9 -11 16c0 2 0 4 1 6v1c40 84 77 168 112 253c6 13 11 25 16 38c-22 -9 -45 -16 -70 -20c-6 -1 -12 -2 -18 -2h-5l-5 1c-3 0 -6 1 -10 1c-3 1 -6 2 -10 3c-1 1 -3 2 -4 3c-2 1 -3 1 -5 2
c-3 2 -6 4 -8 7c-2 1 -3 2 -4 4l-4 4c-1 1 -2 3 -3 5c0 1 -2 3 -2 4c-2 3 -3 7 -4 10c-2 7 -3 14 -4 21c0 14 3 27 7 39c5 13 13 25 22 34c10 10 22 17 36 21c2 0 4 0 5 1h21c2 -1 3 -1 5 -1c2 -1 3 -1 5 -2l5 -1c1 -1 3 -2 4 -2l5 -3c1 -1 3 -2 4 -3c1 0 3 -1 4 -2
c5 -5 10 -9 14 -14c16 -19 27 -40 38 -62v-1c6 14 12 29 18 44c8 21 16 43 24 65l24 64l12 33l12 32l24 65c16 43 32 87 47 130c15 44 29 88 42 132c6 22 11 45 15 67c2 11 3 23 4 34v16c0 2 -1 5 -1 7l-1 1v2s-1 1 -1 2c-1 2 -2 5 -2 7c0 7 4 13 11 15c2 1 4 2 7 2
c6 0 12 -4 15 -10c1 -2 1 -3 1 -5c1 -2 1 -4 1 -7v-5c0 -4 -1 -7 -1 -11l-3 -18l-3 -9c0 -3 -1 -6 -2 -8c-1 -6 -3 -12 -5 -17c-6 -23 -13 -45 -20 -67c-13 -45 -28 -89 -43 -132c-15 -44 -30 -88 -45 -131l-24 -65l-12 -33l-13 -32l-12 -33l-39 -96c-7 -19 -15 -38 -22 -56
c1 -3 2 -5 4 -8c10 5 19 10 29 15c41 23 81 49 118 77zM153 63c2 1 5 2 7 3c3 7 6 13 8 19c-2 5 -4 9 -6 13c-5 11 -10 21 -16 31s-12 20 -20 28c-3 4 -8 7 -12 11c-1 0 -2 1 -3 2c-1 0 -2 1 -3 1l-4 2c-1 0 -2 0 -4 1c-4 1 -8 1 -12 1c-6 0 -12 -1 -17 -3l-3 -1
c-1 -1 -2 -1 -3 -2c-2 -1 -4 -3 -6 -4l-3 -3c-1 0 -2 -1 -2 -2l-3 -3c-1 -1 -2 -1 -2 -3c-7 -7 -12 -16 -15 -26c-4 -9 -6 -19 -7 -29c0 -5 0 -10 1 -15c1 -2 1 -4 2 -6c0 -1 1 -2 1 -4c1 -1 1 -2 2 -3l1 -3c1 -1 2 -1 2 -2c1 -2 3 -4 5 -6c1 0 2 -1 3 -2c1 0 2 -1 3 -2
l3 -2s1 0 2 -1h1c10 -4 21 -5 32 -5c12 0 23 2 34 4l9 3c3 0 5 1 8 2c6 2 11 4 17 6z" />
    <glyph glyph-name="L" unicode="L" horiz-adv-x="589" 
d="M825 735c1 -5 1 -10 1 -16c0 -17 -4 -34 -9 -49c-6 -20 -15 -39 -26 -57s-23 -35 -36 -51c-14 -15 -28 -30 -44 -43c-31 -27 -65 -49 -100 -70c-35 -20 -71 -37 -107 -54c-21 -75 -41 -151 -62 -227c-11 -38 -23 -76 -35 -115c-12 -38 -24 -76 -37 -114
c-8 -21 -15 -43 -24 -64c4 -3 7 -5 10 -8c16 -13 31 -26 46 -40c29 -28 56 -58 82 -88c27 -30 52 -60 80 -89c14 -14 28 -27 43 -40c15 -12 31 -24 48 -33c17 -8 35 -14 52 -14s31 7 43 19c4 4 9 6 14 6s10 -2 13 -5c4 -4 6 -9 6 -15c0 -4 -2 -9 -5 -13c-1 -1 -3 -2 -4 -3
h-1c-10 -6 -21 -11 -33 -14c-7 -2 -15 -3 -22 -3c-4 0 -9 0 -13 1c-23 2 -43 12 -61 23c-17 11 -33 24 -48 38c-16 13 -30 27 -44 41c-29 29 -56 57 -84 86c-28 28 -56 57 -84 84c-14 14 -29 27 -44 39l-3 3c-3 -8 -6 -16 -10 -23c-15 -37 -32 -74 -51 -110
c-20 -35 -42 -70 -71 -100c-14 -15 -31 -28 -50 -38c-18 -9 -38 -15 -57 -15h-5c-11 1 -22 3 -33 7c-10 4 -19 11 -27 19s-14 17 -18 27c-5 10 -8 20 -10 30c-2 12 -3 25 -3 37c0 8 0 17 1 25c1 21 6 41 12 60c6 20 15 39 25 56c10 18 22 35 36 50s30 28 49 38
c18 10 39 17 60 19c5 1 11 1 16 1c16 0 31 -2 47 -7c20 -5 39 -14 57 -24c6 -3 11 -6 16 -10c7 19 13 38 20 57l36 114l34 114c21 69 43 137 65 205c-27 -12 -54 -25 -81 -37c-37 -17 -72 -34 -107 -53s-69 -40 -99 -64c-15 -13 -29 -26 -42 -41c-12 -15 -23 -32 -31 -49
c-7 -17 -12 -36 -14 -55c-1 -6 -1 -12 -1 -18c0 -12 2 -25 5 -38v-4c0 -7 -5 -15 -14 -17h-4c-7 0 -15 5 -17 13v5c0 21 2 43 7 63c5 21 12 41 22 59s22 35 36 50c13 16 28 30 44 43c31 26 65 47 100 67c35 19 71 37 107 54c33 16 66 32 98 48l19 54c7 19 13 38 20 56
c7 19 15 38 22 56c7 19 15 38 23 56c17 36 34 73 57 107c6 8 12 17 18 25c7 8 15 15 23 22c17 14 36 24 59 28c5 1 10 1 15 1c7 0 13 0 20 -2c11 -2 23 -7 32 -15c10 -7 17 -17 23 -28c5 -10 8 -22 9 -33zM253 -271c23 45 42 92 59 139c-6 5 -12 9 -19 13
c-16 11 -33 19 -51 25c-9 3 -18 5 -27 6c-6 1 -11 2 -17 2c-4 0 -8 -1 -12 -1c-18 -1 -37 -6 -54 -14c-17 -9 -32 -21 -45 -34c-27 -28 -46 -63 -58 -100c-5 -19 -9 -38 -11 -57c-1 -6 -1 -13 -1 -19c0 -13 1 -26 4 -38c4 -19 12 -36 24 -49c13 -13 30 -19 48 -19
s36 5 53 14c16 9 30 21 43 35c26 29 46 62 64 97zM796 705c1 5 1 9 1 14c0 4 0 9 -1 13c-2 17 -9 32 -21 42c-11 9 -25 13 -40 13h-5c-17 -2 -34 -10 -49 -21c-8 -5 -15 -11 -21 -18c-7 -7 -13 -14 -19 -22c-12 -15 -23 -32 -32 -49c-10 -17 -18 -35 -26 -53
c-29 -65 -51 -134 -71 -202c30 15 59 31 87 48c67 41 129 91 167 158c10 16 18 33 24 51c3 9 5 18 6 26z" />
    <glyph glyph-name="M" unicode="M" horiz-adv-x="1095" 
d="M355 464c0 2 1 4 1 7v10c0 1 -1 2 -1 3c0 2 0 3 -1 4v6c0 8 5 15 14 17h2c7 0 15 -6 17 -14c0 -4 1 -8 1 -11v-9c0 -4 -1 -6 -1 -9s-1 -6 -1 -9c-2 -11 -5 -21 -7 -32c-6 -20 -12 -40 -19 -60c-6 -20 -13 -40 -21 -60c-7 -20 -14 -39 -21 -59l-23 -59l-69 -174
c-27 -67 -54 -134 -81 -200l12 27c45 97 91 192 139 287c24 47 49 94 74 141s51 94 78 139c13 23 27 46 41 68c14 23 29 45 44 67s30 44 46 65s33 42 50 63c9 10 17 20 27 29c9 10 18 20 28 29c19 18 40 35 64 48c12 7 25 12 38 15c6 1 11 2 17 2c8 0 17 -2 25 -4
c6 -2 13 -5 19 -9c6 -5 11 -10 15 -16s7 -12 10 -19c2 -6 4 -13 6 -20c3 -13 4 -27 4 -40v-12c0 -10 0 -19 -1 -29c-2 -27 -5 -53 -10 -80c-10 -52 -24 -104 -39 -155c-16 -51 -34 -101 -54 -150c-6 -16 -12 -32 -19 -48l6 9c10 16 20 31 31 47l31 46c21 30 41 61 63 91
c22 29 45 59 73 84c7 6 14 13 22 18c9 5 18 10 28 13c5 2 11 3 16 3c6 0 12 -2 18 -4c1 -1 2 -1 4 -2c1 -1 3 -2 4 -3c3 -2 5 -4 7 -7c4 -5 6 -10 8 -15c4 -11 5 -21 6 -31v-29c-1 -19 -4 -37 -7 -56c-1 -9 -3 -18 -4 -28l-6 -27c-4 -18 -8 -36 -13 -54
c-9 -36 -19 -72 -30 -107c-10 -35 -22 -70 -33 -105c-24 -70 -48 -139 -65 -210c-9 -36 -16 -72 -17 -108v-8c0 -6 0 -13 1 -19c0 -9 2 -17 5 -25c3 -7 7 -14 11 -17c3 -1 5 -2 8 -2c2 0 5 0 8 1c2 1 3 1 5 1c7 0 15 -6 17 -13v-4c0 -8 -4 -14 -12 -17c-2 -1 -4 -1 -6 -1
l-2 1c-6 0 -13 1 -19 4c-6 2 -12 6 -16 11c-5 4 -8 10 -10 15c-3 5 -4 10 -5 16c-2 10 -3 20 -3 29c0 10 1 19 2 29c2 18 4 37 8 55c3 18 6 37 10 55s7 36 11 54s9 36 13 54c8 36 17 72 26 108c9 35 18 71 29 106l30 106c5 18 10 35 14 53c3 9 5 17 7 26l6 27
c4 17 7 35 9 53c1 8 2 17 2 26c0 8 0 17 -2 24c-1 3 -3 6 -4 9l-4 4c-1 0 -2 1 -2 1c-4 2 -8 3 -13 3c-2 0 -5 0 -7 -1c-8 -2 -16 -5 -23 -9c-8 -5 -15 -10 -22 -15c-14 -11 -27 -24 -39 -37c-13 -13 -25 -27 -36 -42c-23 -28 -45 -58 -64 -89c-10 -16 -19 -32 -28 -47
c-9 -16 -18 -32 -27 -49c-24 -40 -47 -81 -70 -123c-38 -91 -77 -181 -117 -271c-2 -7 -8 -11 -15 -11c-2 0 -5 1 -7 2c-6 3 -10 10 -10 16c0 2 0 4 1 6l1 1v1l3 6c6 13 13 26 19 40c8 16 16 33 24 50c16 33 33 66 49 98c1 1 1 2 2 3l39 90c40 97 76 197 109 297
c9 25 17 50 24 75c7 26 14 51 20 77c6 25 11 51 14 77c2 15 3 29 3 43c0 12 -1 23 -3 34c-2 13 -5 25 -12 35c-7 11 -16 18 -28 22c-7 2 -15 4 -22 4c-5 0 -10 -1 -15 -2c-6 -1 -12 -3 -18 -5s-12 -5 -18 -8c-11 -6 -22 -14 -33 -22c-10 -8 -20 -16 -29 -25
c-10 -10 -19 -19 -28 -29s-17 -20 -26 -30c-33 -41 -63 -84 -92 -129c-14 -22 -28 -44 -42 -67c-13 -23 -27 -45 -40 -68c-53 -92 -104 -185 -152 -279c-48 -95 -95 -190 -140 -285l-69 -144l-34 -72c-2 -4 -5 -9 -7 -14c-8 -19 -15 -38 -23 -57c-2 -7 -9 -11 -16 -11
c-2 0 -4 0 -6 1c-7 3 -11 9 -11 15c0 3 1 5 2 7v2c37 74 72 150 106 227c34 76 67 153 98 230c16 39 31 77 46 116s29 79 43 118c7 20 13 39 19 59c7 20 13 40 18 60c6 20 11 40 15 60c2 10 3 20 4 30z" />
    <glyph glyph-name="N" unicode="N" horiz-adv-x="909" 
d="M237 229l52 131l52 132c16 45 33 89 50 133c2 8 9 12 17 12c2 0 4 0 6 -1c7 -2 12 -10 12 -18c0 -1 0 -3 -1 -5c0 -1 -1 -2 -1 -2c-21 -43 -40 -85 -60 -128l-29 -65l-28 -65c-10 -21 -19 -43 -28 -65c-10 -21 -19 -43 -28 -65c-18 -43 -36 -87 -53 -131
c-9 -22 -17 -44 -26 -66c-8 -22 -17 -44 -25 -66l-25 -66c-8 -22 -16 -45 -23 -67c-16 -44 -31 -89 -44 -134c-6 -23 -13 -45 -17 -68c-1 -3 -2 -6 -2 -10c21 37 42 73 63 110c14 25 28 49 42 74l42 74c55 99 110 197 168 295c57 97 118 192 184 285c32 46 66 92 101 136
l54 66c19 21 38 42 59 62c20 20 41 39 66 55c12 8 25 15 39 20c7 3 15 5 22 6h7c6 0 12 0 18 -1c8 -2 15 -5 23 -9c7 -5 13 -11 18 -18c4 -7 8 -15 10 -22c3 -8 4 -15 5 -23c1 -7 1 -15 1 -22c0 -23 -3 -45 -7 -66c-11 -57 -29 -112 -49 -165c-21 -53 -43 -105 -66 -157
c-47 -103 -97 -204 -139 -309c-6 -13 -11 -26 -16 -39s-10 -26 -14 -40c-10 -26 -18 -53 -25 -80c-6 -27 -11 -55 -11 -82c0 -13 2 -26 6 -38c3 -11 10 -20 18 -24c6 -4 10 -10 10 -17c0 -2 -1 -5 -2 -8c-3 -6 -10 -10 -16 -10c-3 0 -6 1 -9 2c-1 1 -2 1 -4 2l-1 2
c-7 6 -13 14 -17 22s-6 16 -8 24c-1 8 -2 16 -2 24s1 15 1 22c3 30 10 58 18 86c15 55 35 108 55 161s42 105 63 158l64 157c22 52 43 104 63 156c10 26 20 53 29 79s17 53 23 80c4 13 6 27 8 40c1 10 2 20 2 29v11c0 12 -3 25 -9 35c-3 5 -7 9 -11 12c-5 4 -10 6 -16 8
c-4 1 -9 2 -14 2c-7 0 -15 -2 -23 -4c-12 -4 -25 -10 -36 -17c-24 -14 -46 -32 -66 -51c-41 -38 -78 -81 -112 -126c-35 -44 -68 -90 -99 -137c-63 -94 -123 -189 -182 -286c-58 -96 -116 -193 -170 -292c-14 -25 -27 -50 -40 -75c-14 -25 -27 -50 -39 -75
c-7 -13 -13 -25 -19 -38s-12 -26 -18 -38c-12 -26 -24 -52 -35 -78v-1c-2 -2 -4 -4 -6 -5c-2 -2 -4 -3 -8 -4c-2 -1 -4 -1 -6 -1h-5c-2 1 -3 1 -5 2c-3 1 -6 4 -7 6c-2 2 -3 4 -4 6c-1 3 -2 6 -2 8v12c1 4 1 7 2 10c2 13 5 25 8 36c7 23 14 46 22 68c16 45 32 89 49 134
l52 132l52 131z" />
    <glyph glyph-name="O" unicode="O" horiz-adv-x="829" 
d="M266 -442c-12 -2 -25 -3 -38 -3c-9 0 -18 0 -27 1c-22 2 -44 7 -64 16s-39 22 -55 37c-16 16 -29 34 -39 54c-9 20 -16 41 -21 62c-5 22 -8 44 -9 65c0 11 -1 22 -1 33s1 22 1 32l3 33l2 16c1 5 2 10 2 16c1 4 2 9 3 13c-4 7 -8 15 -10 22c-4 11 -7 22 -9 33
c-2 12 -2 24 -2 36c0 10 0 20 1 30c0 11 2 22 3 32c2 11 4 22 6 32c9 43 23 83 38 123c8 20 17 40 25 60c9 19 19 39 29 58c20 38 41 75 64 111c12 18 24 36 37 53c12 18 25 35 38 52c14 17 28 33 42 49c15 16 30 32 45 47c31 30 64 58 101 82c18 12 37 23 57 33
c20 9 41 17 63 22c17 5 34 8 52 8c5 0 9 -1 14 -1c23 -1 45 -6 66 -15s40 -22 55 -39c15 -16 26 -35 35 -55c18 -40 26 -83 30 -126c2 -20 3 -40 3 -60c0 -23 -1 -46 -3 -69c-2 -21 -4 -42 -7 -64c-3 -21 -6 -42 -10 -63c-16 -84 -39 -167 -69 -248
c-15 -40 -32 -80 -50 -118c-19 -39 -40 -77 -63 -113c-23 -37 -48 -72 -75 -105c-28 -33 -58 -64 -91 -92s-69 -53 -109 -70c-10 -5 -20 -9 -31 -12c-10 -3 -21 -6 -32 -8zM93 -379c15 -15 31 -27 50 -35s39 -13 59 -16c8 -1 16 -1 24 -1c34 0 67 7 97 21
c38 18 72 43 103 71c31 29 58 61 83 94c25 34 48 69 70 105c43 73 80 148 112 226c32 79 59 159 78 241c5 21 9 42 13 63c3 20 6 41 8 62c2 26 4 52 4 77c0 17 -1 33 -2 50c-4 42 -13 84 -31 121c-9 19 -21 36 -35 50s-32 25 -50 32c-19 7 -39 10 -59 10s-40 -3 -59 -9
c-39 -12 -76 -32 -110 -55c-34 -24 -66 -50 -97 -79c-30 -29 -58 -60 -85 -92c-54 -65 -103 -135 -144 -208c-20 -37 -39 -75 -55 -114s-29 -79 -38 -120c-5 -21 -8 -42 -9 -62v-15c0 -16 1 -31 4 -46l6 -21l3 12c20 84 50 165 89 242c39 76 85 149 138 217
c26 34 54 66 83 98c14 15 29 31 45 46c15 15 31 30 47 46c3 3 7 4 11 4c5 0 9 -1 13 -5c3 -3 4 -8 4 -12s-1 -9 -5 -12l-3 -3c-10 -5 -19 -10 -27 -16c-9 -6 -18 -12 -26 -18c-17 -13 -33 -27 -48 -41c-15 -15 -30 -30 -43 -46c-14 -16 -28 -33 -40 -50
c-51 -67 -93 -141 -129 -218c-4 -10 -9 -19 -13 -29c-4 -9 -8 -19 -12 -29c-8 -19 -16 -39 -23 -59c-15 -39 -27 -80 -37 -120c-3 -13 -6 -26 -9 -38c0 -1 1 -1 1 -1c6 -7 13 -13 21 -18c8 -4 17 -8 26 -10c8 -2 12 -8 12 -16v-4c-2 -8 -9 -13 -16 -13h-4c-1 0 -2 1 -3 1
c-11 5 -22 11 -31 19c-4 3 -8 6 -11 9c-3 -17 -6 -35 -7 -53c-1 -15 -2 -31 -2 -46v-17c1 -21 3 -41 7 -62c4 -20 10 -40 18 -58c9 -19 20 -36 34 -50z" />
    <glyph glyph-name="P" unicode="P" horiz-adv-x="799" 
d="M206 551c5 22 12 44 23 64c11 19 24 37 39 54c30 32 66 57 104 77c39 19 80 33 121 42c38 9 76 13 115 13h13c42 -1 85 -8 126 -23c20 -7 39 -17 57 -29c9 -7 17 -13 25 -21c8 -7 16 -16 22 -24c13 -18 24 -37 30 -58c7 -21 10 -43 11 -65v-15c0 -38 -6 -77 -18 -113
c-14 -41 -33 -80 -57 -116c-11 -19 -24 -36 -37 -53c-14 -17 -28 -33 -43 -48c-59 -62 -128 -114 -201 -158c-37 -21 -75 -41 -113 -59c-10 -4 -20 -8 -30 -13c-9 -4 -19 -8 -29 -12c-20 -7 -40 -14 -61 -20c-20 -7 -41 -12 -62 -16c-12 -2 -24 -3 -36 -4l-49 -134l-28 -79
c-10 -26 -19 -52 -29 -78s-20 -52 -31 -78c-6 -14 -11 -26 -19 -40c-2 -3 -4 -6 -6 -10c-2 -2 -3 -4 -5 -6c-1 -1 -3 -2 -5 -3c0 -1 -1 -1 -1 -1c-1 -1 -1 -1 -2 -1c-1 -1 -2 -1 -3 -1c-1 -1 -2 -1 -3 -1h-4c-2 0 -3 1 -5 1c-1 1 -3 1 -4 2l-2 2c-3 4 -5 6 -5 8
c-1 1 -1 2 -1 3c-1 0 -1 1 -1 2s-1 3 -1 4c-1 5 -1 9 -1 13c0 9 7 17 16 17c5 0 9 -1 12 -4c5 8 10 17 14 26c12 25 23 50 35 76c10 25 21 51 32 77c10 25 20 51 30 77l30 78l19 49h-12c-11 1 -23 3 -34 6c-6 2 -11 4 -17 7l-15 12c-4 5 -8 11 -11 16c-3 6 -5 13 -6 19
s-2 12 -2 19c0 6 1 12 1 18c1 8 8 15 17 15h2c8 -1 15 -9 15 -17v-2c0 -1 -1 -2 -1 -3c-1 -4 -2 -9 -3 -13c-1 -5 -1 -9 -1 -13c1 -8 3 -16 8 -23c5 -6 12 -11 21 -15c4 -2 8 -3 13 -4l15 -3c5 -1 11 -1 17 -1l4 11l58 157c20 52 39 104 59 156c19 52 39 104 59 156
c10 26 20 52 31 78c10 26 21 52 32 78c11 25 22 51 35 76c6 13 12 26 20 38c3 6 7 13 11 19s9 12 15 18c3 4 8 6 13 6c4 0 8 -2 11 -5s5 -8 5 -12s-2 -8 -5 -11c0 -1 0 -1 -1 -1c-4 -4 -8 -9 -12 -14s-7 -10 -11 -16c-8 -11 -15 -23 -21 -35c-14 -24 -26 -49 -38 -73
c-24 -50 -46 -101 -68 -153c-21 -51 -42 -103 -62 -154c-20 -52 -40 -104 -59 -156l-58 -157l-2 -6c9 0 18 1 27 3c21 3 41 7 61 13s40 13 60 21c19 7 38 16 57 25c38 19 74 40 109 63c69 46 134 99 192 159c14 15 28 31 41 47c7 8 13 16 19 24s12 17 18 25
c23 34 43 71 57 109c14 39 22 80 22 121c0 20 -2 41 -7 60c-6 20 -15 38 -27 55c-11 16 -26 31 -43 43s-35 21 -54 29c-39 14 -81 21 -123 22h-9c-38 0 -77 -6 -114 -15c-41 -10 -80 -25 -116 -45c-18 -10 -35 -22 -51 -35l-12 -9l-22 -22c-3 -4 -7 -7 -10 -11l-4 -6
c-2 -2 -3 -4 -5 -6c-3 -4 -6 -9 -8 -13c-2 -2 -3 -4 -4 -6l-4 -7c-2 -4 -4 -9 -6 -13c-8 -18 -14 -37 -16 -57c-1 -8 -8 -14 -17 -14h-2c-8 1 -15 8 -15 16v2c1 1 1 1 1 2z" />
    <glyph glyph-name="Q" unicode="Q" horiz-adv-x="1028" 
d="M249 241c7 20 16 40 25 60c9 19 18 39 28 58c20 38 42 75 65 111c11 18 23 36 36 53c13 18 25 35 39 52c13 17 27 33 42 49c14 16 29 32 45 47c31 30 64 58 100 82c19 12 38 23 58 33c20 9 40 17 62 22c17 5 35 8 53 8c4 0 9 -1 14 -1c22 -1 45 -6 66 -15
c20 -9 39 -22 54 -39c15 -16 27 -35 36 -55c18 -40 26 -83 30 -126c1 -18 2 -36 2 -54c0 -25 -1 -50 -3 -75c-1 -21 -4 -42 -7 -64c-3 -21 -6 -42 -10 -63c-15 -84 -38 -167 -68 -248c-16 -40 -32 -80 -51 -118c-19 -39 -39 -77 -62 -113c-23 -37 -48 -72 -76 -105
c-24 -29 -50 -56 -78 -81c2 -1 4 -1 6 -2c17 -4 35 -8 52 -12c18 -5 35 -9 53 -14c17 -5 35 -10 52 -16c5 -2 9 -3 14 -5c4 -2 8 -4 13 -6c3 -2 5 -3 8 -6c1 0 2 -2 3 -3s3 -3 4 -7c0 -2 0 -5 -1 -7c0 -3 -1 -5 -3 -6v-1l-3 -3c-1 0 -1 0 -1 -1h-2l-1 -1h-1l-2 -1
c-1 0 -2 -1 -3 -1s-3 0 -4 -1h-11c-7 0 -13 6 -14 14c0 3 0 6 2 8c-2 1 -5 2 -7 4c-16 7 -33 13 -49 19c-17 6 -34 12 -51 17s-35 10 -52 15c-5 1 -10 3 -15 4c-33 -28 -69 -52 -109 -69c-10 -5 -20 -9 -30 -12c-11 -3 -21 -6 -32 -8c-13 -2 -26 -3 -39 -3c-9 0 -18 0 -27 1
c-21 2 -43 7 -64 16c-20 9 -39 22 -55 37c-15 16 -28 34 -38 54c-7 14 -13 29 -17 44c-35 -1 -70 -3 -103 -10c-17 -4 -34 -9 -49 -16c-15 -6 -29 -16 -37 -27c-3 -5 -8 -7 -13 -7c-4 0 -7 1 -10 3c-5 3 -7 8 -7 13c0 4 1 7 3 10c0 1 1 2 1 2v1c8 7 16 14 25 19s18 9 27 12
c19 7 37 10 56 13c26 3 53 4 79 4h24l-1 1c-5 22 -7 44 -9 65v19c0 16 0 31 1 46c0 11 1 22 2 33l2 16c1 5 2 10 3 16c1 4 1 9 2 13c-4 7 -7 15 -10 22c-4 11 -6 22 -8 33c-2 13 -3 26 -3 39c0 9 0 18 1 27c1 11 2 22 4 32c1 11 3 22 6 32c9 43 22 83 38 123zM522 -410
c34 16 65 38 93 62c-5 2 -11 3 -16 4c-17 5 -35 9 -52 12c-36 8 -71 15 -106 20c-36 6 -71 11 -107 14c-30 2 -60 4 -89 5c3 -13 7 -25 13 -36c8 -19 20 -36 34 -50c14 -15 31 -27 50 -35c18 -8 38 -13 59 -16c8 -1 16 -1 24 -1c34 0 67 7 97 21zM321 349
c-21 -37 -40 -75 -56 -114s-29 -79 -38 -120c-4 -21 -7 -42 -9 -62v-14c0 -16 1 -32 5 -47c1 -7 3 -14 6 -21c0 4 1 8 2 12c20 84 51 165 90 242c39 76 85 149 137 217c26 34 54 66 83 98c15 15 30 31 45 46s31 30 47 46c3 3 8 4 12 4s9 -1 12 -5c3 -3 5 -8 5 -12
s-2 -9 -5 -12c-1 -1 -3 -2 -4 -3c-9 -5 -18 -10 -27 -16s-17 -12 -26 -18c-16 -13 -32 -27 -47 -41c-16 -15 -30 -30 -44 -46s-27 -33 -40 -50c-51 -67 -93 -141 -128 -218c-5 -10 -9 -19 -13 -29c-5 -9 -9 -19 -13 -29c-8 -19 -16 -39 -23 -59c-14 -39 -27 -80 -37 -120
c-3 -13 -6 -26 -8 -38v-1c6 -7 13 -13 21 -18c8 -4 17 -8 26 -10c8 -2 13 -9 13 -16v-4c-2 -8 -9 -13 -16 -13h-4c-1 0 -2 1 -3 1h-1c-11 5 -21 11 -31 19c-4 3 -8 6 -11 9c-3 -17 -5 -35 -7 -53c-2 -21 -2 -42 -2 -63c1 -21 3 -41 7 -62c1 -2 1 -4 2 -6
c68 -4 135 -13 202 -23c35 -6 71 -13 106 -20c18 -3 35 -7 53 -11c8 -2 17 -4 25 -6c30 28 56 60 81 92c25 34 48 69 69 105c43 73 81 148 113 226c32 79 59 159 78 241l12 63c3 20 6 41 8 62c3 25 4 50 4 74c0 18 0 35 -2 53c-3 42 -12 84 -30 121c-9 19 -21 36 -36 50
c-14 14 -31 25 -50 32s-39 10 -59 10s-40 -3 -59 -9c-39 -12 -75 -32 -110 -55c-34 -24 -66 -50 -96 -79s-59 -60 -86 -92c-54 -65 -102 -135 -143 -208z" />
    <glyph glyph-name="R" unicode="R" horiz-adv-x="597" 
d="M11 83c-4 8 -7 16 -8 25c-1 3 -1 7 -1 10c0 6 1 11 2 17c6 17 18 32 33 42c14 8 30 13 46 13h5c18 -1 35 -8 49 -18c13 -9 24 -20 35 -32c6 -7 13 -15 19 -22c12 31 25 62 37 93c17 41 32 82 48 124c8 21 15 42 23 62c7 21 15 42 21 63c7 21 14 42 21 64
c7 21 13 42 19 63c5 22 11 43 15 64c2 11 4 22 5 32c0 5 1 10 1 15c0 2 0 5 -1 7v2c0 1 -1 2 -1 2v7c0 7 5 14 13 16h4c7 0 14 -5 16 -13c0 -2 0 -5 1 -7v-15c-1 -7 -2 -13 -3 -18c-2 -12 -5 -23 -8 -34c-6 -22 -12 -43 -19 -65c-7 -21 -15 -42 -22 -63
c-8 -21 -16 -42 -23 -63l-24 -62c-8 -21 -16 -42 -24 -62c-16 -42 -32 -83 -49 -125l-40 -101c5 -6 10 -12 14 -19c3 1 5 2 8 3c13 5 27 11 40 17c14 6 27 13 40 19l39 21c25 15 50 31 74 47c25 17 48 34 71 53c23 18 45 37 65 58c21 20 41 41 60 64l14 16c4 6 8 12 13 18
c8 11 16 23 24 36c15 24 28 50 38 76c4 14 8 27 11 41s5 28 6 42v13c0 23 -4 46 -13 67c-11 25 -29 47 -52 63s-50 27 -78 35c-14 3 -29 6 -43 8s-29 2 -44 3c-29 0 -58 -3 -87 -9s-57 -15 -83 -27c-14 -7 -26 -14 -38 -23c-11 -9 -22 -19 -30 -30c-4 -5 -8 -11 -11 -17
c-1 -4 -3 -7 -4 -10c0 -1 -1 -3 -1 -5l-1 -4c-1 -2 -1 -4 -1 -5v-14c0 -7 2 -13 4 -19c1 -2 1 -4 1 -6c0 -6 -4 -13 -11 -15c-2 -1 -4 -1 -6 -1c-7 0 -14 4 -16 11c-1 1 -1 3 -1 5v8c0 15 2 29 8 42c6 16 16 29 27 40c22 23 48 38 76 51c13 6 27 11 42 16c14 5 28 8 43 12
c29 6 59 10 89 10h15c25 0 50 -2 75 -7c30 -6 59 -16 86 -32c13 -9 25 -18 36 -30c11 -11 21 -25 28 -39s12 -30 15 -45c3 -16 4 -32 4 -48c-1 -15 -2 -31 -5 -46s-8 -30 -13 -45c-10 -29 -24 -57 -40 -83c-8 -13 -17 -25 -26 -37c-4 -6 -9 -12 -14 -18l-14 -18
c-20 -23 -41 -44 -64 -64c-22 -21 -45 -40 -69 -58s-49 -35 -74 -51c-50 -32 -103 -60 -158 -84c-14 -5 -28 -11 -42 -16c-1 0 -3 -1 -4 -1c10 -14 20 -27 29 -40c18 -24 35 -49 52 -73l51 -73c17 -24 34 -48 52 -72c17 -24 35 -48 53 -71s37 -46 56 -68
c20 -22 40 -43 61 -63c11 -10 22 -19 33 -28s23 -17 35 -24c12 -8 25 -14 38 -18c12 -4 25 -7 38 -7c13 1 25 4 36 9c12 6 22 14 31 24c4 3 8 5 12 5c5 0 9 -2 12 -5c4 -3 5 -7 5 -12c0 -4 -1 -8 -5 -12c-12 -12 -26 -22 -41 -29c-16 -7 -33 -10 -50 -10s-33 4 -48 9
c-15 6 -29 13 -43 22c-13 8 -25 17 -37 27s-23 20 -34 30c-22 21 -42 44 -61 66c-77 92 -143 191 -211 288c-16 25 -33 49 -51 73c-8 12 -17 24 -26 35c-3 3 -6 6 -8 10l-18 -6h-1l-41 -103c-33 -82 -65 -165 -97 -248c-2 -7 -9 -11 -16 -11c-2 0 -4 0 -6 1
c-6 2 -11 9 -11 17c0 1 0 3 1 5c1 0 1 0 1 1c39 80 75 161 111 242c13 30 26 60 38 91c-22 -6 -45 -10 -68 -10c-8 0 -16 0 -23 1c-8 0 -16 2 -24 5l-6 2l-5 3l-6 3l-3 2l-2 3l-9 9l-3 5c-2 2 -3 3 -4 5zM193 78c-1 0 -1 1 -2 1l-1 -2c1 0 2 0 3 1zM28 127
c-2 -5 -3 -11 -3 -16c0 -6 1 -13 4 -19c1 -1 1 -3 2 -4l3 -4c1 -3 3 -6 5 -8c4 -4 10 -8 16 -10c12 -6 26 -7 41 -7c25 0 50 5 75 12l9 21c-9 10 -19 20 -28 29c-11 10 -21 19 -32 26l-4 3c-2 0 -3 1 -4 2c-2 1 -3 1 -4 2c-2 0 -3 1 -5 1c-5 2 -11 4 -17 4h-5
c-10 0 -20 -3 -29 -7c-11 -6 -20 -15 -24 -25z" />
    <glyph glyph-name="S" unicode="S" horiz-adv-x="801" 
d="M69 336c2 4 5 8 7 11c10 15 21 29 31 43l9 11c2 3 5 7 8 10c6 7 11 14 17 20l36 39c13 13 25 25 38 37s26 24 39 35c54 46 111 87 171 123c30 18 61 35 92 51l23 12l72 33c65 26 134 45 206 46c9 0 18 0 27 -1s18 -3 27 -5c4 -1 9 -3 13 -4c5 -2 9 -4 14 -7
c4 -3 8 -6 12 -11c3 -4 6 -9 8 -14c2 -6 3 -12 3 -17c0 -6 -1 -11 -3 -16c-3 -10 -7 -19 -12 -27c-11 -16 -23 -30 -36 -43c-3 -3 -7 -5 -12 -5c-4 0 -8 2 -12 5c-3 3 -5 8 -5 12s2 9 5 12c1 0 1 1 2 1c7 5 13 11 19 16c6 6 12 11 17 18c4 6 9 12 11 19l3 9c0 3 0 6 -1 9
c-1 5 -5 11 -11 15c-3 2 -6 4 -10 5c-3 2 -7 3 -11 5c-15 4 -32 6 -48 6h-9c-31 0 -62 -5 -92 -12c-17 -5 -33 -9 -50 -15c-16 -6 -32 -12 -47 -19l-24 -11l-23 -11l-46 -24c-30 -17 -59 -35 -88 -54c-57 -38 -111 -81 -162 -127c-13 -11 -25 -23 -38 -35l-36 -36
c-23 -25 -46 -51 -67 -77c-11 -13 -21 -27 -31 -40c-3 -4 -5 -7 -8 -11c-2 -3 -5 -7 -7 -10c-5 -7 -9 -14 -14 -22c-18 -28 -34 -58 -44 -90c-4 -13 -7 -27 -7 -41v-6c0 -15 5 -30 16 -39c5 -5 12 -9 19 -11c3 -2 7 -2 11 -3l6 -1c1 0 2 -1 3 -1h28c4 0 8 1 12 2
c4 0 9 1 13 1c35 6 69 9 104 11c16 1 32 1 48 1c19 0 39 0 58 -2c17 -2 35 -4 52 -8c18 -3 35 -8 52 -14c33 -12 66 -30 91 -56c8 -8 15 -16 22 -25c16 9 33 18 49 26l12 6c4 2 8 4 12 5l25 10c16 6 33 12 50 17c34 10 71 22 104 25c2 0 4 -2 4 -5c0 -2 -1 -5 -4 -5
c-34 -2 -68 -17 -101 -26c-17 -5 -33 -12 -49 -17l-24 -10c-4 -2 -7 -4 -11 -6l-12 -5c-16 -9 -32 -17 -48 -27c1 -2 3 -4 4 -7c9 -16 15 -34 18 -52c3 -14 4 -28 4 -41v-13c-1 -18 -3 -36 -8 -54c-8 -35 -22 -68 -40 -99c-18 -30 -40 -59 -64 -84c-13 -13 -26 -25 -40 -36
c-13 -12 -28 -22 -43 -31c-16 -9 -32 -17 -50 -21c-9 -2 -18 -3 -28 -3c-4 0 -9 0 -14 1c-4 1 -9 3 -13 5c-9 3 -17 10 -23 18c-5 8 -9 16 -11 25c-2 8 -2 15 -2 22c0 11 1 22 3 32c4 18 10 35 17 51s15 32 24 47s19 29 30 43c10 14 22 28 33 41c5 7 11 13 17 20l9 9
c3 4 6 7 9 10c12 12 25 25 38 37l9 8l5 5l5 4l20 17c4 3 7 5 11 8l10 8l11 8c3 2 7 5 11 7c7 6 15 11 23 16c-5 8 -11 16 -18 22c-22 24 -52 42 -84 53c-15 6 -32 11 -48 14c-17 4 -34 6 -51 8s-34 3 -51 3s-34 0 -52 -1c-34 -2 -68 -6 -102 -11c-9 -1 -18 -3 -27 -4
c-4 0 -9 -1 -13 -1h-17c-2 1 -3 1 -4 1l-7 1c-5 1 -9 1 -14 3c-9 3 -18 7 -26 14c-8 6 -14 15 -18 24c-5 9 -7 19 -8 29v8c0 7 0 14 1 20c0 5 1 9 2 14c0 4 1 9 2 13c5 18 11 35 18 52c7 16 15 32 23 48c5 8 9 15 14 23c2 4 4 7 7 11zM553 -25c-1 2 -2 4 -3 5
c-8 -5 -16 -10 -23 -15c-4 -3 -8 -5 -11 -8l-10 -7c-7 -6 -14 -11 -21 -16l-20 -17l-5 -4l-4 -4l-10 -9c-6 -6 -13 -11 -19 -17l-18 -18c-3 -3 -6 -7 -9 -10l-9 -9c-6 -7 -12 -13 -17 -19c-12 -13 -23 -26 -33 -40c-11 -14 -21 -28 -30 -42c-9 -15 -17 -30 -24 -45
c-7 -16 -13 -32 -16 -49c-2 -9 -4 -18 -4 -28c0 -7 1 -14 3 -21c2 -8 5 -15 10 -22c4 -6 10 -11 18 -14c7 -3 15 -4 23 -4s16 2 24 4c15 5 30 12 45 21c14 10 27 20 40 31c12 12 24 24 35 37c23 25 43 52 60 82c17 29 31 60 39 93c4 16 6 32 7 49v13c0 12 -1 24 -3 36
c-3 16 -8 32 -15 47z" />
    <glyph glyph-name="T" unicode="T" horiz-adv-x="567" 
d="M24 626c4 1 7 2 10 3c26 6 52 11 77 15c26 5 52 9 77 13c26 4 52 8 77 11c52 8 103 14 155 22l149 20c1 5 2 9 3 13c3 14 6 27 8 40c1 7 2 13 3 19v9c0 3 -1 5 -1 6c-2 3 -3 6 -3 9c0 6 3 11 9 14c3 2 6 3 9 3c6 0 11 -3 14 -8c1 -2 2 -3 2 -5l1 -4c2 -6 2 -11 2 -15
s-1 -8 -1 -12c-1 -7 -2 -15 -4 -22c-3 -14 -7 -27 -10 -41c-1 0 -1 -1 -1 -2c94 13 189 26 283 37c52 6 103 12 155 16c26 2 52 4 79 5h40c7 -1 14 -1 22 -3c2 0 4 -1 7 -2c2 -1 5 -2 8 -4l6 -6c0 -1 1 -3 2 -5s1 -4 1 -6c0 -4 -1 -7 -2 -10c0 -1 -1 -2 -1 -3l-2 -2
c-3 -5 -8 -7 -13 -7c-4 0 -8 1 -11 4c-3 2 -5 6 -6 10c-4 1 -9 2 -13 3c-13 1 -25 1 -38 2c-25 0 -51 0 -77 -1c-52 -3 -103 -6 -155 -11c-97 -8 -193 -20 -289 -32c-7 -21 -13 -42 -20 -63c-18 -52 -37 -104 -56 -156s-38 -104 -58 -156c-19 -51 -39 -103 -59 -155
l-119 -309c-40 -103 -80 -206 -119 -310c-2 -7 -9 -11 -16 -11c-2 0 -4 0 -6 1c-6 3 -11 10 -11 17c0 1 0 3 1 5c1 0 1 1 1 1c45 101 88 203 131 305c2 6 5 12 7 18c13 39 25 78 35 118c6 25 12 50 17 75c6 26 10 51 14 77c4 25 7 51 9 77c1 18 2 37 2 56v21
c0 26 -3 51 -8 76c-6 26 -13 50 -25 73c-11 23 -25 44 -43 62c-17 18 -38 32 -60 43c-6 3 -12 5 -17 8l-18 6l-9 2l-9 3l-9 2c-2 0 -3 1 -5 1l-4 1l-19 3l-19 2c-6 0 -12 0 -19 1h-63c-2 0 -4 0 -6 1c-1 0 -3 0 -5 1c0 0 -1 0 -2 1c-1 0 -1 1 -3 2c-1 1 -4 5 -4 8v3
c0 3 1 4 2 6s2 3 2 3c1 1 2 1 2 1l2 2c2 1 3 1 4 1c4 2 7 3 10 4zM116 620c-7 -1 -13 -2 -19 -3c16 -2 33 -4 49 -8c26 -5 52 -14 76 -27s45 -30 63 -51c18 -20 31 -43 42 -67c10 -25 17 -50 22 -76l2 -10l1 -4v-5c1 -7 2 -13 3 -20l2 -19l1 -20c0 -11 1 -22 1 -32
c0 -16 -1 -31 -2 -46c-1 -26 -4 -52 -8 -78s-8 -51 -14 -77c-5 -25 -11 -51 -18 -76c-1 -4 -2 -9 -3 -13l13 33c20 51 41 103 60 154c40 104 78 207 114 312c18 52 35 104 50 157c5 17 10 34 14 51c-47 -6 -95 -13 -143 -20c-51 -8 -102 -17 -154 -26
c-51 -9 -102 -19 -152 -29z" />
    <glyph glyph-name="U" unicode="U" horiz-adv-x="804" 
d="M218 507c10 19 20 37 31 56c11 18 23 36 34 54c12 17 24 35 37 52c12 17 25 34 39 51c13 16 27 32 43 48c15 16 31 30 48 44l1 1c3 2 7 3 10 3c5 0 10 -2 13 -6c3 -3 4 -7 4 -11c0 -5 -2 -10 -7 -13c0 -1 -1 -1 -2 -2c-18 -9 -35 -21 -50 -34c-8 -7 -16 -14 -23 -21
c-8 -7 -15 -15 -22 -23c-13 -15 -26 -32 -39 -49c-12 -16 -24 -34 -35 -51c-12 -18 -22 -36 -33 -54c-10 -18 -20 -36 -30 -55c-20 -37 -38 -75 -55 -113c-33 -77 -64 -155 -90 -235c-25 -80 -47 -161 -61 -243c-6 -41 -11 -83 -11 -125c1 -20 2 -41 5 -61
c3 -21 8 -41 17 -59c8 -18 20 -35 36 -47s36 -18 56 -19c3 0 7 -1 10 -1c17 0 33 4 49 11c20 7 38 17 54 29c34 25 64 54 92 86c27 31 53 65 76 99c24 35 47 71 68 107s42 73 62 110c39 74 75 150 110 227c6 13 12 26 18 40c9 30 17 60 26 89c25 81 51 162 80 241
c14 40 29 80 47 119c4 10 9 19 14 29l9 15c1 1 2 2 3 4c1 0 1 1 2 2s2 2 4 3c1 1 2 1 4 2c1 1 2 1 4 1c1 0 3 0 5 -1c4 -2 7 -5 8 -6c1 -2 1 -4 1 -5c1 -2 1 -3 1 -4v-3c0 -4 0 -7 -1 -10c0 -3 -1 -6 -1 -8c-2 -6 -3 -11 -4 -16c-3 -11 -6 -21 -9 -31
c-6 -21 -13 -41 -19 -61c-7 -20 -14 -40 -22 -60c-7 -20 -14 -40 -22 -59c-8 -20 -15 -40 -23 -59c-35 -87 -73 -172 -114 -256c-8 -28 -16 -56 -23 -84c-11 -40 -22 -81 -32 -122c-9 -41 -18 -82 -26 -124c-7 -41 -14 -83 -15 -124c0 -11 0 -21 1 -31c0 -11 2 -21 4 -30
c2 -5 3 -9 5 -13s5 -7 7 -9c1 0 2 -1 3 -1s2 1 3 1c2 0 4 1 8 3c3 2 6 3 10 3c5 0 10 -2 14 -7c2 -3 3 -6 3 -9c0 -6 -3 -11 -8 -15c-1 -1 -3 -2 -5 -2l-2 -1c-4 -1 -10 -2 -16 -2h-6c-4 1 -9 2 -13 4s-7 5 -10 8c-5 6 -7 13 -9 19s-3 11 -4 17c-1 11 -1 22 -1 33s1 22 2 32
c2 22 5 43 8 64s6 42 10 62c8 42 16 83 26 125l30 123c2 5 3 10 5 15c-24 -46 -48 -92 -74 -137c-41 -74 -85 -147 -134 -215c-25 -35 -51 -69 -79 -100c-28 -32 -59 -62 -94 -87c-17 -12 -36 -23 -56 -31c-18 -7 -36 -11 -55 -11h-10c-11 0 -22 2 -32 6c-11 3 -21 8 -30 15
c-19 13 -32 31 -42 51s-16 41 -20 62s-6 43 -7 64v17c0 37 3 74 7 111c3 21 6 42 10 63s8 42 13 63c10 41 21 82 34 122c26 81 57 161 93 237c19 38 38 76 59 113zM800 625c-20 -52 -40 -106 -58 -159c4 9 8 19 12 29c27 68 53 137 77 206c-11 -25 -21 -50 -31 -76z" />
    <glyph glyph-name="V" unicode="V" horiz-adv-x="649" 
d="M2 -244c1 28 3 56 5 84c5 55 11 110 18 165c12 110 26 219 41 329l43 329c1 8 9 14 17 14h2c8 -1 14 -9 14 -17v-3c-11 -54 -20 -108 -29 -163c-5 -27 -9 -54 -14 -81c-4 -28 -8 -55 -12 -82c-16 -109 -31 -219 -41 -329c-5 -54 -10 -109 -13 -164c-2 -40 -4 -79 -4 -119
c0 -15 0 -30 1 -45c1 -14 1 -27 3 -40c1 -7 2 -13 3 -20c1 -6 3 -12 5 -17c1 -2 2 -4 3 -5v-1c2 1 4 2 6 4c4 3 9 7 14 11c4 5 9 10 13 14c18 20 35 42 52 64l48 66c64 90 125 182 186 274l183 276c30 46 61 92 92 138c30 46 62 92 93 137c8 11 16 23 24 34s16 22 25 34
c16 22 33 44 50 66c8 11 17 22 26 32c9 11 19 22 29 32s20 20 32 29c7 5 13 9 21 13c2 0 4 1 7 2c1 0 2 1 3 1l4 1c5 0 12 0 18 -2l11 -4c8 -2 13 -10 13 -18c0 -2 0 -4 -1 -6c-3 -8 -11 -13 -19 -13c-2 0 -4 0 -6 1c-4 2 -8 5 -10 9h-5c-1 -1 -2 -1 -3 -1
c-5 -2 -10 -5 -15 -8c-11 -7 -21 -15 -31 -24c-19 -19 -38 -39 -56 -59c-9 -11 -17 -21 -26 -32s-17 -21 -26 -32c-17 -22 -33 -44 -49 -66c-65 -89 -126 -181 -187 -273c-60 -93 -119 -186 -178 -280c-29 -46 -59 -93 -89 -139c-30 -47 -60 -93 -92 -139
c-16 -22 -31 -45 -48 -67c-17 -23 -34 -45 -53 -66c-5 -5 -10 -11 -15 -16s-11 -10 -17 -15c-4 -2 -8 -5 -13 -7c-1 0 -2 0 -4 -1h-2c-1 -1 -2 -1 -3 -1c-4 0 -8 0 -11 2c-2 0 -4 1 -5 2c-2 1 -3 2 -5 3l-6 6c-3 5 -5 9 -6 13c-4 8 -5 15 -7 22c-1 8 -2 15 -3 22
c-2 14 -2 29 -3 43c0 28 0 56 2 83z" />
    <glyph glyph-name="W" unicode="W" horiz-adv-x="957" 
d="M311 731h1c3 2 6 3 9 3c6 0 11 -3 14 -8c2 -3 3 -6 3 -10c0 -5 -3 -11 -8 -14c-1 0 -3 -1 -4 -2c-9 -2 -18 -8 -27 -14s-17 -13 -25 -21c-15 -16 -29 -34 -41 -53s-23 -39 -33 -59c-10 -21 -19 -42 -28 -63c-34 -84 -58 -172 -80 -261c-10 -44 -20 -89 -29 -133
c-9 -45 -17 -89 -24 -134c-3 -23 -7 -45 -9 -68c-2 -22 -4 -45 -5 -67c0 -11 0 -22 1 -34c0 -11 1 -22 4 -32c1 -5 2 -10 4 -15c2 -4 4 -8 7 -11c1 -1 2 -2 4 -3h5c3 0 7 1 12 4c8 5 16 13 23 21c8 8 14 17 21 26c13 19 24 38 35 58c23 40 43 81 62 122
c39 83 75 167 109 252l53 127l27 63c10 21 19 42 31 62c1 3 3 6 5 8c2 3 3 5 6 8c1 1 3 2 5 4c1 0 3 1 5 1h4c2 0 4 -1 5 -2c2 -1 3 -2 4 -4s2 -4 2 -6c1 -4 2 -7 2 -10v-10c-1 -6 -1 -12 -2 -18c-3 -23 -8 -45 -12 -68l-7 -34l-8 -33c-5 -23 -11 -45 -16 -67
c-22 -89 -45 -177 -63 -266c-8 -45 -16 -89 -20 -134c-3 -23 -4 -45 -4 -68v-16c0 -17 1 -33 3 -50c3 -22 8 -44 16 -64c9 -20 21 -37 38 -50c16 -12 37 -19 58 -21c4 0 9 -1 13 -1c17 0 34 4 50 10c20 8 39 20 56 34c18 14 33 30 48 47c29 34 53 72 75 112
c22 39 42 80 60 122c17 42 34 84 49 127c29 86 54 174 74 263c9 45 18 90 24 135c4 23 7 45 9 68c2 22 4 45 5 68c1 16 1 32 1 48v20c0 23 -2 45 -5 68c-4 22 -10 44 -19 63c-5 9 -11 18 -18 23s-13 7 -19 7h-6c-8 0 -16 7 -17 15v2c0 9 6 16 15 17c1 1 1 1 2 1s2 0 3 -1h2
c8 -1 15 -4 22 -8c6 -4 12 -9 16 -14c9 -11 15 -22 19 -34c8 -23 12 -46 15 -69c2 -23 4 -47 4 -70s0 -46 -1 -69c-3 -46 -8 -91 -14 -137s-13 -91 -22 -136c-18 -90 -41 -179 -70 -267c-29 -87 -64 -173 -110 -253c-23 -40 -48 -79 -79 -114c-15 -18 -32 -35 -50 -50
c-19 -14 -39 -27 -62 -36c-11 -4 -23 -8 -35 -9c-9 -1 -18 -2 -26 -2h-10c-12 1 -25 4 -36 8c-12 4 -23 9 -33 17c-11 7 -19 16 -27 26c-7 10 -13 20 -18 31c-11 23 -16 46 -20 69c-4 24 -6 47 -6 70c0 24 0 47 2 70c3 46 9 92 17 138c16 91 38 180 62 268
c13 44 27 88 39 132c7 22 13 44 18 65c1 6 2 11 3 17v14c-3 -3 -6 -8 -9 -12c-6 -9 -12 -19 -17 -29c-6 -10 -11 -20 -15 -31c-10 -20 -19 -41 -29 -62l-27 -63l-26 -63l-53 -127c-18 -42 -36 -85 -55 -126c-18 -42 -38 -84 -60 -124c-11 -21 -22 -41 -35 -60
c-6 -10 -13 -19 -21 -28c-7 -10 -15 -19 -26 -26c-6 -3 -12 -6 -20 -7h-4c-2 0 -5 0 -8 1c-4 2 -8 4 -11 6c-6 6 -9 12 -12 17c-3 6 -5 12 -6 18c-3 12 -5 24 -6 36s-2 23 -2 35v15c0 42 4 83 8 124c11 91 30 182 56 270c13 44 27 88 42 131c16 44 32 87 51 129
c18 42 38 84 61 124c11 20 24 40 38 59c7 9 15 19 24 27c8 9 18 17 29 25zM787 -421h1l-1 -1v1z" />
    <glyph glyph-name="X" unicode="X" horiz-adv-x="731" 
d="M114 -344c11 12 21 24 32 37c41 50 80 103 118 155c19 27 38 53 57 80l56 81c37 53 74 107 110 161l8 13l-4 20l-25 134c-9 44 -17 89 -27 133c-17 89 -35 177 -55 266v4c0 8 4 14 12 16h4c8 0 15 -5 17 -13v-1c11 -90 24 -180 38 -269c7 -45 15 -89 23 -134
s16 -89 24 -134c1 -3 2 -6 2 -9l92 137l109 163l55 82c18 27 36 54 55 81s37 53 57 80l30 39c6 7 11 13 17 20c4 3 7 6 11 10c2 1 4 3 8 5c2 1 4 2 7 2c1 1 2 1 3 1s3 0 4 -1c3 0 7 -1 10 -4c4 -3 6 -8 6 -13c0 -3 -1 -7 -4 -10c-3 -5 -9 -7 -14 -7c-2 -1 -5 -4 -8 -6
c-5 -5 -10 -11 -16 -17c-10 -12 -20 -24 -30 -37c-20 -25 -40 -52 -59 -78c-20 -26 -39 -52 -58 -79l-56 -80c-38 -53 -75 -107 -112 -161l-102 -149c6 -34 13 -68 20 -102l21 -99l8 -33c5 -22 10 -44 16 -66c5 -22 11 -44 17 -66c6 -21 12 -43 20 -64c3 -10 7 -21 11 -30h7
c8 -2 14 -9 14 -17v-2c0 -1 -1 -2 -1 -3v-1c-1 -2 -1 -4 -2 -6c-1 -1 -2 -3 -3 -5s-3 -4 -8 -7c-1 0 -2 -1 -4 -1h-4c-3 0 -5 0 -7 1c-4 1 -6 3 -7 4c-3 3 -4 5 -5 7c-2 4 -3 7 -5 10c-1 3 -2 6 -3 8c-4 12 -7 23 -10 34c-5 23 -10 45 -15 67s-9 45 -14 67l-13 66l-43 225
l-110 -161l-56 -80c-19 -27 -38 -54 -57 -80c-19 -27 -37 -54 -56 -80c-20 -27 -39 -53 -59 -79c-19 -27 -39 -53 -61 -78c-5 -6 -11 -13 -16 -19c-6 -6 -12 -12 -19 -18c-3 -3 -6 -6 -10 -9c-2 -1 -4 -3 -6 -4c-3 -1 -5 -3 -8 -4s-6 -2 -11 -2c-3 0 -5 0 -8 1
c-3 0 -6 2 -8 4c-3 2 -5 4 -6 6l-3 6c-1 3 -2 7 -3 10v2c0 8 6 16 14 18h2c8 0 15 -6 17 -13c1 0 2 1 3 1l9 6c12 9 23 21 34 32c12 12 23 24 33 36z" />
    <glyph glyph-name="Y" unicode="Y" horiz-adv-x="678" 
d="M673 645c3 -12 5 -23 6 -34v-17c0 -16 -1 -32 -2 -47c-4 -42 -11 -84 -20 -125c-9 -40 -20 -81 -32 -121c-24 -80 -51 -158 -81 -236c-30 -75 -62 -149 -100 -220c1 0 1 -1 2 -1c17 -13 32 -28 46 -45c13 -17 24 -35 33 -55c5 -9 9 -19 13 -29s8 -21 12 -31
c1 -2 1 -4 1 -5c0 -8 -5 -15 -12 -17c-2 -1 -4 -1 -5 -1c-7 0 -14 5 -16 12c-1 1 -1 3 -1 5c-2 39 -14 79 -38 112c-11 16 -25 31 -41 43c-19 -35 -39 -70 -61 -103c-11 -18 -23 -35 -36 -51c-13 -17 -27 -33 -42 -48l-24 -21c-8 -7 -17 -13 -25 -19
c-18 -12 -38 -21 -59 -27c-11 -3 -24 -5 -36 -5c-10 0 -19 1 -29 4c-11 3 -21 8 -30 14c-9 7 -17 15 -23 25c-6 9 -11 19 -14 30s-5 22 -5 33c0 22 4 44 12 65c4 10 9 20 14 29c5 10 12 19 18 28c3 4 7 8 10 12l6 6c2 2 3 4 5 6c8 8 16 15 25 22c17 14 36 25 56 33
c20 9 41 15 62 19c15 2 29 4 44 4c28 0 57 -5 83 -15c14 -5 27 -11 39 -18c17 33 33 68 48 102c16 38 32 77 46 115c29 78 55 156 76 236c11 40 20 80 29 120c4 20 8 40 11 60c4 20 6 41 9 61c1 15 2 29 2 44v16c-1 9 -2 19 -4 27c-1 5 -2 9 -4 12s-3 6 -5 7s-4 2 -6 2
c-4 0 -7 0 -10 -2c-7 -2 -14 -8 -20 -15c-13 -13 -24 -30 -33 -48c-20 -36 -35 -74 -51 -112c-15 -38 -31 -77 -46 -116c-16 -38 -31 -77 -49 -115c-17 -37 -36 -75 -58 -110c-21 -36 -46 -70 -78 -99c-8 -7 -16 -13 -25 -19s-18 -12 -27 -17c-20 -9 -41 -15 -63 -17
c-4 0 -8 -1 -13 -1c-6 0 -13 1 -19 2c-11 1 -22 3 -32 7c-22 7 -41 21 -55 38s-24 37 -31 58s-11 42 -14 63c-1 15 -2 30 -2 45c0 28 2 55 6 82c3 21 7 42 12 62c5 21 11 41 17 61c13 40 28 79 46 117c9 19 18 37 28 56c10 18 21 36 33 54c11 17 24 34 37 51
c13 16 27 32 42 47c16 15 32 28 50 40s38 22 60 29h1c2 1 3 1 5 1c7 0 14 -5 16 -12c1 -2 1 -4 1 -5c0 -7 -5 -14 -12 -16c-1 0 -2 0 -3 -1c-19 -2 -38 -8 -55 -17c-18 -9 -34 -21 -49 -34c-31 -26 -57 -58 -79 -92c-46 -69 -78 -146 -100 -224c-6 -20 -10 -40 -15 -60
c-4 -20 -7 -40 -10 -60c-3 -28 -6 -55 -6 -82c0 -13 1 -26 2 -39c2 -20 5 -40 11 -59c3 -9 6 -18 10 -27c5 -9 10 -17 15 -25c12 -15 27 -27 45 -34c16 -6 33 -9 50 -9h7c20 0 40 5 58 14c18 8 35 19 50 32c15 14 29 29 42 45s24 33 35 51c21 35 39 72 56 110
c16 38 31 76 45 115c15 39 28 78 42 117c15 39 29 78 48 116c5 10 10 19 15 28c6 10 12 19 20 27c8 9 17 17 29 23c6 2 13 4 21 4c3 0 7 0 11 -1l12 -6c6 -5 11 -11 14 -17s5 -11 6 -17zM363 -261c21 33 41 68 59 104c-12 7 -24 13 -38 17c-19 6 -39 9 -58 10
c-20 0 -40 -2 -60 -7c-19 -4 -38 -11 -55 -20c-18 -9 -35 -19 -50 -32c-15 -12 -29 -26 -41 -42c-13 -15 -24 -31 -32 -49c-9 -17 -15 -36 -16 -55v-8c0 -7 1 -14 2 -21c1 -5 3 -9 4 -14c2 -4 4 -9 7 -13c5 -8 12 -15 19 -20c8 -6 17 -10 26 -12c8 -3 16 -4 25 -4
c11 0 22 2 33 5c19 5 37 14 54 25c16 11 32 25 46 39c14 15 28 30 40 46c12 17 24 34 35 51z" />
    <glyph glyph-name="Z" unicode="Z" horiz-adv-x="583" 
d="M652 634l1 -7c1 -12 2 -23 2 -35c0 -8 -1 -17 -1 -25c-3 -40 -13 -79 -28 -116c-7 -18 -15 -36 -24 -53c-9 -18 -19 -35 -30 -51c-11 -17 -22 -33 -35 -48c-12 -15 -25 -30 -39 -44c-26 -29 -56 -55 -86 -79c-31 -24 -63 -46 -97 -66c-33 -21 -67 -39 -103 -56
c-17 -8 -35 -17 -53 -25c-10 -4 -20 -9 -31 -13c24 3 47 5 71 6c17 0 34 0 51 -1c17 -2 34 -4 51 -9c16 -4 33 -10 48 -20c15 -9 29 -21 39 -36s16 -33 18 -51c1 -6 1 -12 1 -18c0 -12 -1 -24 -4 -35c-2 -12 -5 -23 -9 -35c7 -3 14 -7 21 -11c30 -17 58 -38 83 -64
c3 -3 5 -8 5 -12s-2 -8 -5 -12c-3 -3 -8 -4 -12 -4s-9 1 -12 5c-1 0 -2 1 -3 2c-16 27 -40 50 -67 69c-5 4 -11 7 -17 11c-6 -16 -14 -31 -23 -45c-8 -15 -18 -29 -29 -43c-10 -14 -21 -27 -33 -39c-12 -13 -24 -25 -37 -36s-27 -22 -41 -32s-28 -19 -43 -27
c-15 -9 -31 -17 -47 -22c-15 -5 -30 -8 -46 -8h-7c-9 0 -18 2 -26 5c-9 3 -17 8 -24 14c-6 6 -12 13 -17 21c-4 8 -7 16 -9 25c-3 12 -5 24 -5 36c0 5 1 11 1 16c4 35 18 68 38 97c10 14 22 27 35 38c6 6 13 12 20 16c8 5 15 10 23 14s16 8 24 11s16 6 25 8c17 4 34 6 51 7
h10c32 0 62 -4 92 -12c17 -4 33 -9 49 -16c2 -1 5 -2 7 -3c4 10 7 20 9 30c3 12 5 23 5 35c0 4 0 8 -1 12c-1 16 -6 31 -14 44s-20 24 -33 33c-13 8 -28 15 -44 19c-16 5 -32 8 -48 9c-17 2 -33 3 -50 3c-33 0 -67 -3 -100 -8c-1 0 -2 0 -3 1c-7 1 -13 5 -16 11
c-1 2 -2 5 -2 7c0 7 5 14 12 17c1 1 3 1 4 2c76 13 148 41 214 80c9 5 17 10 25 15c4 3 8 6 12 8c4 3 8 6 12 8c16 11 31 23 46 35s29 25 42 39c14 13 27 27 40 41c25 29 48 59 69 91c20 33 38 66 52 102c7 17 13 35 17 53c5 19 8 37 10 56c1 11 2 23 2 34c0 7 0 15 -1 22
l-2 14c0 4 -1 9 -2 13c-2 9 -5 18 -8 27l-1 3l-2 3c-1 2 -1 5 -2 7c-3 4 -5 8 -7 12s-5 8 -7 11c-2 2 -3 4 -4 6l-5 5c-6 7 -12 14 -20 20c-3 2 -7 5 -11 8l-6 4c-1 1 -4 2 -6 3c-15 10 -33 17 -51 22c-16 3 -32 6 -49 6h-7c-37 0 -75 -8 -110 -22c-36 -14 -69 -33 -100 -55
c-62 -44 -116 -102 -153 -167c-19 -33 -34 -69 -42 -105c-3 -18 -5 -36 -5 -54c0 -19 2 -37 7 -55c1 -2 1 -3 1 -5c0 -7 -6 -14 -13 -16c-2 -1 -3 -1 -5 -1c-7 0 -13 6 -15 13c-1 0 -1 1 -1 2c-2 13 -2 26 -2 39c0 28 3 56 11 82c11 39 27 75 47 109c21 34 45 65 72 93
c27 29 57 55 89 77c32 23 67 42 104 56c36 14 75 23 115 23h6c38 0 76 -9 109 -29c2 -1 4 -2 6 -4l7 -4c4 -2 8 -6 12 -9c8 -6 15 -13 22 -20l3 -3l2 -3c2 -2 3 -4 5 -6c3 -4 6 -8 8 -13c3 -4 5 -8 8 -13c1 -2 2 -4 3 -7l2 -3l1 -4c4 -9 7 -19 9 -29c1 -4 3 -9 4 -14z
M345 -232c8 14 17 28 23 43l-6 3c-15 7 -30 13 -46 18c-25 7 -50 11 -76 11c-7 0 -15 0 -22 -1c-16 -2 -32 -5 -48 -9c-7 -3 -15 -5 -22 -8c-8 -3 -15 -7 -22 -11c-14 -8 -27 -17 -39 -27c-7 -6 -12 -11 -18 -17s-11 -12 -16 -18c-10 -13 -18 -27 -25 -41
c-7 -15 -12 -30 -14 -46c-1 -7 -2 -15 -2 -23s1 -17 3 -25c4 -16 12 -30 24 -40s27 -14 43 -14c15 0 31 4 46 10s29 14 42 23c14 9 27 19 40 29s26 21 38 32s24 22 35 34c12 12 23 24 33 37s20 26 29 40z" />
    <glyph glyph-name="bracketleft" unicode="[" horiz-adv-x="440" 
d="M346 813c2 1 4 1 6 1c1 0 3 0 5 -1c7 0 12 -1 18 -2l17 -3c12 -2 23 -4 34 -5c7 -1 13 -7 13 -13v-2c-1 -7 -7 -13 -14 -13h-2s-1 0 -1 1h-1c-11 2 -22 5 -34 8l-16 5c-6 1 -11 2 -16 3h-6c-2 0 -3 0 -4 -1c-2 -1 -5 -5 -7 -10s-4 -10 -7 -15c-2 -5 -4 -11 -6 -16
c-4 -11 -9 -22 -13 -32l-14 -32c-9 -22 -18 -43 -26 -64l-13 -33l-13 -32l-25 -64c-17 -44 -34 -87 -51 -130c-34 -86 -70 -171 -100 -258c-16 -44 -30 -88 -41 -132c-3 -11 -5 -22 -7 -33c-1 -6 -2 -11 -2 -17v-5c10 -3 20 -5 30 -7c6 0 11 -1 16 -1c3 -1 6 -1 8 -1
c1 0 3 0 4 1h4c6 0 12 -4 14 -11v-2c0 -7 -4 -13 -11 -15h-12c-4 1 -7 1 -10 2c-6 1 -12 2 -18 4c-11 3 -23 7 -34 11h-1l-1 1c-1 0 -1 0 -2 1c-1 0 -1 1 -2 1l-1 1c0 1 -1 1 -1 2c0 0 0 1 -1 1v1c-2 3 -2 5 -2 8v10c1 6 3 12 4 18c3 12 6 23 9 34c7 22 15 44 23 66
c7 22 15 44 23 66c16 43 32 87 47 130c16 44 32 87 49 130c16 44 34 86 51 129l27 64l13 32l13 33c9 21 17 43 25 64c9 22 17 43 25 65c4 11 7 22 12 33c1 3 2 6 4 9s4 6 8 9s8 5 13 6z" />
    <glyph glyph-name="backslash" unicode="\" horiz-adv-x="571" 
d="M415 191l-32 47l-33 48c-21 32 -43 63 -65 94c-44 63 -89 126 -135 187l-35 46c-12 15 -23 30 -35 45s-24 30 -37 45l-18 21c-4 3 -7 7 -10 10c-1 0 -1 1 -2 1c-7 1 -12 6 -13 13v2c0 1 1 2 1 2v2c0 1 1 2 1 3l3 3c1 1 2 2 4 3c1 1 2 1 4 1c1 1 2 1 3 1c1 -1 2 -1 2 -1h2
l1 -1h2v-1h1c2 -2 3 -3 5 -4c2 -2 4 -4 5 -6c4 -4 7 -8 10 -12c6 -8 12 -16 17 -23c12 -16 23 -32 34 -47l66 -95c44 -63 88 -125 133 -188c22 -31 45 -62 67 -94l34 -46l34 -47c45 -62 90 -124 137 -185c2 -3 3 -6 3 -9c0 -5 -2 -9 -6 -13c-3 -2 -6 -3 -9 -3
c-5 0 -9 2 -13 6v1c-41 66 -83 130 -126 194z" />
    <glyph glyph-name="bracketright" unicode="]" horiz-adv-x="407" 
d="M406 746l-2 -4c-4 -11 -8 -22 -11 -33c-15 -43 -30 -86 -44 -129l-41 -130c-14 -44 -29 -87 -44 -130c-29 -86 -62 -171 -93 -257l-36 -96c-4 -11 -8 -21 -12 -32s-8 -21 -13 -32c-2 -5 -4 -11 -7 -16c-1 -3 -2 -5 -4 -8c-1 -1 -1 -2 -2 -3l-1 -1s-1 -1 -1 -2h-2l-1 -1
h-1c-1 -1 -2 -1 -3 -1h-10c-10 0 -19 1 -29 2c-11 1 -23 2 -35 4c-6 1 -12 7 -12 14v2c1 6 7 12 14 12h2c1 0 2 -1 3 -1c5 -2 11 -4 16 -5c5 -2 11 -3 16 -5c5 -1 11 -2 16 -3c6 -1 11 -2 16 -3c1 2 3 4 4 7c3 4 6 9 8 14c5 10 10 20 14 31c5 10 9 21 14 31c4 11 8 21 12 32
c8 21 16 43 24 64c30 86 58 172 88 259c14 43 29 86 44 129c16 42 31 85 46 128s29 87 43 130c3 11 7 22 10 33l1 4c0 1 1 2 1 2c0 2 -1 4 -2 5c-1 4 -5 7 -9 9c-8 4 -19 6 -29 7c-5 1 -11 1 -16 1c-6 0 -11 -1 -17 -1h-2c-8 0 -15 6 -16 14c0 9 6 16 15 17h5
c3 -1 6 -2 9 -2c3 -1 6 -1 9 -2c5 -2 11 -3 17 -5c6 -1 12 -4 18 -6c5 -3 11 -5 16 -10c6 -4 11 -9 14 -16c1 -3 1 -6 1 -8v-7h-1v-2z" />
    <glyph glyph-name="asciicircum" unicode="^" horiz-adv-x="200" 
d="M169 580c-2 3 -2 7 -2 11c2 7 2 14 2 21c0 6 0 13 -1 20c-1 13 -3 26 -5 39c-3 13 -5 26 -8 39c-2 8 -4 15 -6 22c-9 -8 -17 -17 -25 -26c-11 -12 -23 -26 -34 -39s-23 -27 -33 -41c-10 -13 -20 -28 -29 -43c-3 -5 -7 -7 -11 -7c-2 0 -5 1 -7 2c-4 2 -6 7 -6 11
c0 2 0 4 1 6s2 3 4 4c13 11 26 23 38 36s23 26 34 39c12 13 23 27 33 41c11 14 22 27 32 42c2 3 5 5 7 5s4 -1 6 -2c2 -2 4 -5 4 -8c0 -13 2 -26 3 -40c2 -13 4 -26 7 -39c2 -13 5 -26 9 -39s8 -25 16 -38c1 -2 2 -5 2 -8c0 -5 -3 -11 -8 -14c-3 -2 -6 -2 -8 -2
c-6 0 -12 3 -15 8z" />
    <glyph glyph-name="underscore" unicode="_" horiz-adv-x="278" 
d="M409 -3h-49c-8 -1 -16 -1 -24 -2h-2c-4 0 -7 3 -8 7c0 4 3 9 8 9c0 1 0 1 1 1l1 -1c8 -1 16 -1 24 -2h49c8 0 16 0 24 1c4 0 7 -2 8 -6c0 -4 -3 -8 -7 -8h-1c-8 1 -16 1 -24 1z" />
    <glyph glyph-name="grave" unicode="`" horiz-adv-x="500" 
 />
    <glyph glyph-name="a" unicode="a" horiz-adv-x="341" 
d="M4 18c-6 8 -9 17 -10 27v7c0 7 1 13 2 20c1 8 4 17 7 25c7 16 16 32 31 44c7 6 15 11 25 14c5 1 10 2 16 2c5 0 11 -1 16 -4c6 -2 11 -6 14 -10c4 -4 7 -9 9 -14c3 -7 5 -14 5 -21c2 4 4 7 6 11s4 7 8 11c2 1 3 2 5 3h6c0 -1 1 -1 1 -1c1 -1 2 -1 2 -2l1 -1
c1 -2 1 -3 1 -4v-2c0 -1 0 -2 -1 -4c0 -4 -1 -8 -3 -12c-1 -4 -3 -8 -4 -12c-6 -15 -14 -28 -22 -41v-7c1 -7 4 -14 9 -20c4 -5 11 -9 18 -11s15 -3 23 -3c15 1 31 3 47 8c15 4 30 9 45 16c15 6 29 14 42 22c14 8 27 17 39 28c1 1 3 1 4 1c2 0 4 0 6 -2c1 -1 1 -3 1 -4
c0 -2 0 -4 -2 -6c-14 -10 -28 -19 -42 -26c-15 -8 -30 -15 -45 -21s-30 -12 -46 -16s-32 -8 -49 -8c-8 0 -17 1 -25 3c-5 1 -9 2 -13 5c-4 2 -7 5 -10 8c-6 6 -9 14 -11 22c-8 -11 -17 -21 -29 -29c-7 -5 -15 -9 -24 -12c-5 -1 -11 -2 -17 -2c-3 0 -7 0 -11 1
c-5 1 -10 3 -14 6s-8 6 -11 11zM134 111v2c-4 -7 -7 -14 -9 -21c-1 -1 -1 -3 -2 -4l6 12c2 3 3 7 5 11zM23 89c-6 -13 -10 -26 -10 -39v-4c1 -6 3 -13 6 -18s8 -9 14 -10c3 -1 6 -1 10 -1c3 0 7 0 10 1c7 2 13 5 19 9c13 9 24 20 33 32c1 2 2 3 3 5s1 5 1 7c1 6 2 11 3 17
c-2 -2 -4 -2 -7 -2c-8 0 -14 6 -14 14v7c0 4 0 8 -1 12c-2 5 -5 9 -9 11c-2 1 -6 2 -9 2c-2 0 -5 0 -7 -1c-5 -1 -11 -4 -17 -8c-11 -9 -19 -21 -25 -34z" />
    <glyph glyph-name="b" unicode="b" horiz-adv-x="308" 
d="M-14 -9h-2c-7 1 -12 7 -12 14v2c13 68 28 136 44 203c16 68 33 135 53 201c20 67 42 133 71 196c14 32 30 63 50 92c10 15 21 29 34 41c7 6 14 12 22 17c8 4 17 8 26 10c4 1 8 1 11 1c6 0 12 -1 18 -2c9 -2 18 -7 26 -13c7 -7 12 -15 16 -24c3 -9 5 -18 6 -27
c1 -6 1 -13 1 -19v-8c0 -8 -1 -17 -2 -26c-2 -17 -6 -35 -10 -51c-10 -34 -22 -67 -36 -99s-29 -63 -46 -93c-33 -61 -72 -119 -114 -174c-39 -50 -81 -98 -127 -143c-3 -19 -7 -39 -10 -59c3 7 7 14 11 22c5 7 9 15 14 23c5 7 10 14 16 22c11 14 24 27 40 38
c8 5 17 9 28 10h4c4 0 8 -1 12 -2c5 -1 10 -5 14 -8c4 -4 8 -9 10 -14s3 -11 4 -16v-8c0 -7 -1 -15 -2 -22c-1 -5 -2 -9 -3 -14c-2 -4 -3 -9 -5 -13c-2 -5 -4 -9 -6 -13s-4 -9 -6 -13c-1 0 -1 -1 -1 -2l17 6c17 5 34 11 51 17c16 5 33 12 49 18c9 4 17 7 24 11
c8 4 16 8 23 13c1 1 2 1 4 1s5 -1 6 -3c1 -1 1 -2 1 -4s-1 -5 -3 -6h-1c-16 -9 -33 -15 -50 -21s-34 -12 -51 -17l-51 -16c-8 -2 -17 -5 -25 -8c-7 -12 -16 -23 -25 -34c-13 -14 -26 -27 -42 -38c-8 -5 -16 -10 -26 -14c-9 -3 -19 -6 -29 -6c-2 0 -3 0 -5 1c-2 0 -3 1 -5 1
c-1 1 -3 2 -4 3s-3 2 -4 3c-3 4 -5 10 -5 14v3c0 6 2 11 5 16c4 4 7 7 11 10s8 5 12 7s9 4 13 6c8 4 17 7 25 10c14 5 28 9 42 14c7 9 14 19 20 29c5 7 9 15 13 22c3 8 7 15 9 23c3 8 4 16 4 23s-1 14 -6 19c-4 5 -10 8 -17 8c-4 0 -8 -1 -12 -2c-3 -1 -7 -3 -11 -5
c-7 -4 -14 -9 -20 -15c-7 -6 -13 -12 -18 -18c-12 -14 -22 -28 -31 -44c-9 -15 -17 -31 -24 -47v-1c-3 -5 -8 -8 -13 -8zM47 -42c13 11 24 24 35 37c1 0 1 1 2 2c-11 -4 -21 -8 -31 -12c-9 -3 -17 -6 -25 -10c-8 -3 -16 -7 -22 -13c-3 -2 -5 -5 -7 -8c-2 -4 -3 -7 -3 -10
s2 -6 3 -7s2 -1 3 -2h4c7 1 15 5 21 9c7 4 14 9 20 14zM88 406c-28 -100 -51 -200 -70 -302c91 90 168 195 229 307c17 30 32 61 45 93c14 31 25 64 34 97c4 16 8 33 10 50c1 8 2 16 2 25c0 8 0 16 -1 25c-1 8 -3 16 -6 23s-8 14 -13 19c-6 5 -13 8 -20 10c-4 1 -8 2 -11 2
c-4 0 -8 -1 -12 -2c-7 -1 -15 -4 -22 -8c-6 -4 -13 -10 -19 -15c-12 -12 -22 -25 -31 -39c-19 -28 -34 -59 -48 -90c-14 -32 -26 -64 -37 -97c-11 -32 -21 -65 -30 -98z" />
    <glyph glyph-name="c" unicode="c" horiz-adv-x="272" 
d="M10 1c-4 5 -7 10 -9 16c-3 8 -5 17 -5 25c0 4 0 8 1 12c1 12 4 24 8 35c4 12 9 22 16 33c7 10 14 19 23 28c5 4 10 8 16 11c6 4 13 6 21 7c4 0 8 0 12 -2c4 -1 8 -3 12 -6c3 -3 6 -7 8 -11c1 -3 3 -7 3 -11c1 -3 1 -6 1 -9c0 -4 0 -9 -1 -12c-1 -7 -3 -14 -5 -20
c-2 -5 -8 -9 -13 -9c-2 0 -3 0 -5 1c-5 2 -9 7 -9 13c0 1 0 3 1 5v1c3 5 4 9 6 14c1 4 1 9 1 13c0 1 0 3 -1 5c0 1 -1 2 -2 3c-1 2 -4 3 -8 4c-3 0 -8 -1 -12 -3s-8 -5 -13 -8c-8 -7 -15 -15 -22 -24c-13 -17 -22 -38 -25 -59c-1 -5 -1 -9 -1 -14c0 -6 1 -12 3 -18
c3 -10 10 -18 19 -23s20 -6 31 -6h7c9 0 18 1 27 3c22 5 44 13 65 22c20 9 41 20 60 32c10 6 19 12 29 19c5 3 9 6 14 10c4 3 9 7 12 10c2 2 4 2 5 2c2 0 4 0 5 -2c2 -1 2 -3 2 -5s0 -3 -2 -5c-5 -4 -10 -7 -15 -10c-5 -4 -10 -7 -15 -10c-10 -6 -20 -12 -30 -17
c-20 -11 -41 -22 -62 -31c-22 -9 -44 -17 -66 -22c-12 -3 -24 -5 -36 -5c-11 0 -24 1 -35 7c-6 2 -11 6 -16 11z" />
    <glyph glyph-name="d" unicode="d" horiz-adv-x="359" 
d="M10 25c-4 6 -7 13 -8 20c-1 6 -2 12 -2 18c0 8 1 15 3 23c3 13 8 26 14 38c7 11 16 22 27 31s23 16 39 19h6c5 0 12 -1 18 -3c7 -2 15 -7 20 -13c3 36 8 72 15 108c8 50 20 99 34 147c14 49 30 97 51 143c20 46 45 91 76 131c15 21 33 40 54 55c11 7 23 13 36 17
c6 1 12 2 18 2c7 0 14 -1 21 -3c13 -3 25 -11 33 -23c7 -11 11 -24 12 -37c1 -7 2 -14 2 -22c0 -5 -1 -11 -1 -16c-1 -12 -3 -25 -5 -37c-5 -25 -12 -49 -20 -73s-17 -47 -27 -70c-39 -93 -87 -181 -143 -264c-28 -42 -58 -82 -92 -120c-17 -19 -35 -37 -54 -53v-2
c0 -13 1 -25 2 -37c2 -12 4 -24 8 -36c4 -11 9 -22 19 -27c5 -4 12 -5 18 -5c5 0 9 1 14 2c12 4 23 10 33 16c10 7 20 14 30 22c9 8 18 16 27 25s18 18 26 27s16 19 24 28c8 10 16 20 23 30c1 2 3 3 6 3c1 0 3 -1 4 -2c2 -1 3 -3 3 -5c0 -1 -1 -3 -2 -4v-1
c-17 -19 -33 -38 -51 -56s-36 -35 -55 -51c-10 -8 -20 -16 -31 -23c-10 -7 -22 -13 -34 -17c-7 -2 -13 -3 -20 -3s-14 2 -20 5c-6 4 -11 9 -15 15s-7 12 -9 18c-5 12 -7 25 -9 37c-2 10 -3 21 -4 31c-6 -4 -12 -8 -19 -12c-11 -7 -23 -13 -36 -16c-5 -1 -10 -1 -15 -1h-6
c-7 0 -14 2 -21 5c-7 4 -13 9 -17 16zM165 261c-11 -48 -20 -97 -25 -146c-1 -18 -3 -36 -3 -54c16 13 31 28 45 43c17 18 33 37 49 57c15 20 30 40 44 60c29 41 55 83 79 127c12 22 24 44 35 66s22 45 31 68c10 23 19 46 27 70s14 48 19 72c2 12 4 24 5 37c0 12 0 24 -1 36
c-2 12 -6 24 -12 34c-7 9 -17 16 -28 19c-5 1 -9 2 -14 2c-7 0 -14 -1 -21 -3c-11 -3 -21 -9 -31 -17c-9 -7 -18 -16 -26 -25s-15 -19 -22 -29c-13 -21 -25 -42 -36 -65c-10 -22 -20 -45 -29 -67c-9 -23 -18 -47 -26 -70s-16 -47 -23 -71c-14 -47 -27 -95 -37 -144zM21 82
c-2 -7 -3 -15 -3 -22c0 -4 0 -8 1 -12c2 -10 7 -20 16 -24c5 -3 13 -5 20 -5c4 0 8 0 11 1c11 2 22 7 32 13c9 5 17 11 25 17v49c-6 1 -12 7 -12 14v2s1 0 1 1c1 2 1 5 1 7c0 7 -2 14 -5 18c-4 6 -11 9 -19 9h-3c-10 0 -20 -5 -29 -12c-9 -6 -16 -15 -22 -25
c-6 -9 -11 -20 -14 -31z" />
    <glyph glyph-name="e" unicode="e" horiz-adv-x="244" 
d="M25 140c4 5 8 10 14 15c5 5 11 9 17 12c4 1 8 3 12 3c2 1 4 1 6 1s5 0 7 -1c4 -1 9 -3 13 -7c3 -3 6 -7 7 -12c1 -4 2 -7 2 -11c0 -5 -1 -9 -2 -13c-3 -7 -6 -13 -11 -19c-9 -11 -21 -18 -33 -22c-11 -4 -22 -7 -33 -7c-1 -5 -2 -9 -2 -13c-1 -5 -1 -11 -1 -16
c0 -6 0 -11 1 -16c3 -10 7 -20 14 -28c4 -3 9 -6 13 -9c5 -2 11 -4 16 -5h9c8 0 17 1 25 2c11 3 22 7 33 12c22 9 42 21 62 35c9 6 19 13 28 21s17 16 25 24c1 2 3 3 6 3c1 0 3 -1 4 -2c2 -2 2 -4 2 -6c0 -1 0 -3 -1 -4c-1 0 -1 0 -1 -1c-9 -8 -19 -15 -29 -23
c-9 -7 -19 -14 -29 -20s-21 -13 -31 -19c-11 -5 -22 -11 -33 -16c-11 -4 -22 -9 -34 -11c-10 -2 -20 -4 -30 -4h-7c-6 1 -13 2 -19 4s-12 5 -17 9c-11 8 -19 20 -23 33c-4 9 -5 20 -5 30v9c0 13 3 25 8 37c4 13 10 24 17 35zM65 146c-8 -3 -15 -11 -21 -19
c-6 -9 -11 -19 -15 -29c-1 -1 -1 -3 -1 -4c8 2 15 5 22 8c10 5 19 11 25 19c3 4 5 8 6 12c1 2 1 4 1 6s0 4 -1 5c-1 3 -3 4 -5 5c-2 0 -6 -1 -11 -3z" />
    <glyph glyph-name="f" unicode="f" horiz-adv-x="276" 
d="M-199 -35c-1 1 -1 1 -1 3v3c0 1 1 2 1 3c1 1 1 2 1 2c1 1 1 1 2 1c0 1 0 1 1 1c1 1 2 1 3 2c4 1 7 2 10 3c11 3 23 4 34 6c7 1 14 3 21 4c13 41 26 82 40 123c16 44 33 87 51 130c19 43 39 84 61 126c10 20 22 40 34 60c12 21 24 40 37 59c13 20 27 38 43 56
c8 9 16 17 25 25c4 4 8 8 13 12c2 2 5 3 7 5c3 2 6 3 9 5c5 2 12 4 18 5h4c5 0 11 -2 17 -5c6 -4 10 -10 12 -17s2 -13 2 -20c-2 -13 -6 -25 -12 -36s-13 -21 -20 -31l-1 -1c-2 -4 -7 -6 -11 -6c-3 0 -6 1 -8 3c-4 3 -6 8 -6 12c0 3 0 6 2 8c1 1 2 2 4 3c9 7 17 14 23 22
c4 5 7 9 9 14c3 4 5 9 6 14c1 3 1 5 1 8c0 2 0 5 -1 7c-1 4 -4 8 -7 10c-4 3 -8 4 -13 4c-5 -1 -10 -2 -14 -4c-3 -2 -5 -3 -7 -4c-3 -2 -5 -3 -7 -5c-4 -4 -9 -7 -13 -11c-8 -8 -16 -16 -23 -25c-15 -17 -29 -36 -41 -55c-13 -19 -24 -39 -35 -59s-22 -41 -32 -61
c-19 -42 -37 -84 -55 -127c-17 -43 -33 -86 -48 -129c-13 -37 -25 -74 -36 -111c6 1 13 2 20 3c22 4 45 8 67 14c23 5 45 11 67 18c44 14 86 32 126 56h3c2 0 5 -1 6 -3c1 -1 1 -2 1 -4s-1 -5 -3 -6h-1c-42 -20 -85 -37 -129 -51c-23 -7 -45 -13 -67 -19
c-23 -6 -45 -12 -68 -17l-27 -6c0 -2 -1 -4 -1 -6c-7 -23 -14 -47 -20 -71c11 -21 19 -42 26 -64c15 -45 23 -91 27 -138c3 -23 3 -46 3 -70c-1 -23 -3 -47 -9 -70c-2 -6 -3 -12 -6 -17c-2 -6 -6 -12 -10 -17s-9 -10 -16 -13c-5 -2 -11 -3 -16 -3h-5c-7 1 -14 4 -20 8
c-6 3 -10 8 -14 13c-8 11 -13 23 -16 35s-5 24 -6 35c-2 12 -2 24 -2 36c0 23 1 47 3 70c5 47 13 93 23 138c4 22 9 43 14 64c-3 5 -6 9 -9 14c-7 9 -14 17 -23 24l-3 2l-3 3c-2 1 -4 3 -7 4l-4 4s-1 1 -1 2zM-112 -164c-6 16 -12 31 -19 46c-4 -13 -7 -26 -10 -39
c-10 -45 -19 -90 -24 -135c-3 -23 -5 -46 -5 -68c0 -11 0 -23 1 -34s2 -22 5 -33c3 -10 7 -20 12 -28c3 -4 7 -8 10 -10c4 -3 9 -5 13 -5c2 0 4 -1 6 -1s5 1 7 2c4 1 7 4 10 8c4 4 6 8 9 13l6 15c3 10 5 22 7 33s3 22 3 34v18c0 16 -1 33 -2 50c-5 46 -14 91 -29 134z
M-145 -26l-17 -4c-5 -1 -9 -2 -14 -3l3 -1l3 -3c11 -9 19 -19 27 -30c4 15 8 29 12 43c-5 -1 -9 -1 -14 -2z" />
    <glyph glyph-name="g" unicode="g" horiz-adv-x="484" 
d="M-278 -321l6 8c9 10 19 19 28 29l15 13c5 5 10 9 15 14c20 17 42 33 64 47c22 15 44 29 67 42c46 26 92 51 138 77c1 1 2 1 4 2c3 17 5 35 7 52c3 26 5 51 6 77c0 13 0 26 -2 38c-1 12 -2 25 -6 35c-2 5 -5 9 -7 10c-1 1 -1 1 -2 1s-2 0 -4 -1c-9 -3 -17 -13 -27 -22
l-3 -3v-4c1 -7 2 -13 2 -20c0 -8 -1 -15 -2 -23c-2 -7 -8 -12 -14 -12h-2c-7 1 -12 7 -12 14v2c1 6 1 13 1 19c-10 -9 -21 -17 -32 -25c-21 -16 -43 -30 -69 -41c-6 -2 -13 -5 -20 -6c-4 -1 -9 -2 -13 -2c-3 0 -6 0 -9 1c-8 1 -17 4 -23 11c-3 3 -6 6 -8 10s-3 8 -4 13
c-1 3 -1 7 -1 10c0 5 0 9 1 13c1 8 4 15 7 22c5 13 13 26 22 37l19 19c1 1 2 2 4 3l4 4l4 3c7 4 13 8 20 11s14 6 21 8c7 1 14 2 21 2c9 0 17 -1 26 -3c15 -5 29 -14 39 -27c4 -5 8 -11 10 -16l5 5c1 2 2 3 4 4c5 5 10 11 18 15c4 2 9 3 15 4c5 0 12 -2 16 -5
c5 -3 8 -7 10 -11c3 -3 5 -7 6 -11c3 -7 5 -14 6 -21l3 -21c1 -7 1 -14 1 -20c0 -7 0 -14 -1 -21c-1 -27 -4 -53 -8 -79c-2 -12 -5 -24 -7 -36c37 20 74 42 109 65c22 14 44 29 64 45c21 16 41 33 58 52c2 2 4 2 6 2c1 0 3 0 4 -1c2 -1 2 -3 2 -5s0 -3 -2 -5v-1
c-19 -18 -40 -35 -61 -50c-22 -16 -44 -30 -66 -45c-38 -23 -77 -46 -116 -68c-3 -10 -5 -21 -7 -31c-6 -26 -13 -51 -21 -77c-15 -50 -33 -100 -56 -148c-11 -24 -23 -48 -37 -70c-13 -23 -28 -45 -44 -66s-34 -41 -54 -59c-5 -4 -10 -9 -15 -13s-11 -8 -16 -12
c-12 -7 -23 -14 -36 -20c-12 -5 -25 -10 -39 -12c-5 -1 -11 -1 -17 -1c-8 0 -16 1 -24 3c-14 3 -26 10 -37 20c-10 10 -17 23 -22 36c-4 13 -6 27 -6 41v10c0 4 0 7 1 11c0 3 1 7 1 10l2 10c3 13 7 26 12 39c3 6 5 12 8 19l9 18c4 6 7 11 11 17c2 3 4 6 5 9l6 8
c4 6 8 11 12 16zM-46 60c13 11 25 23 37 36c-2 8 -6 16 -11 22c-10 13 -25 20 -42 20c-4 0 -9 -1 -14 -2c-6 -1 -11 -3 -16 -5s-10 -5 -15 -8l-4 -3l-3 -3c-1 0 -2 -1 -3 -2c-2 -1 -3 -2 -4 -4c-4 -4 -9 -8 -13 -12c-8 -9 -14 -19 -19 -30c-5 -10 -8 -21 -8 -31
c1 -5 2 -9 4 -12c3 -4 7 -7 11 -8c5 -2 11 -2 17 -2s12 2 18 4c12 3 23 10 34 16c11 7 21 15 31 24zM-200 -274c-39 -34 -74 -72 -101 -116c-3 -5 -6 -11 -9 -16c-3 -6 -6 -11 -8 -17c-6 -12 -10 -24 -13 -36s-5 -25 -6 -37c0 -12 1 -25 4 -37c4 -11 10 -22 18 -31l3 -3
l4 -3c2 -2 5 -3 7 -5c2 -1 3 -2 4 -2l4 -2l9 -3c8 -2 15 -3 23 -3c5 0 9 1 14 1c12 2 24 6 36 12c12 5 23 11 33 18c5 4 11 8 16 12l15 12c19 17 36 37 52 58c16 20 30 42 43 65c13 22 24 46 35 70c21 47 38 97 53 147c8 30 15 60 21 91c-11 -7 -22 -13 -32 -19
c-12 -6 -23 -13 -34 -20c-23 -13 -45 -28 -66 -42c-44 -29 -86 -60 -125 -94z" />
    <glyph glyph-name="h" unicode="h" horiz-adv-x="346" 
d="M-52 -64h-3c-7 2 -11 7 -11 13v4c18 70 37 139 57 208c21 69 42 137 66 205c24 67 49 135 80 200c15 33 31 65 50 96c10 15 20 30 31 44c12 14 24 28 40 39c7 5 16 10 25 13c6 1 12 2 18 2c4 0 8 0 11 -1c5 0 10 -2 14 -4c5 -2 9 -5 13 -8c8 -7 13 -16 16 -25
c3 -10 3 -19 4 -29c0 -9 -1 -18 -3 -27c-2 -19 -7 -36 -13 -53c-5 -18 -12 -35 -19 -51c-8 -17 -15 -33 -23 -49c-16 -32 -34 -64 -53 -94c-37 -62 -78 -121 -121 -178c-22 -28 -45 -56 -69 -83c-19 -23 -40 -45 -61 -66c-9 -34 -18 -69 -26 -104c3 6 6 13 9 19
c5 10 10 20 16 29c5 9 11 19 17 28c4 4 7 9 11 13s8 8 13 12c3 2 5 3 9 5c3 1 6 2 10 2s8 0 11 -1c4 -1 7 -3 10 -4c7 -4 11 -9 15 -14s7 -9 10 -14c6 -10 11 -20 15 -29c4 -10 8 -19 13 -26c3 -3 6 -6 10 -8s9 -3 14 -4h5c9 0 17 2 25 4c11 3 21 7 30 11c10 5 19 10 29 15
c9 5 18 11 27 18c8 6 17 12 25 20c8 7 15 14 22 22c1 2 3 3 6 3c1 0 3 -1 4 -2c2 -1 2 -3 2 -5s0 -4 -1 -5c0 0 -1 0 -1 -1c-17 -14 -35 -27 -53 -39c-9 -6 -18 -12 -28 -17c-9 -5 -19 -11 -29 -15c-20 -10 -40 -17 -63 -20h-9c-3 0 -6 0 -10 1c-3 0 -6 1 -9 3
c-3 1 -6 3 -9 5c-11 7 -18 17 -24 27s-10 19 -15 29c-4 9 -9 18 -14 23c-2 3 -5 5 -8 5c-2 1 -4 1 -6 1c-2 -1 -4 -1 -6 -2c-4 -2 -9 -5 -13 -8s-7 -7 -11 -11c-14 -16 -25 -34 -35 -53c-9 -18 -17 -37 -23 -57l-1 -1c-1 -7 -7 -11 -13 -11zM74 360
c-22 -68 -42 -136 -61 -205c-4 -15 -8 -31 -12 -46c42 44 80 91 117 139c43 57 83 116 119 177c18 31 36 62 52 94c15 32 30 64 41 98c6 17 10 34 13 51c2 8 3 17 3 25c0 9 -1 17 -3 25s-6 15 -12 20c-3 3 -6 5 -9 7c-4 2 -8 3 -12 4h-6c-6 0 -12 -1 -18 -2
c-7 -2 -15 -6 -22 -11c-14 -10 -26 -24 -36 -37c-11 -14 -21 -29 -30 -44c-18 -31 -34 -63 -48 -95c-15 -33 -28 -66 -40 -99c-13 -33 -25 -67 -36 -101z" />
    <glyph glyph-name="i" unicode="i" horiz-adv-x="255" 
d="M-72 -47c-3 6 -5 12 -5 18c-1 4 -1 7 -1 10c0 8 2 16 3 23c2 10 5 20 9 30c8 19 18 37 30 53c3 4 7 6 12 6c2 0 5 0 8 -2c4 -3 5 -7 5 -12c0 -3 0 -6 -2 -8c-11 -15 -21 -31 -28 -48c-4 -8 -7 -17 -10 -25c-2 -9 -3 -17 -3 -25c0 -4 1 -7 2 -10c2 -3 4 -5 6 -7
c5 -4 13 -6 21 -7c5 0 9 0 14 1c4 0 9 1 13 1c10 2 19 4 28 7c18 5 36 12 53 21s34 19 50 30s31 22 46 35c8 6 15 12 22 19l10 10c2 2 3 4 5 5c2 2 3 4 4 5c1 2 4 4 6 4c1 0 3 -1 4 -2c2 -1 3 -3 3 -6c0 -1 0 -2 -1 -3c0 -1 -1 -1 -1 -1l-11 -11l-12 -9
c-7 -7 -15 -13 -23 -19c-8 -5 -15 -11 -23 -17s-16 -11 -25 -17c-8 -5 -16 -11 -24 -16c-4 -2 -9 -5 -13 -7c-4 -3 -8 -5 -13 -8c-17 -10 -34 -19 -53 -26c-9 -4 -18 -8 -28 -10c-5 -2 -10 -3 -15 -4s-10 -1 -16 -2c-5 0 -11 1 -17 2s-12 3 -17 7c-6 4 -10 9 -13 15zM13 112
c-9 0 -16 7 -16 15c0 9 7 16 16 16c8 0 15 -7 15 -16c0 -8 -7 -15 -15 -15z" />
    <glyph glyph-name="j" unicode="j" horiz-adv-x="210" 
d="M-782 -343l8 12c3 4 6 8 9 11l4 6l5 6l9 11l10 11l4 5l6 5l10 10l10 11l5 5c2 1 4 3 5 4c8 7 15 13 22 19l6 5c1 1 3 3 5 4l11 9l12 9l5 4l6 4l24 17l12 8l11 8c9 5 16 10 24 15l25 15l24 15c8 5 16 10 25 14l24 15l6 3c4 19 9 38 13 57c9 37 18 74 29 111
c2 6 8 10 14 10c2 0 3 -1 4 -1c6 -2 10 -7 10 -13c0 -2 0 -3 -1 -5c-12 -35 -22 -72 -31 -108l-10 -35l40 23c16 10 33 19 49 29s31 21 47 31c15 11 31 21 46 33c15 11 29 24 43 37c1 1 3 1 4 1c2 0 4 0 6 -2c1 -1 1 -3 1 -4c0 -2 0 -4 -2 -6c-15 -12 -30 -24 -45 -35
c-16 -12 -32 -22 -47 -32c-32 -21 -65 -40 -98 -59c-15 -9 -31 -18 -46 -27l-17 -64c-20 -73 -41 -147 -69 -218c-14 -35 -29 -70 -48 -104c-19 -33 -41 -65 -69 -92c-4 -3 -8 -6 -11 -10c-4 -3 -8 -6 -12 -8c-8 -6 -17 -11 -26 -15c-5 -2 -9 -4 -14 -5c-5 -2 -10 -3 -14 -4
c-5 -2 -10 -2 -15 -3h-15c-6 0 -11 1 -16 2l-7 2l-2 1h-2l-3 2c-10 4 -19 9 -26 16c-8 7 -14 15 -19 24s-9 19 -11 28c-3 14 -5 27 -5 41c0 6 0 13 1 19c2 19 7 38 14 57c7 18 15 36 25 52c3 4 5 9 8 13zM-741 -320c-23 -29 -43 -61 -57 -95c-7 -17 -12 -35 -14 -52
c-1 -7 -2 -14 -2 -22c0 -11 2 -22 4 -32c2 -9 5 -17 9 -25c4 -7 9 -14 15 -20c7 -6 14 -11 22 -14l3 -1l2 -1l1 -1l6 -1c5 -1 9 -2 13 -2h13c5 1 9 1 14 2c4 1 8 3 13 4c4 2 8 3 12 5c8 4 16 8 24 13c3 3 7 6 11 8c3 3 7 6 10 9c13 13 25 27 36 42s20 31 29 48
c18 33 33 67 46 103c25 70 45 143 63 217c3 14 7 28 10 42c-8 -5 -16 -9 -23 -14c-8 -5 -17 -10 -25 -15s-16 -9 -24 -15c-15 -10 -31 -20 -46 -31l-12 -9l-6 -4l-5 -4l-22 -18l-6 -4l-5 -5l-22 -18l-5 -5l-5 -4l-20 -20c-2 -1 -4 -3 -5 -5l-15 -15c-13 -13 -25 -27 -37 -41
zM-384 112c-8 0 -15 7 -15 15c0 9 7 16 15 16s15 -7 15 -16c0 -8 -7 -15 -15 -15z" />
    <glyph glyph-name="k" unicode="k" horiz-adv-x="381" 
d="M-53 -33c-5 2 -7 7 -7 12c0 3 0 5 1 7l1 1c1 2 3 6 4 9l3 6c0 2 1 4 2 6c3 8 5 16 8 24c4 17 9 34 13 50c9 34 18 68 26 102c18 67 35 135 55 202s41 134 68 199c13 32 28 64 47 95c9 15 19 29 31 43c1 2 3 3 4 5l5 5c1 1 3 3 5 4c1 2 3 3 5 5c7 6 14 11 22 15
c9 4 18 6 27 6h5c8 0 16 -2 23 -4c4 -2 8 -4 12 -7c2 -2 4 -3 5 -5c2 -2 4 -4 5 -6c6 -7 9 -16 12 -25c3 -12 5 -25 5 -37c0 -6 -1 -11 -1 -17c-2 -18 -5 -36 -9 -53c-9 -34 -22 -67 -36 -99c-15 -32 -30 -64 -47 -94c-33 -62 -71 -121 -113 -177c-21 -28 -42 -56 -65 -82
c-20 -23 -41 -46 -62 -67c-1 -5 -2 -9 -4 -14c-4 -17 -8 -34 -13 -51c-2 -9 -4 -17 -7 -26c11 14 21 28 32 42c-1 1 -1 1 -1 2c-2 2 -3 4 -4 6c-1 3 -3 5 -4 8v10c1 1 1 1 1 2l2 2c1 1 2 1 2 2c1 0 2 1 3 1h4c2 0 3 0 4 -1h2l1 -1c1 -1 3 -2 5 -2c2 -1 3 -1 4 -2
c11 14 21 29 32 42c7 8 13 15 20 22c3 3 7 6 11 9c3 4 7 7 12 9c4 3 9 5 14 6c3 1 7 1 10 1s5 0 7 -1c6 -1 12 -5 15 -10c4 -5 6 -11 7 -16c0 -3 1 -5 1 -8c0 -9 -3 -17 -6 -25c-5 -9 -12 -17 -19 -25c-8 -7 -16 -13 -25 -18c-9 -4 -19 -8 -29 -10c-7 -2 -14 -3 -21 -3
c-3 0 -7 0 -11 1c-5 0 -10 1 -15 2c-1 1 -2 1 -2 1c3 -6 6 -11 9 -17c10 -15 21 -30 34 -44c6 -6 13 -13 20 -18c4 -3 7 -5 11 -7s8 -3 13 -3h7c6 0 13 1 19 2c9 2 18 5 27 8c35 13 67 33 98 53c31 21 61 44 90 68c1 1 3 1 5 1s4 0 5 -2c1 -1 2 -3 2 -4c0 -2 -1 -4 -3 -6
c-31 -22 -62 -44 -94 -64c-16 -10 -32 -20 -49 -29c-16 -9 -33 -18 -51 -24c-9 -4 -18 -7 -28 -9c-7 -1 -14 -2 -21 -2h-8c-5 0 -10 1 -15 3s-9 5 -13 7c-8 6 -16 12 -23 18l-21 21c-6 7 -12 14 -18 22c-5 5 -9 10 -12 16c-16 -21 -32 -43 -48 -65h-1v-1c-2 -2 -6 -4 -10 -4
c-2 0 -5 1 -7 2zM67 105c-11 -12 -21 -26 -32 -39c7 -2 14 -2 21 -2c6 0 11 0 17 1c8 2 16 5 24 8c8 4 15 9 21 14c4 3 7 6 10 9s5 6 7 10c3 6 6 12 6 19v3c0 7 -4 13 -10 16c-2 1 -4 1 -5 1c-2 0 -4 0 -6 -1c-4 0 -8 -2 -12 -3c-8 -4 -15 -10 -22 -16s-13 -13 -19 -20z
M71 381c-18 -67 -34 -135 -50 -203c-5 -24 -11 -48 -17 -73c43 44 81 90 117 139c21 28 40 57 59 86c18 30 35 60 52 91c32 61 58 126 76 192c4 17 8 34 10 51c1 9 2 18 2 27c0 7 -1 15 -2 22c-2 8 -4 16 -9 23c-1 2 -2 3 -3 5c-2 1 -3 2 -5 4c-3 2 -6 4 -10 6
c-6 2 -12 4 -19 4h-4c-9 0 -16 -2 -24 -6c-15 -7 -28 -19 -38 -32c-11 -13 -20 -28 -29 -43c-17 -30 -31 -62 -43 -94c-25 -65 -45 -132 -63 -199z" />
    <glyph glyph-name="l" unicode="l" horiz-adv-x="258" 
d="M7 58c-2 10 -3 20 -4 30c0 9 -1 17 -1 26c0 32 3 64 7 95c6 40 14 80 25 119c2 9 5 19 7 29c3 9 6 19 9 29c6 19 13 38 20 57c13 37 29 75 47 111c17 36 37 71 59 105c11 17 23 33 36 49c7 7 14 15 21 22s15 14 24 20c8 6 18 11 28 13c5 2 11 2 16 2h5c1 -1 2 -1 4 -1
c2 -1 5 -2 8 -3c2 -1 4 -3 7 -4c2 -2 4 -4 6 -7c3 -4 6 -9 8 -14c3 -10 5 -20 5 -30v-8c0 -18 -2 -36 -5 -53c-4 -19 -9 -39 -14 -58c-11 -38 -25 -76 -41 -113c-31 -74 -67 -145 -111 -212c-22 -34 -45 -66 -70 -98c-25 -30 -52 -60 -83 -85c0 -7 1 -13 2 -19
c1 -10 3 -19 6 -28s7 -17 13 -25c5 -7 12 -13 20 -17c9 -4 18 -6 27 -6h5c8 0 16 1 24 3c18 5 36 13 53 23c9 5 17 10 25 16l24 18c14 13 29 27 41 42c1 2 3 3 6 3c1 0 3 -1 4 -2c2 -1 2 -3 2 -5s0 -4 -1 -5h-1c-14 -15 -30 -28 -46 -40c-15 -13 -32 -24 -49 -34
c-18 -10 -36 -19 -56 -25c-10 -2 -20 -4 -31 -4c-10 0 -21 2 -31 6c-10 5 -19 12 -25 20c-7 8 -13 18 -16 28c-4 9 -7 19 -9 30zM77 377l-18 -57c-11 -37 -20 -76 -28 -114c-7 -39 -12 -78 -12 -117c29 24 54 52 77 81c25 31 47 64 69 97l30 51c10 18 19 35 29 53
c18 35 35 70 51 107c16 36 31 73 42 111c6 19 11 38 14 58c3 16 5 32 5 48v10c0 10 -2 20 -5 28c-2 5 -4 9 -7 12c-1 2 -3 3 -5 5c-2 1 -3 2 -5 3s-4 1 -6 2h-4c-1 0 -2 1 -3 1c-4 0 -9 -1 -13 -2c-9 -3 -17 -7 -25 -13c-7 -6 -14 -13 -21 -20s-13 -14 -19 -22
c-11 -16 -22 -33 -32 -50c-19 -34 -36 -69 -52 -106c-8 -18 -15 -36 -22 -54c-8 -19 -15 -37 -21 -56c-7 -18 -13 -37 -19 -56z" />
    <glyph glyph-name="m" unicode="m" horiz-adv-x="497" 
d="M-43 87c2 6 7 9 13 9c1 0 3 0 5 -1c6 -2 9 -7 9 -13c0 -1 0 -3 -1 -5c0 -1 0 -1 -1 -2c-11 -21 -22 -43 -33 -64l-15 -33c-1 -3 -2 -6 -4 -10c1 2 2 3 3 4c6 10 12 21 18 31c13 21 25 42 39 63c6 10 13 20 21 30c7 10 15 19 23 28c4 5 8 9 13 14c5 4 10 8 15 11
c6 3 12 6 19 7c3 0 5 1 8 1c4 0 9 -1 13 -3c8 -3 13 -9 17 -16c4 -6 6 -13 7 -20c2 -7 2 -14 2 -21c0 -6 0 -12 -1 -18c-4 -25 -11 -49 -18 -72c-2 -8 -5 -15 -7 -23l18 30c6 10 12 21 19 31c6 10 13 21 20 31c8 10 15 20 27 27c3 2 6 4 10 5c4 0 9 0 13 -1c4 -2 8 -5 10 -8
c3 -4 5 -7 6 -10c6 -14 7 -26 10 -37c1 -11 4 -22 8 -30c2 -4 5 -7 9 -10c3 -3 8 -5 13 -7c5 -1 10 -2 16 -3c6 0 12 0 18 1c11 1 23 5 34 8c12 4 23 9 34 14s21 11 31 17c11 6 21 13 30 20c10 8 19 16 26 24c2 2 4 3 6 3c1 0 3 -1 4 -2c2 -2 2 -4 2 -6c0 -1 0 -3 -1 -4
c0 0 -1 0 -1 -1c-10 -8 -20 -15 -30 -22s-21 -13 -31 -19c-22 -12 -44 -23 -67 -31c-12 -5 -24 -8 -36 -11s-24 -5 -38 -5c-7 1 -14 2 -21 6c-7 3 -13 9 -18 15c-4 6 -7 13 -9 20c-2 6 -3 13 -4 19s-1 13 -2 18c0 6 0 12 -1 17c0 3 -1 5 -1 7c-1 2 -2 3 -3 4c-2 1 -3 2 -5 2
s-5 -1 -7 -2c-5 -2 -10 -6 -14 -10s-8 -8 -12 -13c-7 -9 -14 -19 -20 -30c-12 -20 -23 -42 -34 -64c-2 -3 -3 -5 -5 -8c-1 -3 -3 -6 -5 -8c-1 -1 -1 -2 -2 -3s-2 -2 -5 -3h-2c-1 0 -3 0 -4 1c-2 1 -3 3 -4 4c-1 2 -1 3 -1 5c0 4 0 7 1 10c1 13 4 25 6 37c4 24 9 47 12 70
c1 12 2 23 3 34c0 11 -1 21 -9 27c-2 2 -7 3 -11 3h-3c-5 0 -10 -2 -15 -5c-10 -5 -19 -13 -27 -22c-17 -17 -31 -37 -43 -58c-13 -20 -25 -41 -37 -63l-17 -32c-3 -5 -6 -10 -9 -16c-2 -3 -4 -5 -6 -8c-1 -1 -1 -2 -2 -2c-1 -1 -2 -2 -4 -3c0 0 -1 -1 -2 -1s-2 0 -4 1
c-2 0 -3 2 -4 3c-2 2 -2 4 -2 5v7c0 1 0 3 1 5c0 3 1 6 2 9c1 6 3 12 5 18c4 12 8 24 12 35c8 23 18 46 27 68z" />
    <glyph glyph-name="n" unicode="n" horiz-adv-x="350" 
d="M-80 -43c-1 1 -1 3 -1 4c-1 3 -1 6 -1 8c1 10 3 18 5 26c5 17 12 32 19 48c6 15 13 30 21 45c3 5 8 8 13 8c2 0 4 0 6 -1c5 -3 8 -7 8 -12c0 -3 -1 -5 -2 -7c0 -1 0 -1 -1 -2c-9 -13 -17 -27 -25 -41c-8 -15 -16 -29 -23 -43c-3 -8 -6 -15 -7 -22v-7c1 0 2 1 3 2
c3 2 5 5 8 8c2 3 5 7 7 10c4 7 9 14 13 21c17 28 33 57 50 85c9 14 18 28 28 42c6 6 11 13 18 18c6 6 13 12 23 14c4 2 10 2 15 2c5 -1 10 -3 14 -6c5 -3 9 -7 11 -12c3 -4 5 -9 6 -13c3 -10 4 -19 4 -28c1 -4 1 -8 1 -12c0 -5 0 -9 -1 -13c-1 -11 -1 -23 -1 -34v-13
c0 -7 1 -13 4 -19c1 -3 3 -6 5 -8c1 -1 2 -2 4 -3c1 -1 2 -2 4 -3c6 -2 14 -3 21 -3c8 1 16 3 24 5c15 6 30 13 44 21c7 5 13 9 20 14s13 10 19 15c13 11 25 22 34 35c2 2 4 3 6 3c1 0 3 -1 4 -2c2 -1 3 -3 3 -5c0 -1 -1 -3 -2 -4v-1c-13 -12 -26 -23 -39 -33
c-7 -5 -14 -10 -20 -14c-4 -3 -7 -5 -11 -7c-3 -3 -7 -5 -11 -7c-14 -9 -29 -17 -44 -23c-8 -3 -16 -5 -25 -7c-6 -1 -11 -2 -17 -2c-4 0 -7 0 -11 1c-2 1 -5 2 -7 3s-5 2 -7 3c-4 3 -8 7 -11 11c-6 8 -10 17 -12 27c-2 9 -3 18 -3 27c0 8 1 17 2 25c0 8 1 16 2 24
c1 6 1 11 1 16v6c-1 7 -2 13 -6 18c-2 2 -5 4 -8 5c-1 1 -3 1 -5 1c-1 0 -3 0 -5 -1c-6 -1 -13 -5 -19 -10s-12 -10 -17 -17c-11 -12 -20 -26 -29 -40c-17 -28 -32 -57 -48 -86c-4 -8 -8 -15 -12 -22c-2 -4 -5 -7 -7 -11c-3 -3 -6 -7 -9 -10c-2 -1 -4 -3 -8 -4
c-2 -1 -4 -1 -6 -1c-2 1 -4 2 -5 3c-2 1 -3 3 -4 5z" />
    <glyph glyph-name="o" unicode="o" horiz-adv-x="311" 
d="M-7 11c-6 9 -9 19 -9 29v4c0 17 6 33 13 48c3 4 7 7 12 7c3 0 5 -1 7 -2s4 -3 5 -4c0 7 1 14 2 21c2 8 4 16 8 23s9 14 17 19c6 5 13 7 21 7h4c3 0 5 0 7 -1s5 -2 7 -3c4 -2 7 -5 10 -9c6 -7 9 -15 10 -24c2 -8 2 -16 2 -24c-1 -17 -4 -33 -10 -48
c-4 -13 -11 -26 -20 -37l15 -3c8 -1 15 -1 23 -1c7 0 15 0 23 1c30 4 59 14 87 26s55 28 79 47c1 1 3 1 5 1s4 0 5 -2c1 -1 1 -3 1 -5s0 -4 -2 -5c-27 -19 -54 -33 -84 -45c-29 -12 -59 -22 -90 -25c-8 -1 -16 -2 -24 -2s-16 1 -24 2c-7 1 -13 2 -20 4
c-6 -6 -14 -12 -23 -15c-5 -1 -10 -2 -14 -3h-5c-3 0 -7 0 -11 1c-5 1 -10 3 -15 6s-9 7 -12 12zM32 112c-1 -7 -2 -15 -2 -22c0 -8 1 -15 2 -23c2 -7 5 -14 8 -20c4 -7 8 -12 14 -17l4 -4c1 0 1 0 1 1c10 8 19 20 25 33s10 28 11 42c1 4 1 8 1 11c0 4 0 8 -1 11
c-1 7 -3 14 -7 19c-2 3 -4 5 -7 6c-1 1 -3 2 -4 2c-2 1 -3 1 -5 1h-3c-5 0 -11 -2 -15 -4c-6 -4 -10 -10 -14 -16c-3 -6 -6 -13 -8 -20zM14 60c-1 -7 -2 -13 -2 -19s1 -11 4 -15c2 -4 5 -7 10 -8c2 -1 5 -1 8 -1c2 0 6 1 8 1l9 3l-3 3c-13 10 -21 26 -24 41c-1 5 -2 9 -2 13
c-3 -6 -6 -12 -8 -18z" />
    <glyph glyph-name="p" unicode="p" horiz-adv-x="311" 
d="M-455 -538l1 1c41 103 80 206 118 310c19 52 38 104 56 156c19 52 37 105 54 157c2 6 8 10 13 10c2 0 3 0 5 -1c6 -2 10 -7 10 -14c0 -1 -1 -3 -1 -4v-1c-20 -48 -40 -97 -59 -146c8 18 17 36 27 54c14 28 30 55 47 81c9 13 18 26 29 38c10 12 21 24 34 33
c7 5 14 9 22 12c4 2 8 3 13 3s10 0 15 -3c2 -1 4 -3 6 -5s3 -4 4 -7c2 -4 3 -9 4 -13c0 -9 -1 -18 -2 -26c-3 -17 -9 -32 -16 -47c-1 -1 -2 -3 -3 -5c23 9 47 17 72 24c30 8 61 14 93 16c4 0 8 -3 8 -7s-3 -7 -7 -7c-8 0 -16 0 -23 -1c-8 0 -16 -1 -23 -2l-23 -3l-23 -5
c-27 -6 -54 -15 -80 -25c-5 -9 -10 -18 -16 -26c-19 -27 -42 -50 -66 -71c-7 -5 -13 -10 -19 -14c-7 -5 -14 -10 -21 -14c-4 -2 -8 -4 -12 -5c-5 -2 -9 -3 -15 -3c-3 0 -6 1 -9 2c-1 1 -2 1 -3 2c0 0 -1 1 -2 1c-1 2 -2 3 -3 5s-2 4 -2 6s1 3 1 4v4c0 1 1 2 1 3
c3 9 8 16 14 22c5 7 10 12 16 18c13 11 26 19 40 27c20 13 42 24 64 34c8 10 15 20 21 31c7 13 14 26 19 40c2 7 3 14 3 21c0 3 0 6 -1 9s-2 5 -4 6s-5 2 -8 2s-6 0 -10 -1c-6 -2 -13 -5 -19 -9c-13 -9 -24 -20 -34 -31c-10 -12 -20 -24 -29 -37c-17 -26 -33 -53 -48 -80
c-15 -28 -28 -56 -42 -84c-8 -17 -15 -35 -23 -52c-10 -26 -20 -52 -29 -78c-38 -99 -74 -199 -109 -299c-1 -3 -2 -7 -3 -10c0 -1 -1 -1 -1 -2v-1c-2 -5 -6 -8 -11 -8c-1 0 -3 1 -4 1c-4 2 -8 7 -8 11c0 1 1 2 1 3zM-182 -44c20 19 39 39 56 60c-3 -1 -6 -3 -9 -4l-11 -6
l-5 -2l-15 -9c-3 -2 -7 -4 -10 -6l-10 -6c-3 -3 -6 -5 -9 -7s-6 -5 -9 -7l-8 -8c-5 -5 -10 -11 -15 -17c-4 -6 -7 -13 -9 -19v-6h3c2 0 5 1 8 3c3 1 6 3 9 5c6 4 12 8 17 13c6 5 12 10 17 16z" />
    <glyph glyph-name="q" unicode="q" horiz-adv-x="412" 
d="M-101 -444c-1 5 -1 10 -1 15c0 7 0 14 1 21c2 12 4 24 7 36c5 23 12 46 20 68s17 44 26 66c9 21 19 43 29 64c4 9 9 18 13 27c-1 1 -2 3 -2 4c-3 5 -7 9 -10 14c-3 4 -7 8 -11 11c-1 1 -2 1 -3 2h-1l-1 1h-1l-2 2c-1 0 -1 1 -2 3c0 2 0 3 1 4c0 1 1 2 1 2c0 1 1 1 1 1
c0 1 1 1 1 1c1 1 2 1 2 1c2 1 4 2 5 2c6 2 12 4 17 5c12 4 24 7 36 10c17 34 34 67 51 99c11 21 22 42 32 63c6 10 11 21 16 31c4 10 9 21 12 31c1 3 2 5 3 8h-1c-2 -2 -4 -4 -5 -7c-4 -4 -7 -9 -10 -14c-4 -5 -7 -10 -11 -15v-18c-1 -7 -7 -12 -14 -12h-2c-2 0 -3 1 -5 1
c-3 -4 -7 -9 -10 -13c-8 -9 -16 -18 -25 -26c-8 -9 -18 -17 -28 -23c-5 -3 -11 -6 -16 -9c-6 -2 -12 -5 -18 -6c-4 -1 -8 -1 -12 -1c-3 0 -6 0 -9 1c-4 0 -7 2 -10 4c-4 2 -7 4 -9 7c-5 6 -8 13 -10 20c-1 5 -1 10 -1 15v6c1 13 5 26 10 37c2 6 5 12 8 17c2 3 3 6 5 8
c2 3 4 6 6 8c7 11 17 20 27 28c11 8 23 14 37 18c5 1 10 2 15 2h6c8 0 16 -2 23 -6c8 -3 14 -9 19 -15c4 -6 7 -12 9 -18c3 5 6 10 10 15c2 3 3 5 5 8c3 2 5 5 8 8c2 1 4 2 7 3c1 1 2 1 3 1h6c1 -1 2 -1 2 -1c1 -1 2 -1 3 -2c1 0 1 -1 2 -1c0 -1 1 -1 2 -2c0 -1 1 -1 1 -2
c2 -3 3 -6 3 -9c0 -4 0 -8 -1 -11c0 -4 -1 -7 -2 -10c-4 -12 -8 -23 -13 -34s-10 -22 -16 -32c-10 -21 -21 -42 -33 -63l-45 -81c2 0 5 1 7 2c22 7 45 14 67 22c21 8 43 17 65 27c21 9 42 20 62 31c41 23 80 49 114 81c1 1 3 1 4 1c2 0 4 0 6 -2c1 -1 1 -3 1 -4
c0 -2 0 -4 -2 -6c-37 -30 -77 -56 -118 -78c-21 -11 -43 -21 -64 -31c-22 -10 -44 -18 -66 -27c-22 -8 -44 -16 -66 -23l-16 -5c-6 -10 -11 -20 -17 -30c-5 -10 -11 -20 -16 -30c10 -16 19 -33 26 -51c10 -21 18 -44 25 -67s12 -46 15 -70c2 -12 3 -24 3 -36v-18
c0 -6 0 -12 -1 -18s-1 -12 -2 -18c-1 -3 -2 -6 -2 -9l-2 -9c-4 -12 -9 -24 -15 -34c-7 -11 -15 -21 -25 -28c-10 -8 -21 -15 -33 -18c-8 -2 -16 -3 -24 -3c-5 0 -9 0 -13 1c-13 2 -25 7 -34 16c-10 8 -17 19 -22 30c-5 12 -8 24 -8 36zM71 78c4 6 8 12 13 18v1
c0 10 0 21 -3 29c-2 4 -3 8 -6 11c-2 3 -5 5 -8 7s-8 3 -13 3c-3 0 -7 -1 -11 -2c-5 -1 -9 -2 -14 -5c-4 -2 -9 -4 -13 -7c-8 -6 -16 -14 -22 -22c-2 -2 -4 -4 -5 -6c-2 -2 -3 -4 -5 -7c-2 -4 -5 -9 -7 -14c-3 -5 -5 -10 -7 -15c-2 -4 -3 -9 -4 -14c-1 -4 -1 -8 -1 -12
c0 -6 1 -11 3 -15s5 -7 9 -8c4 -2 9 -2 14 -2c11 2 21 7 31 13c9 6 18 13 26 21s16 17 23 26zM-8 -121l9 -12c4 8 7 15 11 23c2 5 5 10 7 14c-9 -2 -18 -5 -27 -8c-4 -1 -9 -3 -13 -5c5 -3 9 -8 13 -12zM-89 -409c-1 -6 -2 -13 -2 -20c0 -5 1 -9 1 -14c0 -11 3 -22 7 -32
c4 -11 11 -20 19 -27s18 -11 29 -13c4 -1 7 -1 11 -1c7 0 15 1 21 3c21 7 38 22 49 42c5 9 9 20 11 31l2 8c0 3 1 5 1 8c1 6 1 12 1 17v17c0 18 -1 35 -3 52c-3 22 -8 45 -14 67c-3 11 -6 22 -10 33l-12 33c-6 14 -12 28 -19 41c-3 -5 -5 -11 -8 -16
c-11 -21 -21 -42 -30 -64c-10 -21 -19 -43 -27 -64c-8 -22 -16 -44 -21 -67c-3 -11 -5 -23 -6 -34z" />
    <glyph glyph-name="r" unicode="r" horiz-adv-x="270" 
d="M11 74c-3 2 -5 5 -7 8c-3 6 -4 12 -4 17s1 10 2 15c1 4 2 8 4 12c3 8 8 16 13 23c2 3 5 6 8 10c4 3 7 6 13 9c2 0 3 1 6 1h7l1 -1h1s1 0 1 -1c1 0 2 -1 3 -2c1 0 2 -1 3 -2c0 -1 1 -2 1 -3c2 -4 2 -7 2 -10s0 -6 -1 -8c-1 -4 -3 -8 -4 -12c-2 -4 -4 -7 -6 -11
c-6 -9 -12 -18 -18 -26c2 0 5 0 9 1h5l3 1h8c1 0 3 0 4 -1c3 0 7 -1 10 -3c3 -3 6 -6 8 -10c0 -2 1 -3 1 -5v-4c0 -6 0 -10 -2 -14c-2 -9 -5 -16 -8 -23l-21 -42c-7 -13 -13 -27 -19 -41c-3 -7 -5 -14 -7 -21c0 -3 -1 -6 -1 -10c0 -3 1 -6 2 -8c0 -2 1 -3 2 -3
c0 -1 1 -1 1 -2h2c1 -1 3 -1 6 -1h3c6 0 13 3 20 6c14 6 27 13 39 22c13 8 25 17 37 26c24 19 47 39 70 60c11 10 22 21 32 32c6 5 11 10 16 16s11 11 15 17c2 2 4 2 6 2c1 0 3 0 4 -1c2 -1 3 -3 3 -6c0 -1 -1 -3 -2 -4c-11 -12 -22 -22 -34 -33c-11 -10 -22 -20 -34 -30
c-23 -21 -46 -40 -71 -59c-12 -10 -24 -19 -37 -28c-13 -8 -26 -17 -40 -23c-7 -4 -15 -7 -23 -8c-4 0 -9 0 -14 2c-1 0 -2 1 -4 1l-3 3c-2 1 -3 3 -4 6c-3 4 -3 9 -3 13v4c0 3 0 6 1 9c1 8 3 15 6 23c5 15 12 29 18 43s12 28 17 42c3 6 5 13 7 20v9s-2 0 -4 -1h-2l-3 -1
l-1 -1h-1c-1 0 -3 -1 -4 -1c-4 -1 -8 -2 -14 -2c-5 0 -10 1 -16 3c-3 2 -6 3 -8 6zM29 117c-2 -6 -3 -12 -3 -17v-1c5 9 10 18 14 27c2 7 5 14 6 20c-1 -1 -2 -2 -2 -3c-2 -2 -4 -5 -6 -8c-4 -5 -6 -11 -9 -18z" />
    <glyph glyph-name="s" unicode="s" horiz-adv-x="229" 
d="M-111 -33c8 8 16 15 25 21c14 10 28 19 43 26c-1 1 -1 2 -2 3l-18 27c-5 10 -11 20 -15 31c-3 10 -6 21 -6 32v5c1 13 4 26 13 37c4 6 9 11 16 15c6 4 14 6 22 6c4 0 8 0 12 -1c4 -2 8 -4 12 -7c7 -5 11 -13 13 -20c0 -1 1 -2 1 -4c0 -6 -4 -11 -10 -13
c-2 -1 -4 -1 -5 -1c-6 0 -11 4 -13 9v1c-1 3 -2 5 -4 6c-1 2 -3 2 -6 2c-5 0 -11 -4 -16 -9c-4 -6 -7 -14 -7 -23v-6c0 -6 1 -13 3 -20c6 -18 18 -36 29 -54c1 -1 2 -3 3 -5c17 8 33 15 50 22l30 12c10 4 20 7 30 11c20 7 41 13 62 18h2c3 0 6 -2 7 -5v-2c0 -3 -2 -6 -5 -6
c-1 -1 -1 -1 -2 -1c-20 -1 -41 -6 -62 -12c-10 -2 -20 -6 -30 -9c-10 -4 -20 -7 -30 -11c-16 -7 -32 -15 -48 -23c3 -5 7 -11 10 -16c5 -10 10 -19 15 -29c9 -21 16 -43 18 -65c0 -12 0 -23 -2 -34s-5 -22 -10 -33c-10 -20 -26 -37 -46 -47c-10 -5 -21 -9 -32 -11
c-5 0 -11 -1 -16 -1c-6 0 -12 0 -17 1c-11 1 -22 5 -32 11c-9 6 -17 15 -23 24c-6 10 -10 21 -12 32v9c0 8 1 16 2 24c5 22 16 42 29 59c7 9 14 17 22 24zM-38 7c-15 -8 -28 -18 -41 -28c-17 -12 -32 -26 -45 -43c-13 -16 -24 -34 -29 -54c-1 -7 -2 -15 -2 -22v-8
c1 -10 5 -20 10 -28c5 -9 12 -16 21 -22c8 -5 18 -9 28 -10c3 0 5 -1 8 -1c2 0 5 1 7 1c5 0 10 1 15 1c11 2 20 6 29 10c9 5 17 12 24 19c6 8 11 17 15 26c5 12 8 25 8 39c0 7 -1 13 -2 20c-3 20 -10 39 -20 57c-8 15 -17 29 -26 43z" />
    <glyph glyph-name="t" unicode="t" horiz-adv-x="226" 
d="M-84 534h-2c-6 0 -11 5 -12 11v4c1 7 3 14 8 20c4 5 9 9 14 12c11 5 21 8 31 10c10 1 20 3 30 3c5 1 10 1 15 1c5 1 10 1 15 1h29c10 0 20 -1 30 -1c17 -1 35 -1 53 -2c0 1 1 2 1 3c11 20 23 41 34 62c6 10 13 20 19 30s13 20 19 30c7 10 14 20 22 30c4 4 9 9 15 14
c3 2 6 4 11 6c3 0 6 1 9 1s6 -1 10 -3c4 -3 7 -7 7 -12c0 -3 -1 -5 -2 -7c-3 -5 -7 -7 -12 -7c-3 0 -6 1 -8 2h2v1c-1 0 -3 0 -5 -1c-4 -2 -8 -5 -13 -9c-8 -7 -16 -15 -23 -24c-14 -18 -27 -38 -38 -58c-12 -20 -22 -39 -33 -59c36 -2 72 -4 107 -5h58c10 1 20 2 29 3
c4 1 9 2 12 3h1c2 6 7 10 13 10c8 0 14 -6 14 -14v-3c-1 -2 -1 -3 -1 -4c-1 -1 -1 -2 -2 -3l-2 -2c-2 -3 -5 -4 -7 -5c-4 -2 -7 -3 -10 -3c-6 -1 -11 -1 -17 -1c-10 0 -20 1 -30 1c-10 1 -20 2 -29 3l-30 3c-36 3 -73 7 -110 8l-27 -57c-19 -43 -37 -86 -54 -130
c-8 -22 -15 -44 -23 -67c-7 -22 -15 -44 -21 -66c-7 -23 -13 -45 -19 -68c-3 -11 -5 -22 -8 -34c-2 -11 -4 -22 -7 -34c-2 -11 -3 -23 -5 -34c-1 -11 -3 -23 -3 -34c0 -6 -1 -12 -1 -17c0 -6 1 -11 1 -17c1 -12 3 -23 7 -33c3 -10 9 -20 16 -27c8 -7 18 -10 29 -10
s22 3 32 8c11 4 21 10 30 17c19 13 36 29 52 47c15 17 29 36 40 56c1 3 4 4 7 4c1 0 2 0 3 -1c2 -1 4 -4 4 -7c0 -1 0 -2 -1 -3c-1 0 -1 0 -1 -1c-14 -19 -29 -37 -46 -54c-16 -18 -33 -34 -53 -48c-9 -7 -20 -13 -31 -19c-5 -2 -11 -4 -17 -6s-12 -3 -18 -3h-5
c-5 0 -10 1 -15 2c-6 2 -12 5 -17 9c-11 8 -18 19 -23 31c-4 11 -7 24 -9 36s-2 24 -2 36c0 24 2 48 5 72c8 47 20 93 33 138c8 23 15 45 23 67c8 23 17 45 25 67c18 43 37 87 58 129c8 18 17 35 26 52c-17 1 -33 1 -50 1h-29c-9 0 -19 -1 -29 -2c-4 0 -9 0 -14 -1
s-10 -1 -14 -2c-10 -2 -19 -3 -28 -6s-17 -6 -24 -11c-3 -2 -5 -5 -7 -8c-1 -2 -1 -4 -1 -7v-2c0 -6 -5 -11 -11 -12zM351 595l-1 -1c1 0 1 1 1 1z" />
    <glyph glyph-name="u" unicode="u" horiz-adv-x="370" 
d="M81 26c13 21 25 43 34 66c1 4 1 7 2 11c1 1 1 3 2 5s1 4 2 6c2 5 7 8 12 8c2 0 3 0 5 -1c5 -2 8 -7 8 -13c0 -1 -1 -3 -1 -4c-1 0 -1 -1 -2 -2c-7 -12 -13 -27 -13 -43c0 -9 2 -18 7 -26c3 -6 7 -10 12 -14s11 -6 17 -8c5 -1 11 -2 17 -2c7 0 15 1 22 2c14 2 27 6 39 10
c13 5 26 11 38 17s23 14 34 22c6 4 11 8 16 12c5 5 10 9 14 14c2 2 4 3 6 3c1 0 3 -1 4 -2c2 -1 3 -3 3 -6c0 -1 -1 -3 -2 -4v-1c-6 -5 -12 -9 -17 -13l-18 -12c-12 -7 -24 -14 -37 -20c-25 -12 -51 -23 -78 -28c-9 -2 -18 -3 -28 -3c-5 0 -10 0 -15 1c-7 2 -15 4 -21 9
c-7 4 -12 9 -17 15c-9 13 -13 28 -13 43c-1 -1 -2 -3 -2 -5c-7 -14 -15 -28 -23 -41c-8 -14 -18 -27 -28 -39c-5 -6 -11 -11 -17 -17c-7 -5 -14 -10 -21 -13c-8 -4 -17 -7 -26 -8h-4c-8 0 -16 2 -24 7c-4 3 -8 7 -11 11c-2 5 -4 9 -6 14c-1 4 -2 9 -3 13v14c1 17 6 34 11 49
c3 8 7 15 10 23l12 21c3 5 7 7 12 7c2 0 5 -1 7 -2c5 -3 7 -7 7 -12c0 -2 -1 -5 -2 -7c-4 -7 -8 -13 -11 -20c-4 -6 -7 -13 -10 -20c-6 -13 -10 -27 -12 -41c0 -3 -1 -6 -1 -8c0 -4 1 -7 2 -11c1 -6 4 -11 7 -15c4 -3 10 -5 16 -6c7 0 14 0 21 3c6 2 13 6 19 10s11 9 17 15
c5 5 10 11 15 17c4 6 9 13 13 19z" />
    <glyph glyph-name="v" unicode="v" horiz-adv-x="386" 
d="M16 33l-2 9c-3 13 -6 25 -11 38c0 1 -1 2 -1 3c0 6 4 11 10 13c1 0 3 1 4 1c5 0 10 -3 12 -9c0 -2 1 -3 1 -5c0 -5 -1 -11 -1 -16c0 -7 1 -14 2 -22c0 -3 0 -6 1 -10c0 -3 0 -6 1 -9c1 -6 4 -12 5 -18c2 -6 3 -12 5 -18c0 -1 1 -2 1 -4c4 3 8 7 13 10l40 40
c8 10 16 19 24 29l24 30c7 9 13 19 19 29c2 6 7 10 13 10c2 0 3 0 5 -1c6 -2 10 -7 10 -13c0 -1 0 -3 -1 -4c0 -2 -1 -3 -1 -4l-6 -9c-1 -3 -3 -7 -5 -10c-3 -6 -5 -13 -7 -20s-4 -14 -5 -21c0 -3 -1 -7 -1 -10c0 -4 1 -7 1 -10c1 -7 4 -13 8 -18c4 -4 11 -7 17 -9
c4 -1 8 -2 12 -2c3 0 6 1 9 1c8 0 15 2 22 3c14 4 28 9 42 14c14 6 27 13 40 20c26 14 52 30 75 48v1c1 1 2 1 4 1s5 -1 6 -3c1 -1 1 -3 1 -4c0 -2 0 -4 -2 -6h-1c-26 -16 -52 -30 -79 -44c-14 -7 -27 -13 -41 -19s-29 -11 -43 -15c-8 -2 -15 -3 -23 -4c-3 0 -7 -1 -10 -1
c-5 0 -9 1 -14 2c-7 1 -16 4 -22 10s-10 14 -13 22c-2 8 -3 16 -3 24s1 16 2 24c1 7 2 13 4 20c-10 -13 -20 -25 -30 -37l-24 -30c-8 -10 -16 -20 -25 -29c-4 -5 -8 -10 -13 -15c-2 -2 -5 -4 -7 -7c-3 -2 -5 -4 -8 -6c-1 -1 -2 -2 -3 -2l-1 -1h-1c-1 0 -1 -1 -2 -1h-4
c-2 0 -4 1 -4 2c-2 1 -3 3 -4 4c-1 2 -2 3 -3 5s-1 3 -2 5c-1 3 -2 7 -3 10s-1 6 -2 9c-1 7 -2 13 -3 20c0 3 -1 6 -2 9z" />
    <glyph glyph-name="w" unicode="w" horiz-adv-x="418" 
d="M-10 7c-5 5 -6 12 -7 18c-1 4 -1 7 -1 10c0 8 2 16 3 23c2 11 5 21 9 31c2 6 7 10 13 10c1 0 3 0 5 -1c6 -2 10 -7 10 -14c0 -1 -1 -3 -1 -4c-1 -1 -1 -2 -2 -2c-5 -9 -9 -17 -12 -26c-2 -4 -3 -9 -4 -13s-2 -9 -2 -13s1 -7 2 -9c2 -3 4 -4 7 -4h3c3 0 6 0 9 1
c4 2 8 4 11 6c4 3 8 6 11 10l10 10c6 8 11 16 16 25c5 8 10 17 14 26c0 2 1 5 1 7l3 12l1 6c1 2 1 4 1 5c1 7 8 12 14 12h2c7 -1 12 -7 12 -14v-5h-1c-1 -3 -1 -4 -2 -6l-2 -6c-2 -4 -3 -7 -5 -11c-3 -7 -5 -15 -8 -22c-2 -7 -4 -15 -6 -22c-2 -8 -3 -16 -4 -23
c0 -4 -1 -8 -1 -11c0 -4 1 -8 1 -12c0 -7 3 -14 6 -19c2 -3 5 -5 7 -6c3 -2 6 -3 10 -4h4c5 0 11 1 16 4c6 3 12 8 17 14c5 5 10 12 14 18c8 14 15 28 21 43c5 15 10 30 14 45c2 11 4 22 6 32v3c1 4 1 7 2 11c0 1 0 2 1 2v1c2 5 7 9 13 9h2c7 -1 12 -8 12 -14v-2
c0 -1 -1 -2 -1 -3l-3 -9c-1 -4 -2 -7 -3 -10c-2 -7 -3 -13 -4 -20s-2 -13 -3 -20v-20c1 -6 2 -13 4 -19s5 -11 9 -16c4 -4 9 -8 15 -9c6 -2 13 -3 19 -3c14 0 27 4 40 8c13 5 25 12 38 18c11 8 23 15 34 24c6 4 11 8 16 13c3 2 5 5 8 7l7 7c1 2 3 3 5 3c1 0 3 -1 4 -2
c2 -1 3 -3 3 -6c0 -1 0 -3 -1 -4h-1v-1c-3 -2 -6 -4 -9 -7l-9 -6c-6 -4 -11 -8 -17 -12c-12 -8 -24 -15 -37 -22c-12 -7 -25 -13 -38 -19c-13 -5 -27 -9 -42 -10c-3 0 -6 -1 -10 -1s-8 1 -13 2c-3 1 -7 3 -11 5c-3 1 -7 4 -10 7c-6 5 -10 12 -13 19s-5 15 -6 22
c-2 7 -2 15 -3 22c-3 -9 -7 -19 -11 -28c-6 -15 -13 -30 -21 -44c-4 -7 -9 -14 -14 -20c-6 -6 -12 -12 -20 -17c-6 -3 -14 -5 -21 -5h-5c-4 0 -9 1 -13 4c-4 2 -8 5 -11 9c-6 7 -9 16 -11 24c-1 9 -2 17 -2 26c1 13 2 25 4 37l-1 -1c-4 -9 -10 -18 -16 -26
c-5 -9 -12 -17 -20 -24c-4 -4 -9 -7 -14 -9c-5 -3 -11 -4 -18 -4c-3 0 -7 0 -10 2c-4 1 -7 4 -9 7z" />
    <glyph glyph-name="x" unicode="x" horiz-adv-x="298" 
d="M-80 -38c2 0 5 0 7 -1c0 0 1 0 1 1c4 2 9 5 13 8l24 21c9 8 17 16 25 24c-4 6 -8 11 -11 17c-4 7 -8 14 -12 22c-2 4 -4 8 -6 11c-2 4 -3 8 -5 13c0 1 -1 3 -1 4c0 7 4 12 10 14c2 1 3 1 5 1c5 0 11 -4 13 -10c0 0 0 -1 1 -2c0 -4 1 -7 2 -11c1 -3 2 -7 3 -11
c2 -7 5 -14 8 -21c2 -4 4 -9 6 -13c3 3 5 6 8 8c15 16 29 33 43 49l21 25c4 4 7 8 11 13c2 2 4 4 7 6c1 1 2 2 4 3c1 1 2 2 4 2c1 1 1 1 3 1h5c5 -2 8 -6 8 -11c0 -1 -1 -3 -1 -4c-1 -4 -12 -7 -12 -7c-2 -1 -4 -3 -6 -4c-4 -3 -8 -6 -12 -10c-9 -6 -17 -14 -24 -21
c-16 -15 -30 -31 -45 -47c-3 -4 -6 -7 -9 -11c4 -6 8 -13 13 -19c5 -5 10 -11 16 -15c6 -5 12 -9 19 -11c1 0 3 0 5 -1h5c4 0 7 0 11 1c8 1 15 3 22 6c30 10 58 27 84 45c6 4 13 9 19 14c7 5 13 10 19 14c13 10 25 21 36 32h1c1 1 3 2 5 2c1 0 3 -1 4 -2c2 -1 2 -3 2 -5
s0 -4 -2 -5v-1c-27 -19 -53 -38 -80 -55c-13 -9 -27 -18 -41 -26s-28 -16 -43 -22c-8 -3 -16 -6 -24 -8c-4 0 -8 -1 -13 -1h-7c-2 0 -4 0 -6 1c-9 2 -17 6 -24 11c-7 4 -14 10 -20 16c-4 5 -9 10 -13 15c-7 -8 -14 -16 -21 -25l-21 -25c-3 -5 -7 -9 -11 -13
c-2 -2 -4 -5 -7 -7c-1 -1 -2 -1 -3 -2c-1 0 -2 -1 -4 -2h-2c-1 0 -1 0 -2 -1c-1 0 -2 0 -3 1c-2 0 -3 0 -4 1c-2 0 -3 1 -4 2c-2 2 -2 3 -3 4s-1 2 -2 3c0 1 0 2 -1 2v2c0 7 5 13 12 15z" />
    <glyph glyph-name="y" unicode="y" horiz-adv-x="400" 
d="M-334 -222l27 21c9 7 19 14 28 21l14 10c5 3 10 6 14 9c20 13 39 25 59 37c39 24 79 47 119 69l6 3c0 2 1 5 1 8c1 16 2 33 2 49v18c0 11 -1 22 -2 33s-3 22 -6 32c-1 4 -3 9 -5 12c-1 1 -2 1 -3 2h-3c-1 0 -2 0 -4 -1c-1 -1 -3 -2 -5 -4c-3 -3 -7 -7 -10 -12
c-7 -8 -13 -18 -20 -28c-6 -9 -13 -19 -20 -28c-4 -5 -7 -9 -11 -14c-4 -4 -7 -9 -12 -13c-8 -8 -18 -16 -30 -20c-4 -1 -9 -2 -14 -2h-5c-7 1 -13 4 -18 9c-5 4 -9 10 -11 16c-3 6 -4 13 -5 19c-1 5 -1 9 -1 14c0 8 1 16 2 23c2 6 2 7 4 13l6 18c2 5 8 9 13 9c2 0 3 0 5 -1
c6 -2 10 -7 10 -14c0 -1 -1 -3 -1 -4c-1 -1 -1 -2 -2 -3c-6 -9 -11 -13 -14 -23c-4 -10 -6 -21 -6 -31v-4c0 -9 3 -18 8 -24c3 -3 7 -6 12 -7h4c4 0 7 0 10 1c5 2 10 4 15 7l3 2l3 3c2 1 4 3 6 5c8 8 15 17 22 26l9 15c3 5 5 10 8 15c5 10 10 20 16 30c3 6 6 11 10 16l8 8
c4 2 8 4 12 5h10c2 0 3 -1 4 -1c5 -2 9 -5 11 -8c6 -7 8 -13 10 -19c5 -12 6 -24 8 -36c1 -12 1 -24 1 -36c0 -21 -1 -42 -3 -63c31 17 62 34 92 52c20 12 39 24 59 36c9 6 19 13 28 19c10 7 19 13 28 20c1 1 3 1 5 1s4 0 5 -2s1 -4 1 -5c0 -2 0 -4 -2 -5h-1
c-19 -13 -39 -25 -58 -37c-20 -12 -40 -24 -60 -35l-60 -33l-38 -21c-3 -22 -7 -44 -11 -65c-9 -46 -21 -90 -35 -134c-7 -22 -15 -44 -24 -66c-8 -21 -18 -42 -28 -63c-21 -42 -45 -82 -74 -118c-15 -18 -31 -36 -49 -51c-5 -4 -9 -8 -14 -12l-7 -5c-2 -2 -5 -4 -7 -6
c-2 -1 -5 -3 -7 -5l-8 -5c-5 -3 -11 -6 -16 -8c-12 -5 -23 -10 -36 -12c-7 -2 -14 -2 -21 -2c-5 0 -11 0 -17 1c-13 2 -26 7 -37 15c-11 7 -20 17 -27 27c-1 3 -3 6 -5 9l-4 8l-6 18c-3 12 -5 24 -5 36v18c0 3 0 6 1 9c0 3 0 6 1 9l1 9c1 3 1 5 2 8s1 6 2 9l2 9
c7 22 17 44 28 64c12 20 25 39 40 57c14 18 31 35 47 51c9 8 18 15 26 23zM-261 -176l-14 -9c-9 -7 -19 -14 -28 -21s-18 -14 -26 -22c-9 -7 -18 -15 -26 -23c-16 -15 -32 -32 -46 -50s-26 -37 -37 -57c-10 -20 -18 -41 -23 -63l-2 -8c-1 -3 -1 -6 -1 -8c-1 -3 -1 -6 -2 -9
v-8c-1 -3 -1 -5 -1 -8v-8c0 -6 0 -11 1 -17c0 -2 1 -5 1 -8l2 -8c0 -2 1 -5 2 -7c0 -2 0 -3 1 -4l1 -4l6 -15l4 -6c1 -3 3 -5 4 -7c12 -16 29 -28 49 -31h8c7 0 14 0 21 1c10 2 20 6 30 10c5 3 10 5 14 8l7 4c2 2 4 3 7 5c2 1 4 3 6 4l7 6c4 3 9 7 13 10c17 14 33 30 48 47
s28 35 41 53c13 19 25 39 35 59c11 20 21 40 30 61c8 21 16 42 23 64c15 43 25 88 32 133c3 17 5 34 6 50h-1c-40 -22 -80 -44 -120 -68c-19 -11 -39 -23 -58 -36c-5 -3 -10 -6 -14 -10z" />
    <glyph glyph-name="z" unicode="z" horiz-adv-x="349" 
d="M-313 -168l12 9c7 5 15 11 22 16c8 6 16 11 23 16c8 6 16 11 24 16s16 11 24 15l11 8l12 7l24 15c8 5 15 9 23 13c-1 4 -2 7 -4 10c-6 16 -17 28 -32 33c-4 1 -8 3 -12 3c-4 1 -8 1 -12 1h-13c-2 0 -4 -1 -6 -1c-1 0 -2 0 -3 -1h-3c-1 0 -2 -1 -3 -1c-5 0 -9 4 -11 9v3
c0 3 1 6 3 7c0 1 1 1 1 2h1l1 1c24 13 47 27 69 43c11 8 21 17 31 26c5 5 9 10 13 15s7 11 8 16c1 2 1 3 1 4s0 2 -1 3c0 2 -2 4 -3 5c-2 2 -4 3 -6 3c-2 1 -5 1 -8 1c-5 0 -12 -2 -18 -4c-6 -1 -12 -4 -18 -7c-24 -12 -47 -27 -66 -45c-3 -2 -6 -4 -10 -4s-7 2 -10 5
c-2 3 -4 6 -4 10c0 3 2 7 5 10c0 0 1 0 1 1c12 8 24 16 37 23s25 13 39 19l21 6c8 2 15 3 23 3c4 0 9 0 13 -2s9 -4 12 -8c2 -2 3 -4 4 -6l3 -6v-4c0 -4 0 -7 -1 -10c-2 -9 -7 -15 -11 -21c-5 -6 -10 -11 -16 -16c-10 -9 -22 -17 -33 -25c-12 -8 -24 -16 -36 -23l-15 -9h9
c6 0 11 -1 16 -2s10 -2 15 -5c5 -1 10 -4 14 -7c3 -2 5 -3 7 -5l6 -6c7 -8 13 -17 16 -27c1 -2 2 -4 3 -7c11 7 22 13 33 19c33 19 66 36 99 54c17 9 33 18 49 27c16 10 32 19 47 30c1 1 3 1 5 1s4 0 5 -2c1 -1 1 -3 1 -4c0 -3 -1 -5 -3 -6c-16 -11 -33 -20 -49 -29
c-17 -9 -34 -17 -50 -26c-34 -17 -67 -34 -100 -52c-12 -6 -23 -13 -35 -19c4 -15 4 -30 4 -44c0 -20 -1 -39 -3 -57c-5 -38 -12 -75 -21 -112c-5 -18 -10 -36 -16 -54s-13 -36 -20 -53c-7 -18 -15 -35 -23 -52c-9 -17 -19 -33 -29 -49c-5 -8 -11 -15 -16 -23
c-6 -8 -12 -15 -18 -22c-12 -15 -25 -28 -40 -40c-14 -13 -30 -24 -48 -31c-14 -5 -29 -9 -44 -9c-4 0 -9 0 -13 1c-5 0 -10 2 -15 3c-4 2 -9 3 -13 6c-9 4 -17 10 -25 17c-7 7 -13 14 -18 23c-5 8 -10 17 -13 27c-7 18 -10 38 -10 58s3 39 8 58c3 9 6 18 9 28
c4 9 8 18 12 26c8 18 18 34 29 50c21 32 47 60 75 85c14 13 29 26 43 37c4 3 8 6 11 9zM-273 -150c-15 -11 -30 -23 -43 -35c-15 -13 -28 -25 -41 -39c-26 -26 -49 -55 -69 -86c-5 -7 -10 -15 -14 -23s-8 -17 -12 -25c-7 -16 -14 -33 -18 -51c-4 -17 -7 -35 -8 -53v-12
c0 -13 1 -27 4 -40c4 -18 12 -34 23 -48c6 -6 13 -12 21 -16l12 -6c4 -1 8 -2 13 -3s9 -1 14 -1c13 0 26 3 39 8c17 7 32 18 46 30s27 25 38 39c6 7 12 15 17 22c6 8 11 16 16 23c20 32 35 66 49 100c7 18 13 35 18 53c6 18 10 36 15 54c8 36 14 72 18 109c1 19 2 37 2 55
c0 10 -1 19 -2 27c0 3 -1 5 -1 8c-48 -28 -94 -57 -137 -90z" />
    <glyph glyph-name="braceleft" unicode="{" horiz-adv-x="385" 
d="M160 403c-6 -11 -12 -23 -19 -34c-4 -6 -9 -12 -13 -18c1 -2 2 -5 2 -8c2 -7 3 -14 3 -21s0 -14 -1 -21s-2 -13 -4 -20l-3 -9l-1 -5l-2 -5c-7 -24 -16 -48 -24 -72l-27 -72c-4 -12 -9 -24 -13 -36s-9 -23 -13 -35c-8 -24 -16 -48 -22 -73c-3 -12 -5 -24 -6 -36
c0 -12 2 -24 7 -31c3 -4 7 -6 11 -8c5 -2 10 -4 15 -4c4 -1 9 -1 13 -1c7 0 15 1 22 2h3c8 0 15 -5 16 -14v-3c0 -8 -5 -15 -14 -16h-4c-7 0 -14 1 -21 2s-14 2 -21 4c-7 3 -14 5 -20 10c-7 4 -13 10 -17 17s-6 15 -7 22c0 7 0 14 1 21c1 14 4 26 8 39c6 25 15 49 23 73
l13 36c4 12 8 24 13 36c16 48 31 97 45 145l1 5l1 4l3 9l3 18v17c0 4 0 7 -1 11c-3 -3 -6 -6 -9 -8s-6 -4 -10 -6c-3 -2 -7 -4 -13 -4c-2 0 -5 0 -8 1c-3 0 -6 2 -8 4c-5 3 -7 8 -9 13c-1 4 -2 7 -2 12s0 10 2 14c1 2 2 4 4 6c1 2 3 4 4 6c2 1 4 2 6 4l6 3c5 2 10 3 15 3
c3 0 7 -1 11 -2c6 -1 12 -5 17 -9c10 13 20 28 29 43c12 21 23 44 32 67c5 12 10 24 14 36l36 108c8 25 16 49 25 73c4 12 9 24 15 36c5 12 12 23 22 34c5 5 11 10 19 13c5 2 12 3 17 3h6c8 0 15 -1 22 -3s13 -4 20 -6s11 -8 11 -15c0 -1 -1 -3 -1 -4c-2 -7 -8 -12 -16 -12
c-1 0 -2 1 -4 1c-1 1 -2 1 -3 2h-1c-5 3 -10 7 -15 9c-3 1 -5 2 -8 3c-2 1 -5 2 -7 3c-2 0 -5 1 -7 1c-8 0 -15 -3 -21 -8c-4 -3 -8 -8 -12 -12c-2 -3 -3 -5 -5 -8c-2 -2 -3 -5 -5 -8c-6 -10 -11 -22 -16 -34c-10 -23 -18 -47 -26 -71c-4 -12 -8 -24 -11 -36l-12 -37
c-3 -12 -7 -24 -11 -36c-4 -13 -8 -25 -12 -37c-9 -24 -19 -48 -31 -71zM89 341c4 3 8 7 12 11c-2 2 -5 4 -8 5c-2 0 -3 1 -5 1s-5 -1 -7 -2c-1 0 -1 -1 -2 -1c-1 -1 -2 -1 -2 -2c-1 0 -2 -1 -2 -1c0 -1 -1 -2 -1 -3c-1 -1 -1 -3 -1 -4c0 -2 0 -5 1 -6c0 -2 1 -3 1 -3h1
s0 -1 1 -1c1 1 3 1 5 2s4 2 7 4z" />
    <glyph glyph-name="bar" unicode="|" horiz-adv-x="295" 
d="M3 -2c-1 1 -1 2 -1 2v2c0 6 3 11 8 12h1s1 0 1 1c2 3 4 6 6 10c4 7 7 14 11 22l21 45c6 16 13 31 19 47c7 15 13 31 19 46c13 31 25 62 37 94c12 31 24 63 35 94l17 47l17 48c11 32 22 63 32 95c2 8 5 16 7 24c3 8 5 16 8 24c4 17 9 33 13 49s8 32 11 49c1 8 3 16 4 24
v11c-2 2 -3 5 -3 7v4c0 6 4 11 11 13h6l6 -3c4 -3 5 -6 5 -7c2 -4 2 -6 2 -8c0 -3 -1 -5 -1 -8c-1 -5 -2 -9 -3 -13c-2 -9 -5 -17 -7 -25c-5 -17 -11 -33 -16 -49l-32 -95l-33 -96l-33 -95l-69 -189l-18 -47c-6 -16 -12 -32 -18 -47c-6 -16 -12 -32 -19 -47
c-3 -8 -7 -16 -11 -24c-1 -4 -3 -8 -6 -12c-1 -2 -2 -4 -4 -6l-2 -2c-1 -1 -1 -2 -4 -3c0 0 -1 -1 -2 -1h-1c-1 -1 -1 -1 -2 -1c-3 0 -6 1 -9 3c0 1 0 1 -1 1c0 1 -1 1 -1 2c0 0 -1 1 -1 2z" />
    <glyph glyph-name="braceright" unicode="}" horiz-adv-x="383" 
d="M280 375c-1 -6 -3 -12 -4 -17c-1 -7 -2 -15 -2 -22c0 -4 0 -8 1 -12c0 -4 2 -8 4 -12c0 1 1 2 2 2c6 4 12 8 19 11c4 1 8 3 13 3c2 0 5 -1 8 -2c3 0 6 -2 8 -5c3 -2 4 -5 5 -8c1 -2 1 -5 1 -7v-3c-1 -4 -2 -6 -4 -9c-1 -2 -3 -4 -5 -5c-4 -3 -7 -5 -11 -7l-12 -3h-6
c-6 0 -12 1 -18 3c0 1 -1 1 -1 1c-15 -16 -29 -34 -41 -54c-12 -21 -23 -43 -32 -66c-5 -11 -9 -23 -13 -34l-12 -36l-23 -71c-7 -24 -15 -47 -24 -71c-4 -12 -9 -23 -14 -35c-6 -12 -13 -23 -23 -33c-5 -5 -12 -10 -20 -13c-5 -1 -11 -2 -17 -2h-6c-15 1 -27 5 -40 10
c-7 2 -11 8 -11 15c0 1 1 3 1 4c2 6 9 11 15 11c2 0 3 0 5 -1c1 0 2 -1 3 -1c10 -7 21 -12 30 -14c5 -1 10 -1 14 -1c5 1 9 3 13 6c8 7 15 17 21 27s12 21 17 32c9 23 18 46 26 70c8 23 15 47 22 71l11 35l12 36c8 24 18 47 30 70c6 11 12 22 20 32c6 10 13 18 20 27
c0 0 -1 1 -1 2c-5 7 -7 15 -7 22c-1 4 -1 8 -1 12c0 10 2 20 3 28c2 7 3 13 5 19l6 18c16 48 33 94 51 141l13 35c4 11 8 23 12 35c9 23 17 47 22 70c3 12 5 24 5 36s-2 23 -8 31c-6 7 -16 11 -27 12c-4 1 -8 1 -13 1c-7 0 -14 -1 -21 -2h-2c-7 0 -13 5 -14 12v2
c0 7 5 13 12 14h3c7 0 13 -1 20 -2c6 -1 13 -2 20 -4c6 -2 13 -4 20 -8c6 -4 12 -9 16 -16c4 -6 6 -13 7 -20s1 -14 1 -21c-1 -13 -4 -25 -7 -37c-2 -6 -4 -13 -5 -19l-6 -17l-12 -36l-24 -70c-17 -47 -32 -95 -45 -142c-2 -6 -3 -12 -5 -18zM311 305c-1 0 -2 0 -4 -1
c-1 0 -3 -1 -5 -2c3 0 6 2 9 3z" />
    <glyph glyph-name="asciitilde" unicode="~" horiz-adv-x="495" 
 />
    <glyph glyph-name="exclamdown" unicode="&#xa1;" horiz-adv-x="316" 
d="M243 605c2 7 3 14 5 20c0 3 0 5 1 7c-1 1 -1 2 -2 3c-1 2 -1 4 -1 6c0 6 3 12 9 14c2 1 3 1 5 2h4c1 0 2 -1 4 -1c3 -1 6 -4 7 -5s1 -2 2 -3v-1l1 -1v-2l1 -1v-5c0 -4 -1 -6 -1 -8l-3 -12c-2 -7 -5 -14 -7 -21c-5 -13 -10 -27 -16 -40l-32 -80c-21 -54 -43 -107 -64 -160
c-10 -27 -21 -53 -31 -80l-30 -81c-10 -27 -19 -54 -29 -81c-9 -27 -18 -54 -26 -82c-3 -9 -10 -13 -19 -13h-4c-8 2 -13 9 -13 17c0 2 0 4 1 6c0 1 1 3 1 4c14 25 26 51 39 77l36 78c11 26 22 53 33 79c11 27 22 53 32 80c21 53 41 107 59 161c5 14 10 27 14 41s9 27 13 41
s8 27 11 41zM296 754c12 0 22 -10 22 -23c0 -12 -10 -22 -22 -22c-13 0 -23 10 -23 22c0 13 10 23 23 23z" />
    <glyph glyph-name="cent" unicode="&#xa2;" horiz-adv-x="1139" 
 />
    <glyph glyph-name="sterling" unicode="&#xa3;" horiz-adv-x="495" 
 />
    <glyph glyph-name="currency" unicode="&#xa4;" horiz-adv-x="495" 
 />
    <glyph glyph-name="yen" unicode="&#xa5;" horiz-adv-x="495" 
 />
    <glyph glyph-name="brokenbar" unicode="&#xa6;" horiz-adv-x="495" 
 />
    <glyph glyph-name="section" unicode="&#xa7;" horiz-adv-x="495" 
 />
    <glyph glyph-name="dieresis" unicode="&#xa8;" horiz-adv-x="500" 
 />
    <glyph glyph-name="copyright" unicode="&#xa9;" horiz-adv-x="818" 
 />
    <glyph glyph-name="ordfeminine" unicode="&#xaa;" horiz-adv-x="648" 
 />
    <glyph glyph-name="guillemotleft" unicode="&#xab;" horiz-adv-x="944" 
 />
    <glyph glyph-name="logicalnot" unicode="&#xac;" horiz-adv-x="495" 
 />
    <glyph glyph-name="registered" unicode="&#xae;" horiz-adv-x="818" 
 />
    <glyph glyph-name="macron" unicode="&#xaf;" horiz-adv-x="500" 
 />
    <glyph glyph-name="degree" unicode="&#xb0;" horiz-adv-x="329" 
 />
    <glyph glyph-name="plusminus" unicode="&#xb1;" horiz-adv-x="495" 
 />
    <glyph glyph-name="twosuperior" unicode="&#xb2;" horiz-adv-x="1014" 
 />
    <glyph glyph-name="threesuperior" unicode="&#xb3;" horiz-adv-x="1014" 
 />
    <glyph glyph-name="acute" unicode="&#xb4;" horiz-adv-x="500" 
 />
    <glyph glyph-name="mu" unicode="&#xb5;" horiz-adv-x="1180" 
 />
    <glyph glyph-name="paragraph" unicode="&#xb6;" horiz-adv-x="500" 
 />
    <glyph glyph-name="periodcentered" unicode="&#xb7;" horiz-adv-x="248" 
 />
    <glyph glyph-name="periodcentered" unicode="&#x2219;" horiz-adv-x="248" 
 />
    <glyph glyph-name="cedilla" unicode="&#xb8;" horiz-adv-x="500" 
 />
    <glyph glyph-name="onesuperior" unicode="&#xb9;" horiz-adv-x="1014" 
 />
    <glyph glyph-name="ordmasculine" unicode="&#xba;" horiz-adv-x="1522" 
 />
    <glyph glyph-name="guillemotright" unicode="&#xbb;" horiz-adv-x="944" 
 />
    <glyph glyph-name="onequarter" unicode="&#xbc;" horiz-adv-x="1708" 
 />
    <glyph glyph-name="onehalf" unicode="&#xbd;" horiz-adv-x="2370" 
 />
    <glyph glyph-name="threequarters" unicode="&#xbe;" horiz-adv-x="1708" 
 />
    <glyph glyph-name="questiondown" unicode="&#xbf;" horiz-adv-x="347" 
d="M349 734c0 -12 -10 -22 -22 -22s-22 10 -22 22c0 13 10 22 22 22s22 -9 22 -22zM266 70c-9 -11 -18 -21 -29 -31c-11 -9 -22 -18 -35 -25c-6 -4 -12 -7 -19 -10c-6 -3 -13 -6 -20 -8s-14 -4 -21 -5c-4 0 -8 0 -11 -1h-11c-15 0 -30 3 -44 8c-14 6 -26 14 -37 25
c-10 11 -18 24 -24 38c-5 14 -9 28 -10 43c-1 9 -1 17 -1 26c0 20 2 40 7 59c6 28 16 55 28 81s26 50 42 73c17 23 35 45 55 65l14 15l8 7l7 8c9 10 18 20 27 31s18 21 26 32c8 12 16 23 23 35c7 11 14 23 21 35c1 3 3 7 4 10c2 3 3 6 5 9c3 6 5 12 8 19c5 12 10 25 14 38
c1 7 3 13 4 20c1 3 2 6 2 10c0 1 1 3 1 5v4c0 9 7 16 15 16h2c8 0 14 -7 15 -15c0 -1 0 -3 -1 -4v-2c-1 -2 -1 -2 -1 -3l-1 -3c-1 -2 -1 -4 -2 -5c-1 -4 -2 -7 -4 -11c-2 -7 -5 -13 -8 -20c-6 -13 -12 -26 -18 -38c-14 -26 -28 -50 -44 -73c-16 -24 -33 -46 -51 -68
c-9 -10 -18 -21 -28 -31l-7 -8l-8 -7l-14 -15c-38 -40 -70 -85 -92 -136c-12 -25 -20 -51 -26 -77c-4 -19 -6 -37 -6 -56c0 -8 0 -16 1 -24c1 -14 4 -27 9 -39c4 -12 11 -23 20 -33c8 -9 19 -17 31 -21c12 -5 25 -8 38 -9h4c25 0 50 8 72 20c24 14 45 32 62 53
c9 10 17 22 24 33c8 12 14 24 20 36c11 26 19 52 22 79c1 8 1 16 1 24c0 19 -2 38 -8 56l-3 9c-1 3 -2 6 -4 9c-1 4 -3 6 -4 9c-2 3 -3 6 -5 9c-7 11 -15 21 -25 29c-3 3 -5 8 -5 12s1 7 4 10s7 5 11 5s8 -1 11 -4c1 0 1 -1 2 -2c9 -13 17 -26 23 -39c6 -14 10 -28 13 -43
c3 -14 4 -28 4 -43v-8c0 -11 -1 -24 -3 -35c-4 -28 -13 -55 -25 -81s-27 -50 -45 -72z" />
    <glyph glyph-name="Agrave" unicode="&#xc0;" horiz-adv-x="1235" 
d="M1089 153c-15 -50 -31 -100 -45 -150c-2 -9 -5 -18 -7 -27c5 -6 10 -12 15 -19c16 -22 28 -47 34 -73c4 -16 6 -32 6 -49c0 -10 0 -21 -2 -31c-2 -13 -6 -26 -12 -39c-3 -6 -6 -12 -10 -18c-4 -5 -9 -11 -16 -15c-5 -4 -12 -7 -19 -7h-3c-5 0 -8 1 -12 3c-4 1 -8 4 -11 6
c-6 6 -9 13 -12 19c-3 7 -4 14 -5 21c-2 14 -2 27 -2 41c1 13 2 26 4 39c4 26 9 52 14 78c4 17 8 34 12 50c-9 8 -18 16 -28 23c-20 15 -44 27 -68 36s-49 16 -74 21c-38 7 -78 11 -117 11c-6 -11 -12 -22 -19 -33c-26 -45 -52 -90 -80 -135c-14 -22 -28 -44 -43 -66
c-15 -21 -30 -43 -46 -64s-32 -42 -50 -62c-17 -20 -35 -39 -54 -58c-20 -18 -40 -35 -62 -51s-46 -29 -71 -39c-26 -11 -53 -18 -80 -19c-7 0 -14 -1 -21 -1s-13 1 -20 1l-21 3c-3 0 -6 1 -10 1c-3 1 -6 2 -10 3c-13 3 -26 8 -39 15c-12 7 -23 15 -34 25
c-20 19 -35 43 -45 68c-11 25 -17 51 -21 78c-2 17 -3 34 -3 51c0 10 0 19 1 29c3 53 14 105 31 155s39 98 67 142c28 45 61 87 100 123c10 9 20 17 30 25c10 9 21 16 32 24c22 14 46 27 72 35c13 5 26 8 40 9c5 0 10 1 15 1c8 0 17 -1 26 -3c7 -1 14 -3 20 -6
c7 -3 13 -6 19 -10c11 -9 21 -19 29 -32c7 -12 12 -25 16 -38c3 -14 5 -27 5 -41v-11c0 -10 -1 -20 -2 -30c-1 -13 -4 -27 -7 -40c-12 -52 -34 -101 -59 -148c-3 -6 -9 -9 -15 -9c-2 0 -5 0 -8 2c-6 3 -9 9 -9 15c0 2 1 5 2 7c0 1 1 1 1 1c27 44 50 90 64 138
c7 25 12 50 12 75c0 12 -1 24 -3 36c-3 12 -7 24 -13 34s-14 19 -23 27c-10 7 -21 12 -33 14c-8 2 -18 3 -27 3h-9c-12 -1 -25 -4 -37 -7c-24 -8 -47 -20 -68 -33c-22 -14 -42 -30 -61 -48c-38 -35 -71 -75 -98 -119s-49 -92 -64 -141c-16 -49 -26 -100 -28 -151
c-1 -9 -1 -17 -1 -26c0 -17 1 -34 4 -51c2 -12 5 -25 8 -37s7 -24 12 -35c11 -23 25 -44 43 -60c18 -17 40 -28 64 -33c3 -1 6 -1 9 -2l9 -1c6 -1 12 -2 19 -2c6 0 12 -1 18 -1s13 1 19 1c24 3 48 9 71 19s44 23 65 38c20 15 39 32 57 49c19 18 36 37 53 57
c17 19 33 39 49 60c15 20 31 41 46 62c7 11 15 21 22 32s15 21 22 32c29 43 57 87 84 132c4 7 9 14 13 21h-12c-52 -2 -104 -7 -155 -16h-3c-6 0 -12 5 -13 11v2c0 7 5 13 12 14c0 1 0 1 1 1c45 3 91 6 137 6h21c7 0 15 -1 22 -1c6 10 12 19 17 29l20 33l19 34
c26 45 52 91 77 137c26 45 51 91 76 137c25 45 50 91 76 137c13 23 25 45 39 68s27 45 43 67c8 10 16 21 25 31c10 11 20 21 33 29c7 3 14 7 22 9c5 1 10 1 14 1s8 0 11 -1h3c1 -1 2 -1 4 -1l6 -3c5 -2 9 -4 12 -7c7 -7 12 -15 15 -22c6 -15 7 -30 8 -43
c0 -14 -1 -28 -2 -42c-2 -26 -7 -53 -12 -78c-6 -26 -12 -52 -18 -77c-7 -26 -14 -51 -21 -76c-29 -101 -62 -200 -94 -299zM996 13c8 -7 17 -13 24 -20c2 5 3 10 4 15c13 51 28 102 42 152c29 100 60 200 88 300c14 50 27 100 38 151c5 25 9 50 12 75c1 9 1 18 1 27v11
c0 12 -1 24 -5 33c-2 5 -4 8 -7 11c-1 1 -2 2 -4 3c-1 0 -2 0 -2 1h-4c-2 1 -5 1 -7 1c-7 0 -14 -2 -21 -6c-9 -5 -18 -14 -26 -22c-9 -9 -17 -19 -25 -29c-15 -21 -29 -42 -43 -64s-28 -44 -41 -66c-14 -22 -27 -45 -40 -68c-13 -22 -26 -45 -39 -67
c-26 -46 -51 -91 -77 -137c-25 -45 -51 -91 -76 -137l-37 -68c-4 -7 -8 -14 -11 -20c11 -1 22 -2 32 -3c27 -3 53 -7 79 -12c25 -6 51 -14 75 -24c25 -9 48 -22 70 -37zM1045 -49c-4 5 -7 10 -11 14c-4 -12 -7 -25 -10 -37c-6 -25 -11 -51 -15 -76c-2 -13 -4 -26 -4 -38
c0 -6 -1 -13 -1 -19c0 -7 1 -13 1 -19c1 -6 2 -12 4 -17c2 -6 5 -11 8 -14c2 -2 4 -3 6 -4c3 -1 5 -2 8 -2c4 0 9 1 14 4c4 3 8 8 12 12c3 5 7 10 9 16c6 11 9 23 11 36c2 11 3 22 3 33c0 14 -1 28 -4 42c-6 25 -17 48 -31 69zM1197 854c3 -3 5 -7 8 -10c3 -2 4 -6 4 -9
c0 -4 -1 -7 -4 -9s-6 -4 -10 -4c-3 0 -6 2 -9 4l-3 6c-1 4 -2 8 -4 12s-4 8 -6 11c-4 8 -8 15 -13 23c-4 7 -9 14 -14 21s-11 14 -17 20c-3 3 -4 8 -4 12c0 5 1 9 5 13c3 3 8 4 12 4c5 0 9 -1 13 -5c1 -2 3 -5 4 -7c2 -9 5 -17 8 -25c4 -8 7 -16 11 -23c4 -8 8 -16 12 -23
c3 -4 5 -7 7 -11z" />
    <glyph glyph-name="Aacute" unicode="&#xc1;" horiz-adv-x="1271" 
d="M25 -339c-10 25 -17 51 -20 78c-2 20 -3 40 -3 60v20c4 53 15 105 31 155c17 50 40 98 68 142c28 45 61 87 100 123c9 9 19 17 30 25c10 9 21 16 32 24c22 14 46 27 71 35c13 5 26 8 40 9c5 0 10 1 15 1c9 0 18 -1 26 -3c7 -1 14 -3 21 -6c6 -3 12 -6 18 -10
c12 -9 22 -19 29 -32c8 -12 13 -25 16 -38c3 -14 5 -27 6 -41c0 -14 -1 -27 -2 -41c-2 -13 -4 -27 -7 -40c-13 -52 -35 -101 -59 -148c-3 -6 -9 -9 -15 -9c-3 0 -5 0 -8 2c-6 3 -9 8 -9 14c0 3 0 6 2 8v1c28 44 51 90 65 138c7 25 11 50 12 75c0 12 -1 24 -4 36
c-2 12 -7 24 -13 34c-5 10 -13 19 -23 27c-9 7 -20 12 -32 14c-9 2 -18 3 -27 3h-10c-12 -1 -24 -4 -36 -7c-24 -8 -47 -20 -69 -33c-21 -14 -42 -30 -61 -48c-38 -35 -70 -75 -97 -119c-28 -44 -49 -92 -65 -141s-26 -100 -28 -151v-18c0 -20 1 -40 4 -59
c1 -12 4 -25 7 -37c4 -12 8 -24 13 -35c10 -23 24 -44 42 -60c19 -17 41 -28 64 -33c3 -1 6 -1 9 -2l10 -1c6 -1 12 -2 18 -2c7 0 13 -1 19 -1s12 1 18 1c25 3 49 9 72 19c22 10 44 23 64 38c21 15 40 32 58 49c18 18 36 37 53 57c16 19 33 39 48 60c16 20 31 41 46 62
c8 11 15 21 22 32c8 11 15 21 22 32c29 43 57 87 84 132c5 7 9 14 14 21h-13c-51 -2 -103 -7 -154 -16h-3c-7 0 -12 5 -13 11v3c0 7 4 12 11 13c0 1 1 1 1 1c46 3 91 6 137 6h21c8 0 15 -1 23 -1c5 10 11 19 17 29l19 33l20 34c26 45 51 91 77 137c25 45 51 91 75 137
c26 45 51 91 76 137c13 23 26 45 40 68c13 23 27 45 43 67c7 10 16 21 25 31c9 11 19 21 33 29c6 3 14 7 22 9c5 1 10 1 14 1s8 0 11 -1h3c1 -1 2 -1 3 -1c2 -1 5 -2 7 -3c4 -2 8 -4 12 -7c7 -7 11 -15 14 -22c6 -15 8 -30 8 -43v-12c0 -10 0 -20 -1 -30
c-3 -26 -7 -53 -13 -78c-5 -26 -11 -52 -18 -77c-6 -26 -13 -51 -21 -76c-29 -101 -62 -200 -93 -299c-16 -50 -31 -100 -45 -150c-3 -9 -5 -18 -8 -27c6 -6 11 -12 16 -19c16 -22 27 -47 34 -73c4 -16 6 -32 6 -48c0 -11 -1 -21 -3 -32c-2 -13 -6 -26 -11 -39
c-3 -6 -7 -12 -11 -18c-4 -5 -9 -11 -15 -15c-5 -4 -12 -7 -20 -7h-3c-4 0 -8 1 -12 3c-3 1 -7 4 -10 6c-6 6 -10 13 -13 19c-2 7 -4 14 -5 21c-1 8 -2 16 -2 24c0 6 1 11 1 17c1 13 2 26 4 39c3 26 8 52 14 78c3 17 7 34 11 50c-8 8 -17 16 -27 23c-21 15 -44 27 -68 36
s-49 16 -74 21c-39 7 -78 11 -117 11c-7 -11 -13 -22 -19 -33c-26 -45 -53 -90 -81 -135c-13 -22 -28 -44 -43 -66c-14 -21 -30 -43 -46 -64c-15 -21 -32 -42 -49 -62c-18 -20 -36 -39 -55 -58c-19 -18 -40 -35 -62 -51s-45 -29 -71 -39c-25 -11 -52 -18 -80 -19
c-6 0 -13 -1 -20 -1s-14 1 -21 1c-7 1 -13 2 -20 3c-3 0 -7 1 -10 1c-4 1 -7 2 -10 3c-14 3 -27 8 -39 15c-13 7 -24 15 -34 25c-20 19 -35 43 -46 68zM1044 -49c-3 5 -7 10 -11 14c-3 -12 -6 -25 -9 -37c-6 -25 -12 -51 -16 -76c-1 -13 -3 -26 -4 -38c0 -5 -1 -11 -1 -16
c0 -8 1 -15 2 -22c0 -6 2 -12 4 -17c1 -6 4 -11 8 -14c2 -2 4 -3 6 -4s5 -2 7 -2c5 0 10 1 14 4c5 3 9 8 12 12c4 5 7 10 10 16c5 11 9 23 11 36c2 10 3 21 3 32c0 14 -2 29 -5 43c-6 25 -16 48 -31 69zM788 177l-38 -68c-3 -7 -7 -14 -11 -20l33 -3c26 -3 52 -7 78 -12
c26 -6 51 -14 76 -24c24 -9 48 -22 69 -37c9 -7 17 -13 25 -20c1 5 3 10 4 15c13 51 27 102 42 152c29 100 60 200 88 300c13 50 27 100 37 151c5 25 10 50 12 75c1 13 2 25 2 38c-1 12 -2 24 -6 33c-1 5 -4 8 -6 11c-1 1 -3 2 -4 3c-1 0 -2 0 -3 1h-3c-3 1 -5 1 -8 1
c-7 0 -13 -2 -20 -6c-9 -5 -18 -14 -27 -22c-8 -9 -16 -19 -24 -29c-15 -21 -30 -42 -44 -64s-27 -44 -41 -66c-13 -22 -26 -45 -39 -68c-14 -22 -27 -45 -39 -67c-26 -46 -52 -91 -77 -137c-26 -45 -51 -91 -76 -137zM1236 936c3 8 9 12 18 12h4c8 -3 12 -10 12 -18v-4
c-1 -3 -3 -5 -4 -7c-6 -6 -12 -13 -17 -20l-15 -21c-4 -8 -9 -15 -13 -23c-1 -3 -3 -7 -5 -11s-3 -8 -5 -12c-2 -6 -7 -10 -12 -10c-2 0 -3 1 -4 1c-6 2 -10 7 -10 12c0 2 1 3 1 4c1 2 2 4 3 5c3 3 6 7 8 10c3 4 5 7 7 11c5 7 9 15 13 23c4 7 7 15 10 23c4 8 7 16 9 25z" />
    <glyph glyph-name="Acircumflex" unicode="&#xc2;" horiz-adv-x="1291" 
d="M491 -287c-17 -20 -35 -39 -54 -58c-20 -18 -40 -35 -62 -51s-46 -29 -71 -39c-26 -11 -53 -18 -80 -19c-7 0 -14 -1 -21 -1s-13 1 -20 1l-21 3c-3 0 -6 1 -10 1c-3 1 -6 2 -10 3c-13 3 -26 8 -39 15c-12 7 -23 15 -34 25c-20 19 -35 43 -45 68c-11 25 -17 51 -21 78
c-2 16 -3 33 -3 50c0 10 1 20 1 30c3 53 14 105 31 155s39 98 67 142c28 45 61 87 100 123c10 9 20 17 30 25c11 9 21 16 32 24c22 14 46 27 72 35c13 5 26 8 40 9c5 0 10 1 15 1c8 0 17 -1 26 -3c7 -1 14 -3 20 -6c7 -3 13 -6 19 -10c11 -9 21 -19 29 -32
c7 -12 12 -25 16 -38c3 -14 5 -27 5 -41v-11c0 -10 -1 -20 -2 -30c-1 -13 -4 -27 -7 -40c-12 -52 -34 -101 -59 -148c-3 -6 -8 -9 -14 -9c-3 0 -6 0 -9 2c-6 3 -9 9 -9 15c0 2 1 5 2 7c0 1 1 1 1 1c27 44 50 90 65 138c6 25 11 50 11 75c0 12 -1 24 -3 36
c-3 12 -7 24 -13 34s-14 19 -23 27c-10 7 -21 12 -33 14c-8 2 -18 3 -27 3h-9c-12 -1 -25 -4 -37 -7c-24 -8 -47 -20 -68 -33c-22 -14 -42 -30 -61 -48c-38 -35 -71 -75 -98 -119s-49 -92 -64 -141c-16 -49 -26 -100 -28 -151v-19c0 -20 1 -39 3 -58c2 -12 5 -25 8 -37
s7 -24 12 -35c11 -23 25 -44 43 -60c18 -17 40 -28 64 -33c3 -1 6 -1 9 -2l9 -1c6 -1 12 -2 19 -2c6 0 12 -1 18 -1s13 1 19 1c24 3 48 9 71 19s44 23 65 38c20 15 39 32 58 49c18 18 35 37 52 57c17 19 33 39 49 60c15 20 31 41 46 62c7 11 15 21 22 32s15 21 22 32
c29 43 57 87 84 132c4 7 9 14 13 21h-12c-52 -2 -104 -7 -155 -16h-3c-6 0 -11 5 -13 11v2c0 7 5 13 12 14c0 1 0 1 1 1c45 3 91 6 137 6h21c7 0 15 -1 22 -1c6 10 12 19 17 29l20 33l19 34c27 45 52 91 77 137c26 45 51 91 76 137c25 45 50 91 76 137c13 23 26 45 39 68
c14 23 28 45 43 67c8 10 16 21 25 31c10 11 20 21 33 29c7 3 14 7 22 9c5 1 10 1 15 1c3 0 7 0 10 -1h3c1 -1 2 -1 4 -1l6 -3c5 -2 9 -4 12 -7c7 -7 12 -15 15 -22c6 -15 7 -30 8 -43c0 -14 -1 -28 -2 -42c-2 -26 -7 -53 -12 -78c-5 -26 -12 -52 -18 -77
c-7 -26 -14 -51 -21 -76c-29 -101 -62 -200 -94 -299c-15 -50 -31 -100 -45 -150c-2 -9 -5 -18 -7 -27c5 -6 11 -12 15 -19c16 -22 28 -47 34 -73c4 -16 6 -32 6 -49c0 -10 0 -21 -2 -31c-2 -13 -6 -26 -12 -39c-3 -6 -6 -12 -10 -18c-4 -5 -9 -11 -16 -15
c-5 -4 -12 -7 -19 -7h-3c-5 0 -8 1 -12 3c-4 1 -7 4 -10 6c-7 6 -10 13 -13 19c-3 7 -4 14 -5 21c-2 14 -2 27 -2 41c1 13 2 26 4 39c4 26 9 52 14 78c4 17 8 34 12 50c-9 8 -18 16 -28 23c-20 15 -44 27 -68 36s-49 16 -74 21c-38 7 -78 11 -117 11c-6 -11 -12 -22 -19 -33
c-26 -45 -52 -90 -80 -135c-14 -22 -28 -44 -43 -66c-15 -21 -30 -43 -46 -64s-32 -42 -50 -62zM1043 -49c-4 5 -7 10 -11 14c-4 -12 -7 -25 -10 -37c-6 -25 -11 -51 -15 -76c-2 -13 -3 -26 -4 -38c0 -6 -1 -13 -1 -19c0 -7 1 -13 1 -19c1 -6 2 -12 4 -17c2 -6 5 -11 8 -14
c2 -2 4 -3 6 -4c3 -1 5 -2 8 -2c4 0 9 1 14 4c4 3 8 8 12 12c4 5 7 10 9 16c6 11 9 23 12 36c2 10 2 20 2 31c0 15 -1 29 -4 44c-6 25 -17 48 -31 69zM786 177l-37 -68c-4 -7 -8 -14 -11 -20l33 -3c26 -3 52 -7 78 -12c25 -6 51 -14 75 -24c25 -9 48 -22 70 -37
c8 -7 17 -13 24 -20c2 5 3 10 4 15c13 51 28 102 42 152c29 100 60 200 88 300c14 50 27 100 38 151c5 25 9 50 12 75c1 9 1 18 1 27v11c0 12 -1 24 -5 33c-2 5 -4 8 -7 11c-1 1 -2 2 -4 3c-1 0 -1 0 -2 1h-4c-2 1 -5 1 -7 1c-7 0 -14 -2 -21 -6c-9 -5 -18 -14 -26 -22
c-9 -9 -17 -19 -25 -29c-15 -21 -29 -42 -43 -64s-28 -44 -41 -66c-14 -22 -27 -45 -40 -68c-13 -22 -26 -45 -39 -67c-26 -46 -51 -91 -77 -137c-25 -45 -51 -91 -76 -137zM1259 804c-2 3 -2 6 -2 9c0 12 -1 23 -2 34s-3 22 -5 33c-3 11 -5 22 -9 32c-1 6 -3 11 -5 16
c-6 -4 -11 -8 -17 -12c-9 -7 -19 -15 -28 -23s-18 -16 -26 -24c-9 -9 -17 -18 -25 -28c-3 -4 -8 -6 -12 -6s-7 1 -10 3c-4 4 -6 8 -6 13c0 3 1 7 3 9s3 4 5 5c11 6 22 12 31 19c10 7 20 15 29 22c10 8 19 16 28 24s17 17 25 26l1 1c2 3 5 4 8 4s6 -1 8 -3s4 -5 4 -9v-6
c0 -9 1 -18 2 -27c2 -11 5 -22 7 -33c3 -11 6 -21 10 -32c4 -10 8 -21 14 -31c1 -2 2 -5 2 -7c0 -6 -3 -12 -8 -15c-2 -1 -5 -2 -8 -2c-6 0 -11 3 -14 8z" />
    <glyph glyph-name="Atilde" unicode="&#xc3;" horiz-adv-x="1332" 
d="M1089 153c-16 -50 -31 -100 -45 -150c-3 -9 -5 -18 -8 -27c6 -6 11 -12 16 -19c16 -22 27 -47 34 -73c4 -16 6 -32 6 -48c0 -11 -1 -21 -3 -32c-2 -13 -6 -26 -11 -39c-3 -6 -7 -12 -11 -18c-4 -5 -9 -11 -15 -15c-5 -4 -12 -7 -20 -7h-3c-4 0 -8 1 -12 3
c-3 1 -7 4 -10 6c-6 6 -10 13 -13 19c-2 7 -4 14 -5 21c-1 8 -2 16 -2 24c0 6 1 11 1 17c1 13 2 26 4 39c3 26 8 52 14 78c3 17 7 34 11 50c-8 8 -17 16 -27 23c-21 15 -44 27 -68 36s-49 16 -74 21c-39 7 -78 11 -117 11c-7 -11 -13 -22 -19 -33c-26 -45 -52 -90 -80 -135
c-14 -22 -29 -44 -44 -66c-14 -21 -30 -43 -45 -64c-16 -21 -33 -42 -50 -62s-36 -39 -55 -58c-19 -18 -40 -35 -62 -51s-45 -29 -71 -39c-25 -11 -52 -18 -80 -19c-6 0 -13 -1 -20 -1s-14 1 -21 1c-7 1 -13 2 -20 3c-3 0 -7 1 -10 1c-3 1 -7 2 -10 3c-14 3 -27 8 -39 15
s-24 15 -34 25c-20 19 -35 43 -46 68c-10 25 -17 51 -20 78c-2 17 -3 34 -3 51c0 10 0 19 1 29c3 53 14 105 30 155c17 50 40 98 68 142c28 45 61 87 100 123c9 9 19 17 30 25c10 9 21 16 32 24c22 14 46 27 71 35c13 5 26 8 40 9c5 0 10 1 15 1c9 0 18 -1 26 -3
c7 -1 14 -3 21 -6c6 -3 12 -6 18 -10c12 -9 22 -19 29 -32c8 -12 13 -25 16 -38c4 -14 5 -27 6 -41c0 -14 -1 -27 -2 -41c-2 -13 -4 -27 -7 -40c-13 -52 -34 -101 -59 -148c-3 -6 -9 -9 -15 -9c-3 0 -5 0 -8 2c-6 3 -9 8 -9 14c0 3 0 6 2 8v1h1c27 44 50 90 64 138
c7 25 11 50 12 75c0 12 -1 24 -4 36c-2 12 -7 24 -13 34c-5 10 -13 19 -23 27c-9 7 -20 12 -32 14c-9 2 -18 3 -27 3h-10c-12 -1 -24 -4 -36 -7c-24 -8 -47 -20 -69 -33c-21 -14 -42 -30 -61 -48c-38 -35 -70 -75 -97 -119s-49 -92 -65 -141s-26 -100 -28 -151v-18
c0 -20 1 -40 4 -59c2 -12 4 -25 7 -37c4 -12 8 -24 13 -35c10 -23 24 -44 42 -60c19 -17 41 -28 64 -33c3 -1 6 -1 9 -2l10 -1c6 -1 12 -2 18 -2c7 0 13 -1 19 -1s12 1 18 1c25 3 49 9 72 19c22 10 44 23 64 38c21 15 40 32 58 49c18 18 36 37 53 57c16 19 33 39 48 60
c16 20 31 41 46 62c8 11 15 21 23 32c7 11 14 21 21 32c29 43 57 87 84 132c5 7 9 14 14 21h-13c-51 -2 -103 -7 -154 -16h-3c-7 0 -12 5 -13 11v3c0 7 4 12 11 13l1 1c46 3 92 6 137 6h21c8 0 15 -1 23 -1c5 10 11 19 17 29l20 33l19 34c26 45 52 91 77 137
c25 45 51 91 76 137c25 45 50 91 75 137c13 23 26 45 40 68c13 23 27 45 43 67c7 10 16 21 25 31c9 11 19 21 33 29c6 3 14 7 22 9c5 1 10 1 14 1s8 0 11 -1h3c1 -1 2 -1 3 -1c2 -1 5 -2 7 -3c4 -2 8 -4 12 -7c7 -7 11 -15 14 -22c6 -15 8 -30 8 -43v-12c0 -10 0 -20 -1 -30
c-3 -26 -7 -53 -13 -78c-5 -26 -11 -52 -18 -77c-6 -26 -13 -51 -21 -76c-29 -101 -62 -200 -93 -299zM995 13c9 -7 17 -13 25 -20c1 5 3 10 4 15c13 51 27 102 42 152c29 100 60 200 88 300c14 50 27 100 37 151c5 25 10 50 12 75c2 13 2 25 2 38c-1 12 -2 24 -5 33
c-2 5 -5 8 -7 11c-1 1 -3 2 -4 3c-1 0 -2 0 -3 1h-3c-3 1 -5 1 -8 1c-7 0 -13 -2 -20 -6c-9 -5 -18 -14 -27 -22c-8 -9 -16 -19 -24 -29c-15 -21 -30 -42 -44 -64s-27 -44 -41 -66c-13 -22 -26 -45 -39 -68c-14 -22 -26 -45 -39 -67c-26 -46 -52 -91 -77 -137
c-26 -45 -51 -91 -76 -137l-38 -68c-3 -7 -7 -14 -11 -20l33 -3c26 -3 52 -7 78 -12c26 -6 51 -14 76 -24c24 -9 48 -22 69 -37zM1044 -49c-3 5 -7 10 -11 14c-3 -12 -6 -25 -9 -37c-6 -25 -12 -51 -15 -76c-2 -13 -4 -26 -5 -38c0 -5 -1 -11 -1 -16c0 -8 1 -15 2 -22
c0 -6 2 -12 4 -17c2 -6 4 -11 8 -14c2 -2 4 -3 6 -4s5 -2 7 -2c5 0 10 1 14 4c5 3 9 8 12 12c4 5 7 10 10 16c5 11 9 23 11 36c2 10 3 21 3 32c0 14 -2 29 -5 43c-5 25 -16 48 -31 69zM1274 804c-13 0 -26 5 -36 13c-5 4 -10 8 -14 13c-2 2 -3 5 -5 7c-1 2 -3 4 -5 6
c-7 8 -14 15 -23 21c-8 5 -17 10 -26 11c-4 0 -9 0 -12 -2c-4 -1 -7 -3 -9 -5c-3 -5 -5 -11 -5 -17v-8c0 -8 -5 -15 -14 -16h-3c-8 0 -15 5 -17 14v6l1 2c1 7 3 14 7 20c3 7 8 13 15 18c6 4 13 7 20 8c3 0 6 1 9 1c4 0 8 -1 12 -2c12 -3 23 -9 33 -16c9 -7 17 -16 25 -24
c2 -2 4 -5 6 -7c1 -2 3 -5 5 -6c3 -4 6 -7 10 -10c7 -4 14 -6 21 -6h4c9 1 17 5 22 11c3 3 4 6 5 9v3c0 3 0 5 -1 7s-1 4 -1 5c0 8 5 15 12 17c2 1 4 1 5 1c8 0 15 -5 17 -12c1 -2 1 -4 1 -6v-3c0 -8 -3 -16 -6 -23c-4 -7 -9 -13 -14 -17c-12 -9 -25 -13 -39 -13z" />
    </font>
</defs>
</svg>
